<?xml version="1.0" encoding="UTF-8" standalone="no"?>
<svg width="67.7333mm" height="52.1547mm"
 viewBox="0 0 200 154"
 xmlns="http://www.w3.org/2000/svg" xmlns:xlink="http://www.w3.org/1999/xlink"  version="1.2" baseProfile="tiny">
<defs>
</defs>
<g fill="none" stroke="black" stroke-width="1" fill-rule="evenodd" stroke-linecap="square" stroke-linejoin="bevel" >

<g fill="#ffffff" fill-opacity="0" stroke="none" transform="matrix(1,0,0,1,0,0)"
font-family="Nimbus Sans L" font-size="12.5" font-weight="400" font-style="normal" 
>
<path vector-effect="non-scaling-stroke" fill-rule="evenodd" d="M0,0 L200,0 L200,154 L0,154 L0,0z "/>
</g>

<g fill="none" stroke="#000000" stroke-opacity="1" stroke-width="1" stroke-linecap="square" stroke-linejoin="bevel" transform="matrix(1,0,0,1,0,0)"
font-family="Nimbus Sans L" font-size="12.5" font-weight="400" font-style="normal" 
>
</g>

<g fill="none" stroke="#000000" stroke-opacity="1" stroke-width="1" stroke-linecap="square" stroke-linejoin="bevel" transform="matrix(1,0,0,1,0,0)"
font-family="Nimbus Sans L" font-size="12.5" font-weight="400" font-style="normal" 
clip-path="url(#clip1382)" >
<defs><clipPath id="clip1382"><path vector-effect="non-scaling-stroke" fill-rule="evenodd" d="M0,0 L200,0 L200,154.545 L0,154.545 L0,0z "/>
</clipPath></defs></g>

<g fill="none" stroke="#000000" stroke-opacity="1" stroke-width="1" stroke-linecap="square" stroke-linejoin="bevel" transform="matrix(4.54545,0,0,4.54545,168.182,77.2727)"
font-family="Nimbus Sans L" font-size="12.5" font-weight="400" font-style="normal" 
clip-path="url(#clip1383)" >
<defs><clipPath id="clip1383"><path vector-effect="non-scaling-stroke" fill-rule="evenodd" d="M-37,-17 L7,-17 L7,17 L-37,17 L-37,-17z "/>
</clipPath></defs></g>

<g fill="#000000" fill-opacity="0" stroke="#000000" stroke-opacity="1" stroke-width="2" stroke-linecap="round" stroke-linejoin="miter" stroke-miterlimit="2" transform="matrix(4.54545,0,0,4.54545,168.182,77.2727)"
font-family="Nimbus Sans L" font-size="12.5" font-weight="400" font-style="normal" 
clip-path="url(#clip1383)" >
<path vector-effect="none" fill-rule="evenodd" d="M0,-5 L5,0 L0,5"/>
</g>

<g fill="none" stroke="#000000" stroke-opacity="1" stroke-width="1" stroke-linecap="square" stroke-linejoin="bevel" transform="matrix(4.54545,0,0,4.54545,168.182,77.2727)"
font-family="Nimbus Sans L" font-size="12.5" font-weight="400" font-style="normal" 
clip-path="url(#clip1383)" >
</g>

<g fill="none" stroke="#000000" stroke-opacity="1" stroke-width="1" stroke-linecap="square" stroke-linejoin="bevel" transform="matrix(-4.54545,0,0,-4.54545,31.8182,77.2727)"
font-family="Nimbus Sans L" font-size="12.5" font-weight="400" font-style="normal" 
clip-path="url(#clip1384)" >
<defs><clipPath id="clip1384"><path vector-effect="non-scaling-stroke" fill-rule="evenodd" d="M7,17 L-37,17 L-37,-17 L7,-17 L7,17z "/>
</clipPath></defs></g>

<g fill="#000000" fill-opacity="0" stroke="#000000" stroke-opacity="1" stroke-width="2" stroke-linecap="round" stroke-linejoin="miter" stroke-miterlimit="2" transform="matrix(-4.54545,0,0,-4.54545,31.8182,77.2727)"
font-family="Nimbus Sans L" font-size="12.5" font-weight="400" font-style="normal" 
clip-path="url(#clip1384)" >
<path vector-effect="none" fill-rule="evenodd" d="M5,-5 L0,0 L5,5"/>
</g>

<g fill="none" stroke="#000000" stroke-opacity="1" stroke-width="1" stroke-linecap="square" stroke-linejoin="bevel" transform="matrix(-4.54545,0,0,-4.54545,31.8182,77.2727)"
font-family="Nimbus Sans L" font-size="12.5" font-weight="400" font-style="normal" 
clip-path="url(#clip1384)" >
</g>

<g fill="none" stroke="#000000" stroke-opacity="1" stroke-width="1" stroke-linecap="square" stroke-linejoin="bevel" transform="matrix(4.54545,0,0,4.54545,31.8182,9.09091)"
font-family="Nimbus Sans L" font-size="12.5" font-weight="400" font-style="normal" 
clip-path="url(#clip1385)" >
<defs><clipPath id="clip1385"><path vector-effect="non-scaling-stroke" fill-rule="evenodd" d="M-7,-2 L37,-2 L37,32 L-7,32 L-7,-2z "/>
</clipPath></defs></g>

<g fill="#ffffff" fill-opacity="1" stroke="none" transform="matrix(4.54545,0,0,4.54545,31.8182,9.09091)"
font-family="Nimbus Sans L" font-size="12.5" font-weight="400" font-style="normal" 
clip-path="url(#clip1385)" >
<path vector-effect="none" fill-rule="evenodd" d="M0,0 L30,0 L30,30 L0,30 L0,0z "/>
</g>

<g fill="none" stroke="#000000" stroke-opacity="1" stroke-width="1" stroke-linecap="square" stroke-linejoin="bevel" transform="matrix(4.54545,0,0,4.54545,31.8182,9.09091)"
font-family="Nimbus Sans L" font-size="12.5" font-weight="400" font-style="normal" 
clip-path="url(#clip1385)" >
</g>

<g fill="none" stroke="#000000" stroke-opacity="1" stroke-width="1" stroke-linecap="square" stroke-linejoin="bevel" transform="matrix(4.54545,0,0,4.54545,31.8182,9.09091)"
font-family="Nimbus Sans L" font-size="12.5" font-weight="400" font-style="normal" 
clip-path="url(#clip1385)" >
</g>

<g fill="none" stroke="#000000" stroke-opacity="1" stroke-width="1" stroke-linecap="square" stroke-linejoin="bevel" transform="matrix(4.54545,0,0,4.54545,31.8182,9.09091)"
font-family="Nimbus Sans L" font-size="12.5" font-weight="400" font-style="normal" 
clip-path="url(#clip1386)" >
<defs><clipPath id="clip1386"><path vector-effect="non-scaling-stroke" fill-rule="evenodd" d="M0,0 L30,0 L30,30 L0,30 L0,0z "/>
</clipPath></defs></g>

<g fill="none" stroke="#000000" stroke-opacity="1" stroke-width="1" stroke-linecap="square" stroke-linejoin="bevel" transform="matrix(4.54545,0,0,4.54545,-579.545,-1511.36)"
font-family="Nimbus Sans L" font-size="12.5" font-weight="400" font-style="normal" 
clip-path="url(#clip1387)" >
<defs><clipPath id="clip1387"><path vector-effect="none" fill-rule="evenodd" d="M134,335 L164,335 L164,365 L134,365 L134,335z "/>
</clipPath></defs><polyline fill="none" vector-effect="none" points="141,352 142,352 144,358 149,342 159,342 " />
</g>

<g fill="none" stroke="#000000" stroke-opacity="1" stroke-width="1" stroke-linecap="square" stroke-linejoin="bevel" transform="matrix(4.54545,0,0,4.54545,122.727,72.7273)"
font-family="Liberation Sans" font-size="10" font-weight="400" font-style="normal" 
clip-path="url(#clip1388)" >
<defs><clipPath id="clip1388"><path vector-effect="none" fill-rule="evenodd" d="M-20,-14 L10,-14 L10,16 L-20,16 L-20,-14z "/>
</clipPath></defs></g>

<g fill="none" stroke="#000000" stroke-opacity="1" stroke-width="1" stroke-linecap="square" stroke-linejoin="bevel" transform="matrix(4.54545,0,0,4.54545,122.727,72.7273)"
font-family="Liberation Sans" font-size="10" font-weight="400" font-style="normal" 
clip-path="url(#clip1388)" >
<text textLength="6" fill="#000000" fill-opacity="1" stroke="none" xml:space="preserve" x="-3" y="3" font-family="Liberation Sans" font-size="10" font-weight="400" font-style="normal" 
 >u</text>
</g>

<g fill="none" stroke="#000000" stroke-opacity="1" stroke-width="1" stroke-linecap="square" stroke-linejoin="bevel" transform="matrix(4.54545,0,0,4.54545,122.727,72.7273)"
font-family="Liberation Sans" font-size="10" font-weight="400" font-style="normal" 
clip-path="url(#clip1388)" >
</g>

<g fill="none" stroke="#000000" stroke-opacity="1" stroke-width="1" stroke-linecap="square" stroke-linejoin="bevel" transform="matrix(4.54545,0,0,4.54545,122.727,72.7273)"
font-family="Liberation Sans" font-size="10" font-weight="400" font-style="normal" 
clip-path="url(#clip1389)" >
<defs><clipPath id="clip1389"><path vector-effect="none" fill-rule="evenodd" d="M-7,-2 L37,-2 L37,32 L-7,32 L-7,-2z "/>
</clipPath></defs></g>

<g fill="none" stroke="#000000" stroke-opacity="1" stroke-width="1" stroke-linecap="square" stroke-linejoin="bevel" transform="matrix(1,0,0,1,0,0)"
font-family="Liberation Sans" font-size="10" font-weight="400" font-style="normal" 
clip-path="url(#clip1389)" >
</g>

<g fill="none" stroke="#000000" stroke-opacity="1" stroke-width="1" stroke-linecap="square" stroke-linejoin="bevel" transform="matrix(4.54545,0,0,4.54545,31.8182,9.09091)"
font-family="Nimbus Sans L" font-size="12.5" font-weight="400" font-style="normal" 
clip-path="url(#clip1389)" >
</g>

<g fill="none" stroke="#000000" stroke-opacity="1" stroke-width="1" stroke-linecap="square" stroke-linejoin="bevel" transform="matrix(4.54545,0,0,4.54545,31.8182,9.09091)"
font-family="Nimbus Sans L" font-size="12.5" font-weight="400" font-style="normal" 
clip-path="url(#clip1389)" >
</g>

<g fill="none" stroke="#000000" stroke-opacity="1" stroke-width="0.545719" stroke-linecap="butt" stroke-linejoin="miter" stroke-miterlimit="2" transform="matrix(4.54545,0,0,4.54545,31.8182,9.09091)"
font-family="Nimbus Sans L" font-size="12.5" font-weight="400" font-style="normal" 
clip-path="url(#clip1389)" >
<path vector-effect="none" fill-rule="evenodd" d="M0,0 L30,0 L30,30 L0,30 L0,0z "/>
</g>

<g fill="none" stroke="#000000" stroke-opacity="1" stroke-width="1" stroke-linecap="square" stroke-linejoin="bevel" transform="matrix(4.54545,0,0,4.54545,31.8182,9.09091)"
font-family="Nimbus Sans L" font-size="12.5" font-weight="400" font-style="normal" 
clip-path="url(#clip1389)" >
</g>

<g fill="none" stroke="#000000" stroke-opacity="1" stroke-width="1" stroke-linecap="square" stroke-linejoin="bevel" transform="matrix(1,0,0,1,0,0)"
font-family="Nimbus Sans L" font-size="12.5" font-weight="400" font-style="normal" 
>
</g>

<g fill="none" stroke="#000000" stroke-opacity="1" stroke-width="1" stroke-linecap="square" stroke-linejoin="bevel" transform="matrix(1,0,0,1,0,0)"
font-family="Nimbus Sans L" font-size="12.5" font-weight="400" font-style="normal" 
>
</g>

<g fill="none" stroke="#000000" stroke-opacity="1" stroke-width="1" stroke-linecap="square" stroke-linejoin="bevel" transform="matrix(1,0,0,1,0,0)"
font-family="Nimbus Sans L" font-size="12.5" font-weight="400" font-style="normal" 
clip-path="url(#clip1390)" >
<defs><clipPath id="clip1390"><path vector-effect="non-scaling-stroke" fill-rule="evenodd" d="M0,0 L200,0 L200,154 L0,154 L0,0z "/>
</clipPath></defs></g>

<g fill="none" stroke="#000000" stroke-opacity="1" stroke-width="1" stroke-linecap="square" stroke-linejoin="bevel" transform="matrix(1,0,0,1,0,0)"
font-family="Nimbus Sans L" font-size="12.5" font-weight="400" font-style="normal" 
>
</g>

<g fill="none" stroke="#000000" stroke-opacity="1" stroke-width="1" stroke-linecap="square" stroke-linejoin="bevel" transform="matrix(1,0,0,1,0,0)"
font-family="Nimbus Sans L" font-size="12.5" font-weight="400" font-style="normal" 
>
</g>

<g fill="none" stroke="#000000" stroke-opacity="1" stroke-width="1" stroke-linecap="square" stroke-linejoin="bevel" transform="matrix(1,0,0,1,0,0)"
font-family="Nimbus Sans L" font-size="12.5" font-weight="400" font-style="normal" 
clip-path="url(#clip1391)" >
<defs><clipPath id="clip1391"><path vector-effect="non-scaling-stroke" fill-rule="evenodd" d="M0,0 L1,0 L1,1 L0,1 L0,0z "/>
</clipPath></defs></g>

<g fill="none" stroke="#000000" stroke-opacity="1" stroke-width="1" stroke-linecap="square" stroke-linejoin="bevel" transform="matrix(1,0,0,1,0,0)"
font-family="Nimbus Sans L" font-size="12.5" font-weight="400" font-style="normal" 
>
</g>

<g fill="none" stroke="#000000" stroke-opacity="1" stroke-width="1" stroke-linecap="square" stroke-linejoin="bevel" transform="matrix(1,0,0,1,0,0)"
font-family="Nimbus Sans L" font-size="12.5" font-weight="400" font-style="normal" 
>
</g>
</g>
</svg>
