<?xml version="1.0" encoding="UTF-8" standalone="no"?>
<svg width="67.7333mm" height="52.1547mm"
 viewBox="0 0 200 154"
 xmlns="http://www.w3.org/2000/svg" xmlns:xlink="http://www.w3.org/1999/xlink"  version="1.2" baseProfile="tiny">
<defs>
</defs>
<g fill="none" stroke="black" stroke-width="1" fill-rule="evenodd" stroke-linecap="square" stroke-linejoin="bevel" >

<g fill="#ffffff" fill-opacity="0" stroke="none" transform="matrix(1,0,0,1,0,0)"
font-family="Nimbus Sans L" font-size="12.5" font-weight="400" font-style="normal" 
>
<path vector-effect="non-scaling-stroke" fill-rule="evenodd" d="M0,0 L200,0 L200,154 L0,154 L0,0z "/>
</g>

<g fill="none" stroke="#000000" stroke-opacity="1" stroke-width="1" stroke-linecap="square" stroke-linejoin="bevel" transform="matrix(1,0,0,1,0,0)"
font-family="Nimbus Sans L" font-size="12.5" font-weight="400" font-style="normal" 
>
</g>

<g fill="none" stroke="#000000" stroke-opacity="1" stroke-width="1" stroke-linecap="square" stroke-linejoin="bevel" transform="matrix(1,0,0,1,0,0)"
font-family="Nimbus Sans L" font-size="12.5" font-weight="400" font-style="normal" 
clip-path="url(#clip155)" >
<defs><clipPath id="clip155"><path vector-effect="non-scaling-stroke" fill-rule="evenodd" d="M0,0 L200,0 L200,154.545 L0,154.545 L0,0z "/>
</clipPath></defs></g>

<g fill="none" stroke="#000000" stroke-opacity="1" stroke-width="1" stroke-linecap="square" stroke-linejoin="bevel" transform="matrix(4.54545,0,0,4.54545,168.182,77.2727)"
font-family="Nimbus Sans L" font-size="12.5" font-weight="400" font-style="normal" 
clip-path="url(#clip156)" >
<defs><clipPath id="clip156"><path vector-effect="non-scaling-stroke" fill-rule="evenodd" d="M-37,-17 L7,-17 L7,17 L-37,17 L-37,-17z "/>
</clipPath></defs></g>

<g fill="#000000" fill-opacity="0" stroke="#000000" stroke-opacity="1" stroke-width="2" stroke-linecap="round" stroke-linejoin="miter" stroke-miterlimit="2" transform="matrix(4.54545,0,0,4.54545,168.182,77.2727)"
font-family="Nimbus Sans L" font-size="12.5" font-weight="400" font-style="normal" 
clip-path="url(#clip156)" >
<path vector-effect="none" fill-rule="evenodd" d="M0,-5 L5,0 L0,5"/>
</g>

<g fill="none" stroke="#000000" stroke-opacity="1" stroke-width="1" stroke-linecap="square" stroke-linejoin="bevel" transform="matrix(4.54545,0,0,4.54545,168.182,77.2727)"
font-family="Nimbus Sans L" font-size="12.5" font-weight="400" font-style="normal" 
clip-path="url(#clip156)" >
</g>

<g fill="none" stroke="#000000" stroke-opacity="1" stroke-width="1" stroke-linecap="square" stroke-linejoin="bevel" transform="matrix(-4.54545,0,0,-4.54545,31.8182,77.2727)"
font-family="Nimbus Sans L" font-size="12.5" font-weight="400" font-style="normal" 
clip-path="url(#clip157)" >
<defs><clipPath id="clip157"><path vector-effect="non-scaling-stroke" fill-rule="evenodd" d="M7,17 L-37,17 L-37,-17 L7,-17 L7,17z "/>
</clipPath></defs></g>

<g fill="#000000" fill-opacity="0" stroke="#000000" stroke-opacity="1" stroke-width="2" stroke-linecap="round" stroke-linejoin="miter" stroke-miterlimit="2" transform="matrix(-4.54545,0,0,-4.54545,31.8182,77.2727)"
font-family="Nimbus Sans L" font-size="12.5" font-weight="400" font-style="normal" 
clip-path="url(#clip157)" >
<path vector-effect="none" fill-rule="evenodd" d="M5,-5 L0,0 L5,5"/>
</g>

<g fill="none" stroke="#000000" stroke-opacity="1" stroke-width="1" stroke-linecap="square" stroke-linejoin="bevel" transform="matrix(-4.54545,0,0,-4.54545,31.8182,77.2727)"
font-family="Nimbus Sans L" font-size="12.5" font-weight="400" font-style="normal" 
clip-path="url(#clip157)" >
</g>

<g fill="none" stroke="#000000" stroke-opacity="1" stroke-width="1" stroke-linecap="square" stroke-linejoin="bevel" transform="matrix(4.54545,0,0,4.54545,31.8182,9.09091)"
font-family="Nimbus Sans L" font-size="12.5" font-weight="400" font-style="normal" 
clip-path="url(#clip158)" >
<defs><clipPath id="clip158"><path vector-effect="non-scaling-stroke" fill-rule="evenodd" d="M-7,-2 L37,-2 L37,32 L-7,32 L-7,-2z "/>
</clipPath></defs></g>

<g fill="#ffffff" fill-opacity="1" stroke="none" transform="matrix(4.54545,0,0,4.54545,31.8182,9.09091)"
font-family="Nimbus Sans L" font-size="12.5" font-weight="400" font-style="normal" 
clip-path="url(#clip158)" >
<path vector-effect="none" fill-rule="evenodd" d="M0,0 L30,0 L30,30 L0,30 L0,0z "/>
</g>

<g fill="none" stroke="#000000" stroke-opacity="1" stroke-width="1" stroke-linecap="square" stroke-linejoin="bevel" transform="matrix(4.54545,0,0,4.54545,31.8182,9.09091)"
font-family="Nimbus Sans L" font-size="12.5" font-weight="400" font-style="normal" 
clip-path="url(#clip158)" >
</g>

<g fill="none" stroke="#000000" stroke-opacity="1" stroke-width="1" stroke-linecap="square" stroke-linejoin="bevel" transform="matrix(4.54545,0,0,4.54545,31.8182,9.09091)"
font-family="Nimbus Sans L" font-size="12.5" font-weight="400" font-style="normal" 
clip-path="url(#clip158)" >
</g>

<g fill="none" stroke="#000000" stroke-opacity="1" stroke-width="1" stroke-linecap="square" stroke-linejoin="bevel" transform="matrix(4.54545,0,0,4.54545,31.8182,9.09091)"
font-family="Nimbus Sans L" font-size="12.5" font-weight="400" font-style="normal" 
clip-path="url(#clip159)" >
<defs><clipPath id="clip159"><path vector-effect="non-scaling-stroke" fill-rule="evenodd" d="M0,0 L30,0 L30,30 L0,30 L0,0z "/>
</clipPath></defs></g>

<g fill="none" stroke="#adadad" stroke-opacity="1" stroke-width="1" stroke-linecap="square" stroke-linejoin="bevel" transform="matrix(4.54545,0,0,4.54545,-1397.73,-875)"
font-family="Nimbus Sans L" font-size="12.5" font-weight="400" font-style="normal" 
clip-path="url(#clip160)" >
<defs><clipPath id="clip160"><path vector-effect="none" fill-rule="evenodd" d="M315,194 L345,194 L345,224 L315,224 L315,194z "/>
</clipPath></defs><polyline fill="none" vector-effect="none" points="321,210 339,210 " />
</g>

<g fill="none" stroke="#adadad" stroke-opacity="1" stroke-width="1" stroke-linecap="square" stroke-linejoin="bevel" transform="matrix(4.54545,0,0,4.54545,-1397.73,-875)"
font-family="Nimbus Sans L" font-size="12.5" font-weight="400" font-style="normal" 
clip-path="url(#clip160)" >
<polyline fill="none" vector-effect="none" points="330,219 330,201 " />
</g>

<g fill="none" stroke="#000000" stroke-opacity="1" stroke-width="1" stroke-linecap="square" stroke-linejoin="bevel" transform="matrix(4.54545,0,0,4.54545,-1397.73,-875)"
font-family="Nimbus Sans L" font-size="12.5" font-weight="400" font-style="normal" 
clip-path="url(#clip160)" >
<polyline fill="none" vector-effect="none" points="321,218 325,218 " />
</g>

<g fill="none" stroke="#000000" stroke-opacity="1" stroke-width="1" stroke-linecap="square" stroke-linejoin="bevel" transform="matrix(4.54545,0,0,4.54545,-1397.73,-875)"
font-family="Nimbus Sans L" font-size="12.5" font-weight="400" font-style="normal" 
clip-path="url(#clip160)" >
<polyline fill="none" vector-effect="none" points="325,218 335,202 " />
</g>

<g fill="none" stroke="#000000" stroke-opacity="1" stroke-width="1" stroke-linecap="square" stroke-linejoin="bevel" transform="matrix(4.54545,0,0,4.54545,-1397.73,-875)"
font-family="Nimbus Sans L" font-size="12.5" font-weight="400" font-style="normal" 
clip-path="url(#clip160)" >
<polyline fill="none" vector-effect="none" points="335,202 339,202 " />
</g>

<g fill="none" stroke="#000000" stroke-opacity="1" stroke-width="1" stroke-linecap="square" stroke-linejoin="bevel" transform="matrix(4.54545,0,0,4.54545,-1397.73,-875)"
font-family="Nimbus Sans L" font-size="12.5" font-weight="400" font-style="normal" 
clip-path="url(#clip161)" >
<defs><clipPath id="clip161"><path vector-effect="none" fill-rule="evenodd" d="M-7,-2 L37,-2 L37,32 L-7,32 L-7,-2z "/>
</clipPath></defs></g>

<g fill="none" stroke="#000000" stroke-opacity="1" stroke-width="1" stroke-linecap="square" stroke-linejoin="bevel" transform="matrix(1,0,0,1,0,0)"
font-family="Nimbus Sans L" font-size="12.5" font-weight="400" font-style="normal" 
clip-path="url(#clip161)" >
</g>

<g fill="none" stroke="#000000" stroke-opacity="1" stroke-width="1" stroke-linecap="square" stroke-linejoin="bevel" transform="matrix(4.54545,0,0,4.54545,31.8182,9.09091)"
font-family="Nimbus Sans L" font-size="12.5" font-weight="400" font-style="normal" 
clip-path="url(#clip161)" >
</g>

<g fill="none" stroke="#000000" stroke-opacity="1" stroke-width="1" stroke-linecap="square" stroke-linejoin="bevel" transform="matrix(4.54545,0,0,4.54545,31.8182,9.09091)"
font-family="Nimbus Sans L" font-size="12.5" font-weight="400" font-style="normal" 
clip-path="url(#clip161)" >
</g>

<g fill="none" stroke="#000000" stroke-opacity="1" stroke-width="0.545719" stroke-linecap="butt" stroke-linejoin="miter" stroke-miterlimit="2" transform="matrix(4.54545,0,0,4.54545,31.8182,9.09091)"
font-family="Nimbus Sans L" font-size="12.5" font-weight="400" font-style="normal" 
clip-path="url(#clip161)" >
<path vector-effect="none" fill-rule="evenodd" d="M0,0 L30,0 L30,30 L0,30 L0,0z "/>
</g>

<g fill="none" stroke="#000000" stroke-opacity="1" stroke-width="1" stroke-linecap="square" stroke-linejoin="bevel" transform="matrix(4.54545,0,0,4.54545,31.8182,9.09091)"
font-family="Nimbus Sans L" font-size="12.5" font-weight="400" font-style="normal" 
clip-path="url(#clip161)" >
</g>

<g fill="none" stroke="#000000" stroke-opacity="1" stroke-width="1" stroke-linecap="square" stroke-linejoin="bevel" transform="matrix(1,0,0,1,0,0)"
font-family="Nimbus Sans L" font-size="12.5" font-weight="400" font-style="normal" 
>
</g>

<g fill="none" stroke="#000000" stroke-opacity="1" stroke-width="1" stroke-linecap="square" stroke-linejoin="bevel" transform="matrix(1,0,0,1,0,0)"
font-family="Nimbus Sans L" font-size="12.5" font-weight="400" font-style="normal" 
>
</g>

<g fill="none" stroke="#000000" stroke-opacity="1" stroke-width="1" stroke-linecap="square" stroke-linejoin="bevel" transform="matrix(1,0,0,1,0,0)"
font-family="Nimbus Sans L" font-size="12.5" font-weight="400" font-style="normal" 
clip-path="url(#clip162)" >
<defs><clipPath id="clip162"><path vector-effect="non-scaling-stroke" fill-rule="evenodd" d="M0,0 L200,0 L200,154 L0,154 L0,0z "/>
</clipPath></defs></g>

<g fill="none" stroke="#000000" stroke-opacity="1" stroke-width="1" stroke-linecap="square" stroke-linejoin="bevel" transform="matrix(1,0,0,1,0,0)"
font-family="Nimbus Sans L" font-size="12.5" font-weight="400" font-style="normal" 
>
</g>

<g fill="none" stroke="#000000" stroke-opacity="1" stroke-width="1" stroke-linecap="square" stroke-linejoin="bevel" transform="matrix(1,0,0,1,0,0)"
font-family="Nimbus Sans L" font-size="12.5" font-weight="400" font-style="normal" 
>
</g>

<g fill="none" stroke="#000000" stroke-opacity="1" stroke-width="1" stroke-linecap="square" stroke-linejoin="bevel" transform="matrix(1,0,0,1,0,0)"
font-family="Nimbus Sans L" font-size="12.5" font-weight="400" font-style="normal" 
clip-path="url(#clip163)" >
<defs><clipPath id="clip163"><path vector-effect="non-scaling-stroke" fill-rule="evenodd" d="M0,0 L1,0 L1,1 L0,1 L0,0z "/>
</clipPath></defs></g>

<g fill="none" stroke="#000000" stroke-opacity="1" stroke-width="1" stroke-linecap="square" stroke-linejoin="bevel" transform="matrix(1,0,0,1,0,0)"
font-family="Nimbus Sans L" font-size="12.5" font-weight="400" font-style="normal" 
>
</g>

<g fill="none" stroke="#000000" stroke-opacity="1" stroke-width="1" stroke-linecap="square" stroke-linejoin="bevel" transform="matrix(1,0,0,1,0,0)"
font-family="Nimbus Sans L" font-size="12.5" font-weight="400" font-style="normal" 
>
</g>
</g>
</svg>
