<?xml version="1.0" encoding="UTF-8" standalone="no"?>
<svg width="52.9167mm" height="24.6062mm"
 viewBox="0 0 200 93"
 xmlns="http://www.w3.org/2000/svg" xmlns:xlink="http://www.w3.org/1999/xlink"  version="1.2" baseProfile="tiny">
<defs>
</defs>
<g fill="none" stroke="black" stroke-width="1" fill-rule="evenodd" stroke-linecap="square" stroke-linejoin="bevel" >

<g fill="#ffffff" fill-opacity="0" stroke="none" transform="matrix(1,0,0,1,0,0)"
font-family="Helvetica" font-size="16" font-weight="400" font-style="normal" 
>
<path vector-effect="non-scaling-stroke" fill-rule="evenodd" d="M0,0 L200,0 L200,93 L0,93 L0,0z "/>
</g>

<g fill="none" stroke="#000000" stroke-opacity="1" stroke-width="1" stroke-linecap="square" stroke-linejoin="bevel" transform="matrix(1,0,0,1,0,0)"
font-family="Helvetica" font-size="16" font-weight="400" font-style="normal" 
>
</g>

<g fill="none" stroke="#000000" stroke-opacity="1" stroke-width="1" stroke-linecap="square" stroke-linejoin="bevel" transform="matrix(1,0,0,1,0,0)"
font-family="Helvetica" font-size="16" font-weight="400" font-style="normal" 
clip-path="url(#clip170)" >
<defs><clipPath id="clip170"><path vector-effect="non-scaling-stroke" fill-rule="evenodd" d="M0,0 L200,0 L200,93.617 L0,93.617 L0,0z "/>
</clipPath></defs></g>

<g fill="none" stroke="#000000" stroke-opacity="1" stroke-width="1" stroke-linecap="square" stroke-linejoin="bevel" transform="matrix(2.12766,0,0,2.12766,185.106,46.8085)"
font-family="Helvetica" font-size="16" font-weight="400" font-style="normal" 
clip-path="url(#clip171)" >
<defs><clipPath id="clip171"><path vector-effect="non-scaling-stroke" fill-rule="evenodd" d="M-87,-22 L7,-22 L7,22 L-87,22 L-87,-22z "/>
</clipPath></defs></g>

<g fill="#000000" fill-opacity="0" stroke="#000000" stroke-opacity="1" stroke-width="2" stroke-linecap="round" stroke-linejoin="miter" stroke-miterlimit="2" transform="matrix(2.12766,0,0,2.12766,185.106,46.8085)"
font-family="Helvetica" font-size="16" font-weight="400" font-style="normal" 
clip-path="url(#clip171)" >
<path vector-effect="none" fill-rule="evenodd" d="M0,-5 L5,0 L0,5"/>
</g>

<g fill="none" stroke="#000000" stroke-opacity="1" stroke-width="1" stroke-linecap="square" stroke-linejoin="bevel" transform="matrix(2.12766,0,0,2.12766,185.106,46.8085)"
font-family="Helvetica" font-size="16" font-weight="400" font-style="normal" 
clip-path="url(#clip171)" >
</g>

<g fill="none" stroke="#000000" stroke-opacity="1" stroke-width="1" stroke-linecap="square" stroke-linejoin="bevel" transform="matrix(-2.12766,0,0,-2.12766,14.8936,78.7234)"
font-family="Helvetica" font-size="16" font-weight="400" font-style="normal" 
clip-path="url(#clip172)" >
<defs><clipPath id="clip172"><path vector-effect="non-scaling-stroke" fill-rule="evenodd" d="M7,37 L-87,37 L-87,-7 L7,-7 L7,37z "/>
</clipPath></defs></g>

<g fill="#000000" fill-opacity="0" stroke="#000000" stroke-opacity="1" stroke-width="2" stroke-linecap="round" stroke-linejoin="miter" stroke-miterlimit="2" transform="matrix(-2.12766,0,0,-2.12766,14.8936,78.7234)"
font-family="Helvetica" font-size="16" font-weight="400" font-style="normal" 
clip-path="url(#clip172)" >
<path vector-effect="none" fill-rule="evenodd" d="M5,-5 L0,0 L5,5"/>
</g>

<g fill="none" stroke="#000000" stroke-opacity="1" stroke-width="1" stroke-linecap="square" stroke-linejoin="bevel" transform="matrix(-2.12766,0,0,-2.12766,14.8936,78.7234)"
font-family="Helvetica" font-size="16" font-weight="400" font-style="normal" 
clip-path="url(#clip172)" >
</g>

<g fill="none" stroke="#000000" stroke-opacity="1" stroke-width="1" stroke-linecap="square" stroke-linejoin="bevel" transform="matrix(-2.12766,0,0,-2.12766,14.8936,46.8085)"
font-family="Helvetica" font-size="16" font-weight="400" font-style="normal" 
clip-path="url(#clip173)" >
<defs><clipPath id="clip173"><path vector-effect="non-scaling-stroke" fill-rule="evenodd" d="M7,22 L-87,22 L-87,-22 L7,-22 L7,22z "/>
</clipPath></defs></g>

<g fill="#000000" fill-opacity="0" stroke="#000000" stroke-opacity="1" stroke-width="2" stroke-linecap="round" stroke-linejoin="miter" stroke-miterlimit="2" transform="matrix(-2.12766,0,0,-2.12766,14.8936,46.8085)"
font-family="Helvetica" font-size="16" font-weight="400" font-style="normal" 
clip-path="url(#clip173)" >
<path vector-effect="none" fill-rule="evenodd" d="M5,-5 L0,0 L5,5"/>
</g>

<g fill="none" stroke="#000000" stroke-opacity="1" stroke-width="1" stroke-linecap="square" stroke-linejoin="bevel" transform="matrix(-2.12766,0,0,-2.12766,14.8936,46.8085)"
font-family="Helvetica" font-size="16" font-weight="400" font-style="normal" 
clip-path="url(#clip173)" >
</g>

<g fill="none" stroke="#000000" stroke-opacity="1" stroke-width="1" stroke-linecap="square" stroke-linejoin="bevel" transform="matrix(-2.12766,0,0,-2.12766,14.8936,14.8936)"
font-family="Helvetica" font-size="16" font-weight="400" font-style="normal" 
clip-path="url(#clip174)" >
<defs><clipPath id="clip174"><path vector-effect="non-scaling-stroke" fill-rule="evenodd" d="M7,7 L-87,7 L-87,-37 L7,-37 L7,7z "/>
</clipPath></defs></g>

<g fill="#000000" fill-opacity="0" stroke="#000000" stroke-opacity="1" stroke-width="2" stroke-linecap="round" stroke-linejoin="miter" stroke-miterlimit="2" transform="matrix(-2.12766,0,0,-2.12766,14.8936,14.8936)"
font-family="Helvetica" font-size="16" font-weight="400" font-style="normal" 
clip-path="url(#clip174)" >
<path vector-effect="none" fill-rule="evenodd" d="M5,-5 L0,0 L5,5"/>
</g>

<g fill="none" stroke="#000000" stroke-opacity="1" stroke-width="1" stroke-linecap="square" stroke-linejoin="bevel" transform="matrix(-2.12766,0,0,-2.12766,14.8936,14.8936)"
font-family="Helvetica" font-size="16" font-weight="400" font-style="normal" 
clip-path="url(#clip174)" >
</g>

<g fill="none" stroke="#000000" stroke-opacity="1" stroke-width="1" stroke-linecap="square" stroke-linejoin="bevel" transform="matrix(2.12766,0,0,2.12766,14.8936,4.25532)"
font-family="Helvetica" font-size="16" font-weight="400" font-style="normal" 
clip-path="url(#clip175)" >
<defs><clipPath id="clip175"><path vector-effect="non-scaling-stroke" fill-rule="evenodd" d="M-7,-2 L87,-2 L87,42 L-7,42 L-7,-2z "/>
</clipPath></defs></g>

<g fill="#ffffff" fill-opacity="1" stroke="none" transform="matrix(2.12766,0,0,2.12766,14.8936,4.25532)"
font-family="Helvetica" font-size="16" font-weight="400" font-style="normal" 
clip-path="url(#clip175)" >
<path vector-effect="none" fill-rule="evenodd" d="M0,0 L80,0 L80,40 L0,40 L0,0z "/>
</g>

<g fill="none" stroke="#000000" stroke-opacity="1" stroke-width="1" stroke-linecap="square" stroke-linejoin="bevel" transform="matrix(2.12766,0,0,2.12766,14.8936,4.25532)"
font-family="Helvetica" font-size="16" font-weight="400" font-style="normal" 
clip-path="url(#clip175)" >
</g>

<g fill="none" stroke="#000000" stroke-opacity="1" stroke-width="1" stroke-linecap="square" stroke-linejoin="bevel" transform="matrix(2.12766,0,0,2.12766,14.8936,4.25532)"
font-family="Helvetica" font-size="16" font-weight="400" font-style="normal" 
clip-path="url(#clip175)" >
</g>

<g fill="none" stroke="#000000" stroke-opacity="1" stroke-width="1" stroke-linecap="square" stroke-linejoin="bevel" transform="matrix(2.12766,0,0,2.12766,14.8936,4.25532)"
font-family="Helvetica" font-size="16" font-weight="400" font-style="normal" 
clip-path="url(#clip176)" >
<defs><clipPath id="clip176"><path vector-effect="non-scaling-stroke" fill-rule="evenodd" d="M0,0 L80,0 L80,40 L0,40 L0,0z "/>
</clipPath></defs></g>

<g fill="none" stroke="#000000" stroke-opacity="1" stroke-width="1" stroke-linecap="square" stroke-linejoin="bevel" transform="matrix(2.12766,0,0,2.12766,21.2766,14.8936)"
font-family="Helvetica" font-size="9" font-weight="400" font-style="normal" 
clip-path="url(#clip177)" >
<defs><clipPath id="clip177"><path vector-effect="none" fill-rule="evenodd" d="M-3,-5 L77,-5 L77,35 L-3,35 L-3,-5z "/>
</clipPath></defs></g>

<g fill="none" stroke="#000000" stroke-opacity="1" stroke-width="1" stroke-linecap="square" stroke-linejoin="bevel" transform="matrix(2.12766,0,0,2.12766,21.2766,14.8936)"
font-family="Helvetica" font-size="9" font-weight="400" font-style="normal" 
clip-path="url(#clip177)" >
<text textLength="10" fill="#000000" fill-opacity="1" stroke="none" xml:space="preserve" x="0" y="3" font-family="Helvetica" font-size="9" font-weight="400" font-style="normal" 
 >up</text>
</g>

<g fill="none" stroke="#000000" stroke-opacity="1" stroke-width="1" stroke-linecap="square" stroke-linejoin="bevel" transform="matrix(2.12766,0,0,2.12766,21.2766,14.8936)"
font-family="Helvetica" font-size="9" font-weight="400" font-style="normal" 
clip-path="url(#clip177)" >
</g>

<g fill="none" stroke="#000000" stroke-opacity="1" stroke-width="1" stroke-linecap="square" stroke-linejoin="bevel" transform="matrix(2.12766,0,0,2.12766,21.2766,46.8085)"
font-family="Helvetica" font-size="9" font-weight="400" font-style="normal" 
clip-path="url(#clip178)" >
<defs><clipPath id="clip178"><path vector-effect="none" fill-rule="evenodd" d="M-3,-20 L77,-20 L77,20 L-3,20 L-3,-20z "/>
</clipPath></defs></g>

<g fill="none" stroke="#000000" stroke-opacity="1" stroke-width="1" stroke-linecap="square" stroke-linejoin="bevel" transform="matrix(2.12766,0,0,2.12766,21.2766,46.8085)"
font-family="Helvetica" font-size="9" font-weight="400" font-style="normal" 
clip-path="url(#clip178)" >
<text textLength="5" fill="#000000" fill-opacity="1" stroke="none" xml:space="preserve" x="0" y="3" font-family="Helvetica" font-size="9" font-weight="400" font-style="normal" 
 >u</text>
</g>

<g fill="none" stroke="#000000" stroke-opacity="1" stroke-width="1" stroke-linecap="square" stroke-linejoin="bevel" transform="matrix(2.12766,0,0,2.12766,21.2766,46.8085)"
font-family="Helvetica" font-size="9" font-weight="400" font-style="normal" 
clip-path="url(#clip178)" >
</g>

<g fill="none" stroke="#000000" stroke-opacity="1" stroke-width="1" stroke-linecap="square" stroke-linejoin="bevel" transform="matrix(2.12766,0,0,2.12766,21.2766,78.7234)"
font-family="Helvetica" font-size="9" font-weight="400" font-style="normal" 
clip-path="url(#clip179)" >
<defs><clipPath id="clip179"><path vector-effect="none" fill-rule="evenodd" d="M-3,-35 L77,-35 L77,5 L-3,5 L-3,-35z "/>
</clipPath></defs></g>

<g fill="none" stroke="#000000" stroke-opacity="1" stroke-width="1" stroke-linecap="square" stroke-linejoin="bevel" transform="matrix(2.12766,0,0,2.12766,21.2766,78.7234)"
font-family="Helvetica" font-size="9" font-weight="400" font-style="normal" 
clip-path="url(#clip179)" >
<text textLength="7" fill="#000000" fill-opacity="1" stroke="none" xml:space="preserve" x="0" y="3" font-family="Helvetica" font-size="9" font-weight="400" font-style="normal" 
 >lo</text>
</g>

<g fill="none" stroke="#000000" stroke-opacity="1" stroke-width="1" stroke-linecap="square" stroke-linejoin="bevel" transform="matrix(2.12766,0,0,2.12766,21.2766,78.7234)"
font-family="Helvetica" font-size="9" font-weight="400" font-style="normal" 
clip-path="url(#clip179)" >
</g>

<g fill="none" stroke="#000000" stroke-opacity="1" stroke-width="1" stroke-linecap="square" stroke-linejoin="bevel" transform="matrix(2.12766,0,0,2.12766,178.723,46.8085)"
font-family="Helvetica" font-size="9" font-weight="400" font-style="normal" 
clip-path="url(#clip180)" >
<defs><clipPath id="clip180"><path vector-effect="none" fill-rule="evenodd" d="M-77,-20 L3,-20 L3,20 L-77,20 L-77,-20z "/>
</clipPath></defs></g>

<g fill="none" stroke="#000000" stroke-opacity="1" stroke-width="1" stroke-linecap="square" stroke-linejoin="bevel" transform="matrix(2.12766,0,0,2.12766,178.723,46.8085)"
font-family="Helvetica" font-size="9" font-weight="400" font-style="normal" 
clip-path="url(#clip180)" >
<text textLength="6" fill="#000000" fill-opacity="1" stroke="none" xml:space="preserve" x="-6" y="3" font-family="Helvetica" font-size="9" font-weight="400" font-style="normal" 
 >y</text>
</g>

<g fill="none" stroke="#000000" stroke-opacity="1" stroke-width="1" stroke-linecap="square" stroke-linejoin="bevel" transform="matrix(2.12766,0,0,2.12766,178.723,46.8085)"
font-family="Helvetica" font-size="9" font-weight="400" font-style="normal" 
clip-path="url(#clip180)" >
</g>

<g fill="none" stroke="#000000" stroke-opacity="1" stroke-width="1" stroke-linecap="square" stroke-linejoin="bevel" transform="matrix(2.12766,0,0,2.12766,-1005.32,-37.234)"
font-family="Helvetica" font-size="9" font-weight="400" font-style="normal" 
clip-path="url(#clip181)" >
<defs><clipPath id="clip181"><path vector-effect="none" fill-rule="evenodd" d="M480,20 L560,20 L560,60 L480,60 L480,20z "/>
</clipPath></defs><polyline fill="none" vector-effect="none" points="494,40 546,40 " />
</g>

<g fill="none" stroke="#000000" stroke-opacity="1" stroke-width="1" stroke-linecap="square" stroke-linejoin="bevel" transform="matrix(2.12766,0,0,2.12766,-1005.32,-37.234)"
font-family="Helvetica" font-size="9" font-weight="400" font-style="normal" 
clip-path="url(#clip181)" >
<polyline fill="none" vector-effect="none" points="520,55 520,25 " />
</g>

<g fill="none" stroke="#000000" stroke-opacity="1" stroke-width="1" stroke-linecap="square" stroke-linejoin="bevel" transform="matrix(2.12766,0,0,2.12766,-1005.32,-37.234)"
font-family="Helvetica" font-size="9" font-weight="400" font-style="normal" 
clip-path="url(#clip181)" >
<polyline fill="none" vector-effect="none" points="494,52 510,40 " />
</g>

<g fill="none" stroke="#000000" stroke-opacity="1" stroke-width="1" stroke-linecap="square" stroke-linejoin="bevel" transform="matrix(2.12766,0,0,2.12766,-1005.32,-37.234)"
font-family="Helvetica" font-size="9" font-weight="400" font-style="normal" 
clip-path="url(#clip181)" >
<polyline fill="none" vector-effect="none" points="510,40 530,40 " />
</g>

<g fill="none" stroke="#000000" stroke-opacity="1" stroke-width="1" stroke-linecap="square" stroke-linejoin="bevel" transform="matrix(2.12766,0,0,2.12766,-1005.32,-37.234)"
font-family="Helvetica" font-size="9" font-weight="400" font-style="normal" 
clip-path="url(#clip181)" >
<polyline fill="none" vector-effect="none" points="530,40 546,28 " />
</g>

<g fill="none" stroke="#000000" stroke-opacity="1" stroke-width="1" stroke-linecap="square" stroke-linejoin="bevel" transform="matrix(2.12766,0,0,2.12766,-1005.32,-37.234)"
font-family="Helvetica" font-size="9" font-weight="400" font-style="normal" 
clip-path="url(#clip182)" >
<defs><clipPath id="clip182"><path vector-effect="none" fill-rule="evenodd" d="M-7,-2 L87,-2 L87,42 L-7,42 L-7,-2z "/>
</clipPath></defs></g>

<g fill="none" stroke="#000000" stroke-opacity="1" stroke-width="1" stroke-linecap="square" stroke-linejoin="bevel" transform="matrix(1,0,0,1,0,0)"
font-family="Helvetica" font-size="9" font-weight="400" font-style="normal" 
clip-path="url(#clip182)" >
</g>

<g fill="none" stroke="#000000" stroke-opacity="1" stroke-width="1" stroke-linecap="square" stroke-linejoin="bevel" transform="matrix(2.12766,0,0,2.12766,14.8936,4.25532)"
font-family="Helvetica" font-size="16" font-weight="400" font-style="normal" 
clip-path="url(#clip182)" >
</g>

<g fill="none" stroke="#000000" stroke-opacity="1" stroke-width="1" stroke-linecap="square" stroke-linejoin="bevel" transform="matrix(2.12766,0,0,2.12766,14.8936,4.25532)"
font-family="Helvetica" font-size="16" font-weight="400" font-style="normal" 
clip-path="url(#clip182)" >
</g>

<g fill="none" stroke="#000000" stroke-opacity="1" stroke-width="0.739331" stroke-linecap="butt" stroke-linejoin="miter" stroke-miterlimit="2" transform="matrix(2.12766,0,0,2.12766,14.8936,4.25532)"
font-family="Helvetica" font-size="16" font-weight="400" font-style="normal" 
clip-path="url(#clip182)" >
<path vector-effect="none" fill-rule="evenodd" d="M0,0 L80,0 L80,40 L0,40 L0,0z "/>
</g>

<g fill="none" stroke="#000000" stroke-opacity="1" stroke-width="1" stroke-linecap="square" stroke-linejoin="bevel" transform="matrix(2.12766,0,0,2.12766,14.8936,4.25532)"
font-family="Helvetica" font-size="16" font-weight="400" font-style="normal" 
clip-path="url(#clip182)" >
</g>

<g fill="none" stroke="#000000" stroke-opacity="1" stroke-width="1" stroke-linecap="square" stroke-linejoin="bevel" transform="matrix(1,0,0,1,0,0)"
font-family="Helvetica" font-size="16" font-weight="400" font-style="normal" 
>
</g>

<g fill="none" stroke="#000000" stroke-opacity="1" stroke-width="1" stroke-linecap="square" stroke-linejoin="bevel" transform="matrix(1,0,0,1,0,0)"
font-family="Helvetica" font-size="16" font-weight="400" font-style="normal" 
>
</g>

<g fill="none" stroke="#000000" stroke-opacity="1" stroke-width="1" stroke-linecap="square" stroke-linejoin="bevel" transform="matrix(1,0,0,1,0,0)"
font-family="Helvetica" font-size="16" font-weight="400" font-style="normal" 
clip-path="url(#clip183)" >
<defs><clipPath id="clip183"><path vector-effect="non-scaling-stroke" fill-rule="evenodd" d="M0,0 L200,0 L200,93 L0,93 L0,0z "/>
</clipPath></defs></g>

<g fill="none" stroke="#000000" stroke-opacity="1" stroke-width="1" stroke-linecap="square" stroke-linejoin="bevel" transform="matrix(1,0,0,1,0,0)"
font-family="Helvetica" font-size="16" font-weight="400" font-style="normal" 
>
</g>

<g fill="none" stroke="#000000" stroke-opacity="1" stroke-width="1" stroke-linecap="square" stroke-linejoin="bevel" transform="matrix(1,0,0,1,0,0)"
font-family="Helvetica" font-size="16" font-weight="400" font-style="normal" 
>
</g>

<g fill="none" stroke="#000000" stroke-opacity="1" stroke-width="1" stroke-linecap="square" stroke-linejoin="bevel" transform="matrix(1,0,0,1,0,0)"
font-family="Helvetica" font-size="16" font-weight="400" font-style="normal" 
clip-path="url(#clip184)" >
<defs><clipPath id="clip184"><path vector-effect="non-scaling-stroke" fill-rule="evenodd" d="M0,0 L1,0 L1,1 L0,1 L0,0z "/>
</clipPath></defs></g>

<g fill="none" stroke="#000000" stroke-opacity="1" stroke-width="1" stroke-linecap="square" stroke-linejoin="bevel" transform="matrix(1,0,0,1,0,0)"
font-family="Helvetica" font-size="16" font-weight="400" font-style="normal" 
>
</g>

<g fill="none" stroke="#000000" stroke-opacity="1" stroke-width="1" stroke-linecap="square" stroke-linejoin="bevel" transform="matrix(1,0,0,1,0,0)"
font-family="Helvetica" font-size="16" font-weight="400" font-style="normal" 
>
</g>
</g>
</svg>
