<?xml version="1.0" encoding="UTF-8" standalone="no"?>
<svg width="23.8125mm" height="52.9167mm"
 viewBox="0 0 90 200"
 xmlns="http://www.w3.org/2000/svg" xmlns:xlink="http://www.w3.org/1999/xlink"  version="1.2" baseProfile="tiny">
<defs>
</defs>
<g fill="none" stroke="black" stroke-width="1" fill-rule="evenodd" stroke-linecap="square" stroke-linejoin="bevel" >

<g fill="#ffffff" fill-opacity="0" stroke="none" transform="matrix(1,0,0,1,0,0)"
font-family="Helvetica" font-size="16" font-weight="400" font-style="normal" 
>
<path vector-effect="non-scaling-stroke" fill-rule="evenodd" d="M0,0 L90,0 L90,200 L0,200 L0,0z "/>
</g>

<g fill="none" stroke="#000000" stroke-opacity="1" stroke-width="1" stroke-linecap="square" stroke-linejoin="bevel" transform="matrix(1,0,0,1,0,0)"
font-family="Helvetica" font-size="16" font-weight="400" font-style="normal" 
>
</g>

<g fill="none" stroke="#000000" stroke-opacity="1" stroke-width="1" stroke-linecap="square" stroke-linejoin="bevel" transform="matrix(1,0,0,1,0,0)"
font-family="Helvetica" font-size="16" font-weight="400" font-style="normal" 
clip-path="url(#clip1075)" >
<defs><clipPath id="clip1075"><path vector-effect="non-scaling-stroke" fill-rule="evenodd" d="M0,0 L90.4762,0 L90.4762,200 L0,200 L0,0z "/>
</clipPath></defs></g>

<g fill="none" stroke="#000000" stroke-opacity="1" stroke-width="1" stroke-linecap="square" stroke-linejoin="bevel" transform="matrix(-4.7619,0,0,-4.7619,33.3333,147.619)"
font-family="Helvetica" font-size="16" font-weight="400" font-style="normal" 
clip-path="url(#clip1076)" >
<defs><clipPath id="clip1076"><path vector-effect="non-scaling-stroke" fill-rule="evenodd" d="M7,31 L-12,31 L-12,-11 L7,-11 L7,31z "/>
</clipPath></defs></g>

<g fill="#000000" fill-opacity="0" stroke="#000000" stroke-opacity="1" stroke-width="2" stroke-linecap="round" stroke-linejoin="miter" stroke-miterlimit="2" transform="matrix(-4.7619,0,0,-4.7619,33.3333,147.619)"
font-family="Helvetica" font-size="16" font-weight="400" font-style="normal" 
clip-path="url(#clip1076)" >
<path vector-effect="none" fill-rule="evenodd" d="M5,-5 L0,0 L5,5"/>
</g>

<g fill="none" stroke="#000000" stroke-opacity="1" stroke-width="1" stroke-linecap="square" stroke-linejoin="bevel" transform="matrix(-4.7619,0,0,-4.7619,33.3333,147.619)"
font-family="Helvetica" font-size="16" font-weight="400" font-style="normal" 
clip-path="url(#clip1076)" >
</g>

<g fill="none" stroke="#000000" stroke-opacity="1" stroke-width="1" stroke-linecap="square" stroke-linejoin="bevel" transform="matrix(4.7619,0,0,4.7619,57.1429,100)"
font-family="Helvetica" font-size="16" font-weight="400" font-style="normal" 
clip-path="url(#clip1077)" >
<defs><clipPath id="clip1077"><path vector-effect="non-scaling-stroke" fill-rule="evenodd" d="M-12,-21 L7,-21 L7,21 L-12,21 L-12,-21z "/>
</clipPath></defs></g>

<g fill="#000000" fill-opacity="0" stroke="#000000" stroke-opacity="1" stroke-width="2" stroke-linecap="round" stroke-linejoin="miter" stroke-miterlimit="2" transform="matrix(4.7619,0,0,4.7619,57.1429,100)"
font-family="Helvetica" font-size="16" font-weight="400" font-style="normal" 
clip-path="url(#clip1077)" >
<path vector-effect="none" fill-rule="evenodd" d="M0,-5 L5,0 L0,5"/>
</g>

<g fill="none" stroke="#000000" stroke-opacity="1" stroke-width="1" stroke-linecap="square" stroke-linejoin="bevel" transform="matrix(4.7619,0,0,4.7619,57.1429,100)"
font-family="Helvetica" font-size="16" font-weight="400" font-style="normal" 
clip-path="url(#clip1077)" >
</g>

<g fill="none" stroke="#000000" stroke-opacity="1" stroke-width="1" stroke-linecap="square" stroke-linejoin="bevel" transform="matrix(-4.7619,0,0,-4.7619,33.3333,52.381)"
font-family="Helvetica" font-size="16" font-weight="400" font-style="normal" 
clip-path="url(#clip1078)" >
<defs><clipPath id="clip1078"><path vector-effect="non-scaling-stroke" fill-rule="evenodd" d="M7,11 L-12,11 L-12,-31 L7,-31 L7,11z "/>
</clipPath></defs></g>

<g fill="#000000" fill-opacity="0" stroke="#000000" stroke-opacity="1" stroke-width="2" stroke-linecap="round" stroke-linejoin="miter" stroke-miterlimit="2" transform="matrix(-4.7619,0,0,-4.7619,33.3333,52.381)"
font-family="Helvetica" font-size="16" font-weight="400" font-style="normal" 
clip-path="url(#clip1078)" >
<path vector-effect="none" fill-rule="evenodd" d="M5,-5 L0,0 L5,5"/>
</g>

<g fill="none" stroke="#000000" stroke-opacity="1" stroke-width="1" stroke-linecap="square" stroke-linejoin="bevel" transform="matrix(-4.7619,0,0,-4.7619,33.3333,52.381)"
font-family="Helvetica" font-size="16" font-weight="400" font-style="normal" 
clip-path="url(#clip1078)" >
</g>

<g fill="none" stroke="#000000" stroke-opacity="1" stroke-width="1" stroke-linecap="square" stroke-linejoin="bevel" transform="matrix(4.7619,0,0,4.7619,33.3333,9.52381)"
font-family="Helvetica" font-size="16" font-weight="400" font-style="normal" 
clip-path="url(#clip1079)" >
<defs><clipPath id="clip1079"><path vector-effect="non-scaling-stroke" fill-rule="evenodd" d="M-7,-2 L12,-2 L12,40 L-7,40 L-7,-2z "/>
</clipPath></defs></g>

<g fill="#ffffff" fill-opacity="1" stroke="none" transform="matrix(4.7619,0,0,4.7619,33.3333,9.52381)"
font-family="Helvetica" font-size="16" font-weight="400" font-style="normal" 
clip-path="url(#clip1079)" >
<path vector-effect="none" fill-rule="evenodd" d="M0,0 L5,0 L5,38 L0,38 L0,0z "/>
</g>

<g fill="none" stroke="#000000" stroke-opacity="1" stroke-width="1" stroke-linecap="square" stroke-linejoin="bevel" transform="matrix(4.7619,0,0,4.7619,33.3333,9.52381)"
font-family="Helvetica" font-size="16" font-weight="400" font-style="normal" 
clip-path="url(#clip1079)" >
</g>

<g fill="none" stroke="#000000" stroke-opacity="1" stroke-width="1" stroke-linecap="square" stroke-linejoin="bevel" transform="matrix(4.7619,0,0,4.7619,33.3333,9.52381)"
font-family="Helvetica" font-size="16" font-weight="400" font-style="normal" 
clip-path="url(#clip1079)" >
</g>

<g fill="none" stroke="#000000" stroke-opacity="1" stroke-width="1" stroke-linecap="square" stroke-linejoin="bevel" transform="matrix(4.7619,0,0,4.7619,33.3333,9.52381)"
font-family="Helvetica" font-size="16" font-weight="400" font-style="normal" 
clip-path="url(#clip1080)" >
<defs><clipPath id="clip1080"><path vector-effect="non-scaling-stroke" fill-rule="evenodd" d="M0,0 L5,0 L5,38 L0,38 L0,0z "/>
</clipPath></defs></g>

<g fill="none" stroke="#000000" stroke-opacity="1" stroke-width="1" stroke-linecap="square" stroke-linejoin="bevel" transform="matrix(4.7619,0,0,4.7619,-1892.86,-445.238)"
font-family="Helvetica" font-size="16" font-weight="400" font-style="normal" 
clip-path="url(#clip1081)" >
<defs><clipPath id="clip1081"><path vector-effect="none" fill-rule="evenodd" d="M405,96 L410,96 L410,134 L405,134 L405,96z "/>
</clipPath></defs><polyline fill="none" vector-effect="none" points="405,115 410,115 " />
</g>

<g fill="none" stroke="#000000" stroke-opacity="1" stroke-width="1" stroke-linecap="square" stroke-linejoin="bevel" transform="matrix(4.7619,0,0,4.7619,-1892.86,-445.238)"
font-family="Helvetica" font-size="16" font-weight="400" font-style="normal" 
clip-path="url(#clip1082)" >
<defs><clipPath id="clip1082"><path vector-effect="none" fill-rule="evenodd" d="M-7,-2 L12,-2 L12,40 L-7,40 L-7,-2z "/>
</clipPath></defs></g>

<g fill="none" stroke="#000000" stroke-opacity="1" stroke-width="1" stroke-linecap="square" stroke-linejoin="bevel" transform="matrix(1,0,0,1,0,0)"
font-family="Helvetica" font-size="16" font-weight="400" font-style="normal" 
clip-path="url(#clip1082)" >
</g>

<g fill="none" stroke="#000000" stroke-opacity="1" stroke-width="1" stroke-linecap="square" stroke-linejoin="bevel" transform="matrix(4.7619,0,0,4.7619,33.3333,9.52381)"
font-family="Helvetica" font-size="16" font-weight="400" font-style="normal" 
clip-path="url(#clip1082)" >
</g>

<g fill="none" stroke="#000000" stroke-opacity="1" stroke-width="1" stroke-linecap="square" stroke-linejoin="bevel" transform="matrix(4.7619,0,0,4.7619,33.3333,9.52381)"
font-family="Helvetica" font-size="16" font-weight="400" font-style="normal" 
clip-path="url(#clip1082)" >
</g>

<g fill="none" stroke="#000000" stroke-opacity="1" stroke-width="0.535658" stroke-linecap="butt" stroke-linejoin="miter" stroke-miterlimit="2" transform="matrix(4.7619,0,0,4.7619,33.3333,9.52381)"
font-family="Helvetica" font-size="16" font-weight="400" font-style="normal" 
clip-path="url(#clip1082)" >
<path vector-effect="none" fill-rule="evenodd" d="M0,0 L5,0 L5,38 L0,38 L0,0z "/>
</g>

<g fill="none" stroke="#000000" stroke-opacity="1" stroke-width="1" stroke-linecap="square" stroke-linejoin="bevel" transform="matrix(4.7619,0,0,4.7619,33.3333,9.52381)"
font-family="Helvetica" font-size="16" font-weight="400" font-style="normal" 
clip-path="url(#clip1082)" >
</g>

<g fill="none" stroke="#000000" stroke-opacity="1" stroke-width="1" stroke-linecap="square" stroke-linejoin="bevel" transform="matrix(1,0,0,1,0,0)"
font-family="Helvetica" font-size="16" font-weight="400" font-style="normal" 
>
</g>

<g fill="none" stroke="#000000" stroke-opacity="1" stroke-width="1" stroke-linecap="square" stroke-linejoin="bevel" transform="matrix(1,0,0,1,0,0)"
font-family="Helvetica" font-size="16" font-weight="400" font-style="normal" 
>
</g>

<g fill="none" stroke="#000000" stroke-opacity="1" stroke-width="1" stroke-linecap="square" stroke-linejoin="bevel" transform="matrix(1,0,0,1,0,0)"
font-family="Helvetica" font-size="16" font-weight="400" font-style="normal" 
clip-path="url(#clip1083)" >
<defs><clipPath id="clip1083"><path vector-effect="non-scaling-stroke" fill-rule="evenodd" d="M0,0 L90,0 L90,200 L0,200 L0,0z "/>
</clipPath></defs></g>

<g fill="none" stroke="#000000" stroke-opacity="1" stroke-width="1" stroke-linecap="square" stroke-linejoin="bevel" transform="matrix(1,0,0,1,0,0)"
font-family="Helvetica" font-size="16" font-weight="400" font-style="normal" 
>
</g>

<g fill="none" stroke="#000000" stroke-opacity="1" stroke-width="1" stroke-linecap="square" stroke-linejoin="bevel" transform="matrix(1,0,0,1,0,0)"
font-family="Helvetica" font-size="16" font-weight="400" font-style="normal" 
>
</g>

<g fill="none" stroke="#000000" stroke-opacity="1" stroke-width="1" stroke-linecap="square" stroke-linejoin="bevel" transform="matrix(1,0,0,1,0,0)"
font-family="Helvetica" font-size="16" font-weight="400" font-style="normal" 
clip-path="url(#clip1084)" >
<defs><clipPath id="clip1084"><path vector-effect="non-scaling-stroke" fill-rule="evenodd" d="M0,0 L1,0 L1,1 L0,1 L0,0z "/>
</clipPath></defs></g>

<g fill="none" stroke="#000000" stroke-opacity="1" stroke-width="1" stroke-linecap="square" stroke-linejoin="bevel" transform="matrix(1,0,0,1,0,0)"
font-family="Helvetica" font-size="16" font-weight="400" font-style="normal" 
>
</g>

<g fill="none" stroke="#000000" stroke-opacity="1" stroke-width="1" stroke-linecap="square" stroke-linejoin="bevel" transform="matrix(1,0,0,1,0,0)"
font-family="Helvetica" font-size="16" font-weight="400" font-style="normal" 
>
</g>
</g>
</svg>
