<?xml version="1.0" encoding="UTF-8" standalone="no"?>
<svg width="52.9167mm" height="41.0104mm"
 viewBox="0 0 200 155"
 xmlns="http://www.w3.org/2000/svg" xmlns:xlink="http://www.w3.org/1999/xlink"  version="1.2" baseProfile="tiny">
<defs>
</defs>
<g fill="none" stroke="black" stroke-width="1" fill-rule="evenodd" stroke-linecap="square" stroke-linejoin="bevel" >

<g fill="#ffffff" fill-opacity="0" stroke="none" transform="matrix(1,0,0,1,0,0)"
font-family="Helvetica" font-size="16" font-weight="400" font-style="normal" 
>
<path vector-effect="non-scaling-stroke" fill-rule="evenodd" d="M0,0 L200,0 L200,155 L0,155 L0,0z "/>
</g>

<g fill="none" stroke="#000000" stroke-opacity="1" stroke-width="1" stroke-linecap="square" stroke-linejoin="bevel" transform="matrix(1,0,0,1,0,0)"
font-family="Helvetica" font-size="16" font-weight="400" font-style="normal" 
>
</g>

<g fill="none" stroke="#000000" stroke-opacity="1" stroke-width="1" stroke-linecap="square" stroke-linejoin="bevel" transform="matrix(1,0,0,1,0,0)"
font-family="Helvetica" font-size="16" font-weight="400" font-style="normal" 
clip-path="url(#clip1267)" >
<defs><clipPath id="clip1267"><path vector-effect="non-scaling-stroke" fill-rule="evenodd" d="M0,0 L200,0 L200,155.769 L0,155.769 L0,0z "/>
</clipPath></defs></g>

<g fill="none" stroke="#000000" stroke-opacity="1" stroke-width="1" stroke-linecap="square" stroke-linejoin="bevel" transform="matrix(1.92308,0,0,1.92308,3.84615,3.84615)"
font-family="Helvetica" font-size="16" font-weight="400" font-style="normal" 
clip-path="url(#clip1268)" >
<defs><clipPath id="clip1268"><path vector-effect="non-scaling-stroke" fill-rule="evenodd" d="M-2,-2 L102,-2 L102,79 L-2,79 L-2,-2z "/>
</clipPath></defs></g>

<g fill="#ffffff" fill-opacity="1" stroke="none" transform="matrix(1.92308,0,0,1.92308,3.84615,3.84615)"
font-family="Helvetica" font-size="16" font-weight="400" font-style="normal" 
clip-path="url(#clip1268)" >
<path vector-effect="none" fill-rule="evenodd" d="M0,0 L100,0 L100,45 L0,45 L0,0z "/>
</g>

<g fill="none" stroke="#000000" stroke-opacity="1" stroke-width="1" stroke-linecap="square" stroke-linejoin="bevel" transform="matrix(1.92308,0,0,1.92308,3.84615,3.84615)"
font-family="Helvetica" font-size="16" font-weight="400" font-style="normal" 
clip-path="url(#clip1268)" >
</g>

<g fill="none" stroke="#000000" stroke-opacity="1" stroke-width="1" stroke-linecap="square" stroke-linejoin="bevel" transform="matrix(1.92308,0,0,1.92308,3.84615,3.84615)"
font-family="Helvetica" font-size="16" font-weight="400" font-style="normal" 
clip-path="url(#clip1268)" >
</g>

<g fill="#ffffff" fill-opacity="1" stroke="#000000" stroke-opacity="1" stroke-width="1" stroke-linecap="butt" stroke-linejoin="miter" stroke-miterlimit="2" transform="matrix(1.92308,0,0,1.92308,3.84615,3.84615)"
font-family="Helvetica" font-size="16" font-weight="400" font-style="normal" 
clip-path="url(#clip1268)" >
<path vector-effect="none" fill-rule="evenodd" d="M0,0 L10,0 L0,10 L0,0z "/>
<path vector-effect="none" fill-rule="evenodd" d="M100,0 L100,10 L90,0 L100,0z "/>
<path vector-effect="none" fill-rule="evenodd" d="M100,45 L90,45 L100,35 L100,45z "/>
<path vector-effect="none" fill-rule="evenodd" d="M0,45 L0,35 L10,45 L0,45z "/>
</g>

<g fill="#000000" fill-opacity="0" stroke="#000000" stroke-opacity="1" stroke-width="2" stroke-linecap="butt" stroke-linejoin="miter" stroke-miterlimit="2" transform="matrix(1.92308,0,0,1.92308,3.84615,3.84615)"
font-family="Helvetica" font-size="16" font-weight="400" font-style="normal" 
clip-path="url(#clip1268)" >
<path vector-effect="none" fill-rule="evenodd" d="M0,0 L100,0 L100,45 L0,45 L0,0z "/>
</g>

<g fill="none" stroke="#000000" stroke-opacity="1" stroke-width="1" stroke-linecap="square" stroke-linejoin="bevel" transform="matrix(1.92308,0,0,1.92308,3.84615,3.84615)"
font-family="Helvetica" font-size="16" font-weight="400" font-style="normal" 
clip-path="url(#clip1268)" >
</g>

<g fill="none" stroke="#000000" stroke-opacity="1" stroke-width="1" stroke-linecap="square" stroke-linejoin="bevel" transform="matrix(1.92308,0,0,1.92308,3.84615,3.84615)"
font-family="Helvetica" font-size="16" font-weight="400" font-style="normal" 
clip-path="url(#clip1268)" >
</g>

<g fill="none" stroke="#000000" stroke-opacity="1" stroke-width="1" stroke-linecap="square" stroke-linejoin="bevel" transform="matrix(1.92308,0,0,1.92308,3.84615,3.84615)"
font-family="Helvetica" font-size="16" font-weight="400" font-style="normal" 
clip-path="url(#clip1269)" >
<defs><clipPath id="clip1269"><path vector-effect="non-scaling-stroke" fill-rule="evenodd" d="M0,0 L100,0 L100,45 L0,45 L0,0z "/>
</clipPath></defs></g>

<g fill="none" stroke="#000000" stroke-opacity="1" stroke-width="1" stroke-linecap="square" stroke-linejoin="bevel" transform="matrix(1.92308,0,0,1.92308,100,23.0769)"
font-family="Helvetica" font-size="10" font-weight="400" font-style="normal" 
clip-path="url(#clip1270)" >
<defs><clipPath id="clip1270"><path vector-effect="none" fill-rule="evenodd" d="M-50,-10 L50,-10 L50,35 L-50,35 L-50,-10z "/>
</clipPath></defs></g>

<g fill="none" stroke="#000000" stroke-opacity="1" stroke-width="1" stroke-linecap="square" stroke-linejoin="bevel" transform="matrix(1.92308,0,0,1.92308,100,23.0769)"
font-family="Helvetica" font-size="10" font-weight="400" font-style="normal" 
clip-path="url(#clip1270)" >
<text textLength="61" fill="#000000" fill-opacity="1" stroke="none" xml:space="preserve" x="-30" y="3" font-family="Helvetica" font-size="10" font-weight="400" font-style="normal" 
 >Model Name</text>
</g>

<g fill="none" stroke="#000000" stroke-opacity="1" stroke-width="1" stroke-linecap="square" stroke-linejoin="bevel" transform="matrix(1.92308,0,0,1.92308,100,23.0769)"
font-family="Helvetica" font-size="10" font-weight="400" font-style="normal" 
clip-path="url(#clip1270)" >
</g>

<g fill="none" stroke="#000000" stroke-opacity="1" stroke-width="1" stroke-linecap="square" stroke-linejoin="bevel" transform="matrix(1.92308,0,0,1.92308,100,23.0769)"
font-family="Helvetica" font-size="10" font-weight="400" font-style="normal" 
clip-path="url(#clip1271)" >
<defs><clipPath id="clip1271"><path vector-effect="none" fill-rule="evenodd" d="M-2,-2 L102,-2 L102,79 L-2,79 L-2,-2z "/>
</clipPath></defs></g>

<g fill="none" stroke="#000000" stroke-opacity="1" stroke-width="1" stroke-linecap="square" stroke-linejoin="bevel" transform="matrix(1,0,0,1,0,0)"
font-family="Helvetica" font-size="10" font-weight="400" font-style="normal" 
clip-path="url(#clip1271)" >
</g>

<g fill="none" stroke="#000000" stroke-opacity="1" stroke-width="1" stroke-linecap="square" stroke-linejoin="bevel" transform="matrix(1.92308,0,0,1.92308,3.84615,3.84615)"
font-family="Helvetica" font-size="16" font-weight="400" font-style="normal" 
clip-path="url(#clip1271)" >
</g>

<g fill="none" stroke="#000000" stroke-opacity="1" stroke-width="1" stroke-linecap="square" stroke-linejoin="bevel" transform="matrix(1.92308,0,0,1.92308,3.84615,3.84615)"
font-family="Helvetica" font-size="16" font-weight="400" font-style="normal" 
clip-path="url(#clip1271)" >
</g>

<g fill="none" stroke="#000000" stroke-opacity="1" stroke-width="0.769842" stroke-linecap="butt" stroke-linejoin="miter" stroke-miterlimit="2" transform="matrix(1.92308,0,0,1.92308,3.84615,3.84615)"
font-family="Helvetica" font-size="16" font-weight="400" font-style="normal" 
clip-path="url(#clip1271)" >
<path vector-effect="none" fill-rule="evenodd" d="M0,0 L100,0 L100,45 L0,45 L0,0z "/>
</g>

<g fill="none" stroke="#000000" stroke-opacity="1" stroke-width="1" stroke-linecap="square" stroke-linejoin="bevel" transform="matrix(1.92308,0,0,1.92308,3.84615,3.84615)"
font-family="Helvetica" font-size="16" font-weight="400" font-style="normal" 
clip-path="url(#clip1271)" >
</g>

<g fill="none" stroke="#000000" stroke-opacity="1" stroke-width="1" stroke-linecap="square" stroke-linejoin="bevel" transform="matrix(1.92308,0,0,1.92308,100,123.077)"
font-family="Helvetica" font-size="16" font-weight="400" font-style="normal" 
clip-path="url(#clip1272)" >
<defs><clipPath id="clip1272"><path vector-effect="non-scaling-stroke" fill-rule="evenodd" d="M-52,-64 L52,-64 L52,17 L-52,17 L-52,-64z "/>
</clipPath></defs></g>

<g fill="none" stroke="none" transform="matrix(1.92308,0,0,1.92308,100,123.077)"
font-family="Helvetica" font-size="16" font-weight="400" font-style="normal" 
clip-path="url(#clip1272)" >
<path vector-effect="none" fill-rule="evenodd" d="M-18.875,0 L18.875,0 L18.875,15 L-18.875,15 L-18.875,0z "/>
</g>

<g fill="none" stroke="#000000" stroke-opacity="0.6" stroke-width="1" stroke-linecap="square" stroke-linejoin="bevel" transform="matrix(1.92308,0,0,1.92308,100,123.077)"
font-family="Helvetica" font-size="40" font-weight="400" font-style="normal" 
clip-path="url(#clip1272)" >
</g>

<g fill="none" stroke="#000000" stroke-opacity="0.6" stroke-width="1" stroke-linecap="square" stroke-linejoin="bevel" transform="matrix(0.480769,0,0,0.480769,63.7019,123.077)"
font-family="Helvetica" font-size="40" font-weight="400" font-style="normal" 
clip-path="url(#clip1273)" >
<defs><clipPath id="clip1273"><path vector-effect="non-scaling-stroke" fill-rule="evenodd" d="M-132.5,-256 L283.5,-256 L283.5,68 L-132.5,68 L-132.5,-256z "/>
</clipPath></defs></g>

<g fill="none" stroke="#000000" stroke-opacity="0.6" stroke-width="1" stroke-linecap="square" stroke-linejoin="bevel" transform="matrix(0.480769,0,0,0.480769,63.7019,123.077)"
font-family="Helvetica" font-size="40" font-weight="400" font-style="normal" 
clip-path="url(#clip1273)" >
</g>

<g fill="none" stroke="#000000" stroke-opacity="0.6" stroke-width="1" stroke-linecap="square" stroke-linejoin="bevel" transform="matrix(0.480769,0,0,0.480769,63.7019,123.077)"
font-family="Helvetica" font-size="40" font-weight="400" font-style="normal" 
clip-path="url(#clip1274)" >
<defs><clipPath id="clip1274"><path vector-effect="non-scaling-stroke" fill-rule="evenodd" d="M0,0 L151,0 L151,60 L0,60 L0,0z "/>
</clipPath></defs><text textLength="143" fill="#000000" fill-opacity="0.6" stroke="none" xml:space="preserve" x="4" y="41" font-family="Helvetica" font-size="40" font-weight="400" font-style="normal" 
 >Variant1</text>
</g>

<g fill="none" stroke="#000000" stroke-opacity="0.6" stroke-width="1" stroke-linecap="square" stroke-linejoin="bevel" transform="matrix(0.480769,0,0,0.480769,63.7019,123.077)"
font-family="Helvetica" font-size="40" font-weight="400" font-style="normal" 
clip-path="url(#clip1275)" >
<defs><clipPath id="clip1275"><path vector-effect="non-scaling-stroke" fill-rule="evenodd" d="M-132.5,-256 L283.5,-256 L283.5,68 L-132.5,68 L-132.5,-256z "/>
</clipPath></defs></g>

<g fill="none" stroke="#000000" stroke-opacity="0.6" stroke-width="1" stroke-linecap="square" stroke-linejoin="bevel" transform="matrix(1,0,0,1,0,0)"
font-family="Helvetica" font-size="40" font-weight="400" font-style="normal" 
clip-path="url(#clip1275)" >
</g>

<g fill="none" stroke="#000000" stroke-opacity="0.6" stroke-width="1" stroke-linecap="square" stroke-linejoin="bevel" transform="matrix(0.480769,0,0,0.480769,63.7019,123.077)"
font-family="Helvetica" font-size="40" font-weight="400" font-style="normal" 
clip-path="url(#clip1275)" >
</g>

<g fill="none" stroke="#000000" stroke-opacity="0.6" stroke-width="1" stroke-linecap="square" stroke-linejoin="bevel" transform="matrix(0.480769,0,0,0.480769,63.7019,123.077)"
font-family="Helvetica" font-size="40" font-weight="400" font-style="normal" 
clip-path="url(#clip1275)" >
</g>

<g fill="none" stroke="#000000" stroke-opacity="0.6" stroke-width="1" stroke-linecap="square" stroke-linejoin="bevel" transform="matrix(1.92308,0,0,1.92308,100,123.077)"
font-family="Helvetica" font-size="40" font-weight="400" font-style="normal" 
clip-path="url(#clip1276)" >
<defs><clipPath id="clip1276"><path vector-effect="non-scaling-stroke" fill-rule="evenodd" d="M-52,-64 L52,-64 L52,17 L-52,17 L-52,-64z "/>
</clipPath></defs></g>

<g fill="none" stroke="#000000" stroke-opacity="1" stroke-width="1" stroke-linecap="square" stroke-linejoin="bevel" transform="matrix(1.92308,0,0,1.92308,100,123.077)"
font-family="Helvetica" font-size="16" font-weight="400" font-style="normal" 
clip-path="url(#clip1276)" >
</g>

<g fill="none" stroke="#000000" stroke-opacity="1" stroke-width="1" stroke-linecap="square" stroke-linejoin="bevel" transform="matrix(1,0,0,1,0,0)"
font-family="Helvetica" font-size="16" font-weight="400" font-style="normal" 
>
</g>

<g fill="none" stroke="#000000" stroke-opacity="1" stroke-width="1" stroke-linecap="square" stroke-linejoin="bevel" transform="matrix(1,0,0,1,0,0)"
font-family="Helvetica" font-size="16" font-weight="400" font-style="normal" 
>
</g>

<g fill="none" stroke="#000000" stroke-opacity="1" stroke-width="1" stroke-linecap="square" stroke-linejoin="bevel" transform="matrix(1,0,0,1,0,0)"
font-family="Helvetica" font-size="16" font-weight="400" font-style="normal" 
clip-path="url(#clip1277)" >
<defs><clipPath id="clip1277"><path vector-effect="non-scaling-stroke" fill-rule="evenodd" d="M0,0 L200,0 L200,155 L0,155 L0,0z "/>
</clipPath></defs></g>

<g fill="none" stroke="#000000" stroke-opacity="1" stroke-width="1" stroke-linecap="square" stroke-linejoin="bevel" transform="matrix(1,0,0,1,0,0)"
font-family="Helvetica" font-size="16" font-weight="400" font-style="normal" 
>
</g>

<g fill="none" stroke="#000000" stroke-opacity="1" stroke-width="1" stroke-linecap="square" stroke-linejoin="bevel" transform="matrix(1,0,0,1,0,0)"
font-family="Helvetica" font-size="16" font-weight="400" font-style="normal" 
>
</g>

<g fill="none" stroke="#000000" stroke-opacity="1" stroke-width="1" stroke-linecap="square" stroke-linejoin="bevel" transform="matrix(1,0,0,1,0,0)"
font-family="Helvetica" font-size="16" font-weight="400" font-style="normal" 
clip-path="url(#clip1278)" >
<defs><clipPath id="clip1278"><path vector-effect="non-scaling-stroke" fill-rule="evenodd" d="M0,0 L1,0 L1,1 L0,1 L0,0z "/>
</clipPath></defs></g>

<g fill="none" stroke="#000000" stroke-opacity="1" stroke-width="1" stroke-linecap="square" stroke-linejoin="bevel" transform="matrix(1,0,0,1,0,0)"
font-family="Helvetica" font-size="16" font-weight="400" font-style="normal" 
>
</g>

<g fill="none" stroke="#000000" stroke-opacity="1" stroke-width="1" stroke-linecap="square" stroke-linejoin="bevel" transform="matrix(1,0,0,1,0,0)"
font-family="Helvetica" font-size="16" font-weight="400" font-style="normal" 
>
</g>
</g>
</svg>
