<?xml version="1.0" encoding="UTF-8" standalone="no"?>
<svg width="52.9167mm" height="31.4854mm"
 viewBox="0 0 200 119"
 xmlns="http://www.w3.org/2000/svg" xmlns:xlink="http://www.w3.org/1999/xlink"  version="1.2" baseProfile="tiny">
<defs>
<radialGradient gradientUnits="userSpaceOnUse" cx="25.5117" cy="23.835" r="20.307" fx="25.5117" fy="23.835" id="gradient1">
    <stop offset="0.3308" stop-color="#73c8ec" stop-opacity="1" />
    <stop offset="0.4484" stop-color="#128dbb" stop-opacity="1" />
    <stop offset="0.4836" stop-color="#d16432" stop-opacity="1" />
    <stop offset="0.5995" stop-color="#d15f2c" stop-opacity="1" />
    <stop offset="0.7588" stop-color="#d0511a" stop-opacity="1" />
    <stop offset="0.9264" stop-color="#cf3d00" stop-opacity="1" />
</radialGradient>
<linearGradient gradientUnits="userSpaceOnUse" x1="9.8174" y1="0.3408" x2="9.8174" y2="16.0005" id="gradient2">
    <stop offset="1e-07" stop-color="#a32e17" stop-opacity="1" />
    <stop offset="0.2308" stop-color="#972d13" stop-opacity="1" />
    <stop offset="0.645" stop-color="#78290a" stop-opacity="1" />
    <stop offset="1" stop-color="#582500" stop-opacity="1" />
</linearGradient>
<linearGradient gradientUnits="userSpaceOnUse" x1="5.9292" y1="0.000488281" x2="5.9292" y2="11.3101" id="gradient3">
    <stop offset="1e-07" stop-color="#3088cd" stop-opacity="1" />
    <stop offset="0.5471" stop-color="#185991" stop-opacity="1" />
    <stop offset="0.8957" stop-color="#0b3f6f" stop-opacity="1" />
</linearGradient>
</defs>
<g fill="none" stroke="black" stroke-width="1" fill-rule="evenodd" stroke-linecap="square" stroke-linejoin="bevel" >

<g fill="#ffffff" fill-opacity="0" stroke="none" transform="matrix(1,0,0,1,0,0)"
font-family="Helvetica" font-size="16" font-weight="400" font-style="normal" 
>
<path vector-effect="non-scaling-stroke" fill-rule="evenodd" d="M0,0 L200,0 L200,119 L0,119 L0,0z "/>
</g>

<g fill="none" stroke="#000000" stroke-opacity="1" stroke-width="1" stroke-linecap="square" stroke-linejoin="bevel" transform="matrix(1,0,0,1,0,0)"
font-family="Helvetica" font-size="16" font-weight="400" font-style="normal" 
>
</g>

<g fill="none" stroke="#000000" stroke-opacity="1" stroke-width="1" stroke-linecap="square" stroke-linejoin="bevel" transform="matrix(1,0,0,1,0,0)"
font-family="Helvetica" font-size="16" font-weight="400" font-style="normal" 
clip-path="url(#clip1708)" >
<defs><clipPath id="clip1708"><path vector-effect="non-scaling-stroke" fill-rule="evenodd" d="M0,0 L200,0 L200,119.048 L0,119.048 L0,0z "/>
</clipPath></defs></g>

<g fill="none" stroke="#000000" stroke-opacity="1" stroke-width="1" stroke-linecap="square" stroke-linejoin="bevel" transform="matrix(-2.38095,0,0,-2.38095,16.6667,59.5238)"
font-family="Helvetica" font-size="16" font-weight="400" font-style="normal" 
clip-path="url(#clip1709)" >
<defs><clipPath id="clip1709"><path vector-effect="non-scaling-stroke" fill-rule="evenodd" d="M7,25 L-77,25 L-77,-25 L7,-25 L7,25z "/>
</clipPath></defs></g>

<g fill="#000000" fill-opacity="0" stroke="#000000" stroke-opacity="1" stroke-width="2" stroke-linecap="round" stroke-linejoin="miter" stroke-miterlimit="2" transform="matrix(-2.38095,0,0,-2.38095,16.6667,59.5238)"
font-family="Helvetica" font-size="16" font-weight="400" font-style="normal" 
clip-path="url(#clip1709)" >
<path vector-effect="none" fill-rule="evenodd" d="M5,-5 L0,0 L5,5"/>
</g>

<g fill="none" stroke="#000000" stroke-opacity="1" stroke-width="1" stroke-linecap="square" stroke-linejoin="bevel" transform="matrix(-2.38095,0,0,-2.38095,16.6667,59.5238)"
font-family="Helvetica" font-size="16" font-weight="400" font-style="normal" 
clip-path="url(#clip1709)" >
</g>

<g fill="none" stroke="#000000" stroke-opacity="1" stroke-width="1" stroke-linecap="square" stroke-linejoin="bevel" transform="matrix(2.38095,0,0,2.38095,183.333,59.5238)"
font-family="Helvetica" font-size="16" font-weight="400" font-style="normal" 
clip-path="url(#clip1710)" >
<defs><clipPath id="clip1710"><path vector-effect="non-scaling-stroke" fill-rule="evenodd" d="M-77,-25 L7,-25 L7,25 L-77,25 L-77,-25z "/>
</clipPath></defs></g>

<g fill="#000000" fill-opacity="0" stroke="#000000" stroke-opacity="1" stroke-width="2" stroke-linecap="round" stroke-linejoin="miter" stroke-miterlimit="2" transform="matrix(2.38095,0,0,2.38095,183.333,59.5238)"
font-family="Helvetica" font-size="16" font-weight="400" font-style="normal" 
clip-path="url(#clip1710)" >
<path vector-effect="none" fill-rule="evenodd" d="M0,-5 L5,0 L0,5"/>
</g>

<g fill="none" stroke="#000000" stroke-opacity="1" stroke-width="1" stroke-linecap="square" stroke-linejoin="bevel" transform="matrix(2.38095,0,0,2.38095,183.333,59.5238)"
font-family="Helvetica" font-size="16" font-weight="400" font-style="normal" 
clip-path="url(#clip1710)" >
</g>

<g fill="none" stroke="#000000" stroke-opacity="1" stroke-width="1" stroke-linecap="square" stroke-linejoin="bevel" transform="matrix(2.38095,0,0,2.38095,16.6667,4.7619)"
font-family="Helvetica" font-size="16" font-weight="400" font-style="normal" 
clip-path="url(#clip1711)" >
<defs><clipPath id="clip1711"><path vector-effect="non-scaling-stroke" fill-rule="evenodd" d="M-7,-2 L77,-2 L77,48 L-7,48 L-7,-2z "/>
</clipPath></defs></g>

<g fill="#ffffff" fill-opacity="1" stroke="none" transform="matrix(2.38095,0,0,2.38095,16.6667,4.7619)"
font-family="Helvetica" font-size="16" font-weight="400" font-style="normal" 
clip-path="url(#clip1711)" >
<path vector-effect="none" fill-rule="evenodd" d="M0,0 L70,0 L70,46 L0,46 L0,0z "/>
</g>

<g fill="none" stroke="#000000" stroke-opacity="1" stroke-width="1" stroke-linecap="square" stroke-linejoin="bevel" transform="matrix(2.38095,0,0,2.38095,16.6667,4.7619)"
font-family="Helvetica" font-size="16" font-weight="400" font-style="normal" 
clip-path="url(#clip1711)" >
</g>

<g fill="none" stroke="#000000" stroke-opacity="1" stroke-width="1" stroke-linecap="square" stroke-linejoin="bevel" transform="matrix(2.38095,0,0,2.38095,16.6667,4.7619)"
font-family="Helvetica" font-size="16" font-weight="400" font-style="normal" 
clip-path="url(#clip1711)" >
</g>

<g fill="none" stroke="#000000" stroke-opacity="1" stroke-width="1" stroke-linecap="square" stroke-linejoin="bevel" transform="matrix(2.38095,0,0,2.38095,16.6667,4.7619)"
font-family="Helvetica" font-size="16" font-weight="400" font-style="normal" 
clip-path="url(#clip1712)" >
<defs><clipPath id="clip1712"><path vector-effect="non-scaling-stroke" fill-rule="evenodd" d="M0,0 L70,0 L70,46 L0,46 L0,0z "/>
</clipPath></defs></g>

<g fill="none" stroke="none" transform="matrix(2.38095,0,0,2.38095,16.6667,4.7619)"
font-family="Helvetica" font-size="16" font-weight="400" font-style="normal" 
clip-path="url(#clip1712)" >
<path vector-effect="none" fill-rule="evenodd" d="M0,0 L70,0 L70,46 L0,46 L0,0z "/>
</g>

<g fill="none" stroke="none" transform="matrix(2.38095,0,0,2.38095,16.6667,4.7619)"
font-family="Helvetica" font-size="16" font-weight="400" font-style="normal" 
clip-path="url(#clip1713)" >
<defs><clipPath id="clip1713"><path vector-effect="none" fill-rule="evenodd" d="M-7,-2 L77,-2 L77,48 L-7,48 L-7,-2z "/>
</clipPath></defs></g>

<g fill="none" stroke="none" transform="matrix(1,0,0,1,0,0)"
font-family="Helvetica" font-size="16" font-weight="400" font-style="normal" 
clip-path="url(#clip1713)" >
</g>

<g fill="none" stroke="#000000" stroke-opacity="1" stroke-width="1" stroke-linecap="square" stroke-linejoin="bevel" transform="matrix(2.38095,0,0,2.38095,16.6667,4.7619)"
font-family="Helvetica" font-size="16" font-weight="400" font-style="normal" 
clip-path="url(#clip1713)" >
</g>

<g fill="none" stroke="#000000" stroke-opacity="1" stroke-width="1" stroke-linecap="square" stroke-linejoin="bevel" transform="matrix(2.38095,0,0,2.38095,16.6667,4.7619)"
font-family="Helvetica" font-size="16" font-weight="400" font-style="normal" 
clip-path="url(#clip1714)" >
<defs><clipPath id="clip1714"><path vector-effect="non-scaling-stroke" fill-rule="evenodd" d="M0,0 L70,0 L70,46 L0,46 L0,0z "/>
</clipPath></defs></g>

<g fill="none" stroke="#000000" stroke-opacity="1" stroke-width="1" stroke-linecap="square" stroke-linejoin="bevel" transform="matrix(2.38095,0,0,2.38095,-21.4286,-61.9048)"
font-family="Helvetica" font-size="16" font-weight="400" font-style="normal" 
clip-path="url(#clip1715)" >
<defs><clipPath id="clip1715"><path vector-effect="non-scaling-stroke" fill-rule="evenodd" d="M16,28 L86,28 L86,74 L16,74 L16,28z "/>
</clipPath></defs></g>

<g fill="none" stroke="#000000" stroke-opacity="1" stroke-width="1" stroke-linecap="square" stroke-linejoin="bevel" transform="matrix(2.38095,0,0,2.38095,-21.4286,-61.9048)"
font-family="Helvetica" font-size="16" font-weight="400" font-style="normal" 
clip-path="url(#clip1715)" >
</g>

<g fill="none" stroke="#000000" stroke-opacity="1" stroke-width="1" stroke-linecap="square" stroke-linejoin="bevel" transform="matrix(2.38095,0,0,2.38095,-21.4286,-61.9048)"
font-family="Helvetica" font-size="16" font-weight="400" font-style="normal" 
clip-path="url(#clip1715)" >
</g>

<g fill="#000000" fill-opacity="1" stroke="#000000" stroke-opacity="1" stroke-width="1" stroke-linecap="square" stroke-linejoin="miter" stroke-miterlimit="2" transform="matrix(2.38095,0,0,2.38095,-21.4286,-61.9048)"
font-family="Helvetica" font-size="16" font-weight="400" font-style="normal" 
clip-path="url(#clip1715)" >
</g>

<g fill="#000000" fill-opacity="1" stroke="#000000" stroke-opacity="1" stroke-width="1" stroke-linecap="square" stroke-linejoin="miter" stroke-miterlimit="2" transform="matrix(2.38095,0,0,2.38095,-21.4286,-61.9048)"
font-family="Helvetica" font-size="16" font-weight="400" font-style="normal" 
clip-path="url(#clip1715)" >
</g>

<g fill="#000000" fill-opacity="1" stroke="#000000" stroke-opacity="1" stroke-width="1" stroke-linecap="square" stroke-linejoin="miter" stroke-miterlimit="2" transform="matrix(2.38095,0,0,2.38095,-21.4286,-61.9048)"
font-family="Helvetica" font-size="16" font-weight="400" font-style="normal" 
>
</g>

<g fill="#000000" fill-opacity="1" stroke="#000000" stroke-opacity="1" stroke-width="1" stroke-linecap="square" stroke-linejoin="miter" stroke-miterlimit="2" transform="matrix(2.38095,0,0,2.38095,-21.4286,-61.9048)"
font-family="Helvetica" font-size="16" font-weight="400" font-style="normal" 
clip-path="url(#clip1715)" >
</g>

<g fill="#000000" fill-opacity="1" stroke="#000000" stroke-opacity="1" stroke-width="1" stroke-linecap="square" stroke-linejoin="miter" stroke-miterlimit="2" transform="matrix(2.38095,0,0,2.38095,-21.4286,-61.9048)"
font-family="Helvetica" font-size="16" font-weight="400" font-style="normal" 
clip-path="url(#clip1715)" >
</g>

<g fill="#000000" fill-opacity="1" stroke="#000000" stroke-opacity="1" stroke-width="1" stroke-linecap="square" stroke-linejoin="miter" stroke-miterlimit="2" transform="matrix(2.38095,0,0,2.38095,-21.4286,-61.9048)"
font-family="Helvetica" font-size="16" font-weight="400" font-style="normal" 
clip-path="url(#clip1715)" >
</g>

<g fill="#000000" fill-opacity="1" stroke="#000000" stroke-opacity="1" stroke-width="1" stroke-linecap="square" stroke-linejoin="miter" stroke-miterlimit="2" transform="matrix(2.38095,0,0,2.38095,-21.4286,-61.9048)"
font-family="Helvetica" font-size="16" font-weight="400" font-style="normal" 
>
</g>

<g fill="#000000" fill-opacity="1" stroke="#000000" stroke-opacity="1" stroke-width="1" stroke-linecap="square" stroke-linejoin="miter" stroke-miterlimit="2" transform="matrix(2.38095,0,0,2.38095,-21.4286,-61.9048)"
font-family="Helvetica" font-size="16" font-weight="400" font-style="normal" 
clip-path="url(#clip1715)" >
</g>

<g fill="#000000" fill-opacity="1" stroke="#000000" stroke-opacity="1" stroke-width="1" stroke-linecap="square" stroke-linejoin="miter" stroke-miterlimit="2" transform="matrix(2.38095,0,0,2.38095,-21.4286,-61.9048)"
font-family="Helvetica" font-size="16" font-weight="400" font-style="normal" 
clip-path="url(#clip1715)" >
</g>

<g fill="#000000" fill-opacity="1" stroke="#000000" stroke-opacity="1" stroke-width="1" stroke-linecap="square" stroke-linejoin="miter" stroke-miterlimit="2" transform="matrix(2.38095,0,0,2.38095,-21.4286,-61.9048)"
font-family="Helvetica" font-size="16" font-weight="400" font-style="normal" 
clip-path="url(#clip1715)" >
</g>

<g fill="#000000" fill-opacity="1" stroke="#000000" stroke-opacity="1" stroke-width="1" stroke-linecap="square" stroke-linejoin="miter" stroke-miterlimit="2" transform="matrix(2.38095,0,0,2.38095,-19.0476,-59.5238)"
font-family="Helvetica" font-size="16" font-weight="400" font-style="normal" 
clip-path="url(#clip1716)" >
<defs><clipPath id="clip1716"><path vector-effect="non-scaling-stroke" fill-rule="evenodd" d="M42,42 L58,42 L58,58 L42,58 L42,42z "/>
</clipPath></defs></g>

<g fill="#000000" fill-opacity="1" stroke="#000000" stroke-opacity="1" stroke-width="1" stroke-linecap="square" stroke-linejoin="miter" stroke-miterlimit="2" transform="matrix(2.38095,0,0,2.38095,80.9524,40.4762)"
font-family="Helvetica" font-size="16" font-weight="400" font-style="normal" 
clip-path="url(#clip1717)" >
<defs><clipPath id="clip1717"><path vector-effect="non-scaling-stroke" fill-rule="evenodd" d="M0,0 L16,0 L16,16 L0,16 L0,0z "/>
</clipPath></defs></g>

<g fill="#000000" fill-opacity="1" stroke="#000000" stroke-opacity="1" stroke-width="1" stroke-linecap="square" stroke-linejoin="miter" stroke-miterlimit="2" transform="matrix(2.38095,0,0,2.38095,80.9524,40.4762)"
font-family="Helvetica" font-size="16" font-weight="400" font-style="normal" 
clip-path="url(#clip1717)" >
</g>

<g fill="#000000" fill-opacity="1" stroke="#000000" stroke-opacity="1" stroke-width="1" stroke-linecap="square" stroke-linejoin="miter" stroke-miterlimit="2" transform="matrix(2.38095,0,0,2.38095,80.9524,40.4762)"
font-family="Helvetica" font-size="16" font-weight="400" font-style="normal" 
>
</g>

<g fill="#000000" fill-opacity="1" stroke="#000000" stroke-opacity="1" stroke-width="1" stroke-linecap="square" stroke-linejoin="miter" stroke-miterlimit="2" transform="matrix(2.38095,0,0,2.38095,-21.4286,-61.9048)"
font-family="Helvetica" font-size="16" font-weight="400" font-style="normal" 
clip-path="url(#clip1718)" >
<defs><clipPath id="clip1718"><path vector-effect="non-scaling-stroke" fill-rule="evenodd" d="M16,28 L86,28 L86,74 L16,74 L16,28z "/>
</clipPath></defs></g>

<g fill="#000000" fill-opacity="1" stroke="#000000" stroke-opacity="1" stroke-width="1" stroke-linecap="square" stroke-linejoin="miter" stroke-miterlimit="2" transform="matrix(2.38095,0,0,2.38095,-21.4286,-61.9048)"
font-family="Helvetica" font-size="16" font-weight="400" font-style="normal" 
clip-path="url(#clip1718)" >
</g>

<g fill="#000000" fill-opacity="1" stroke="#000000" stroke-opacity="1" stroke-width="1" stroke-linecap="square" stroke-linejoin="miter" stroke-miterlimit="2" transform="matrix(2.38095,0,0,2.38095,-21.4286,-61.9048)"
font-family="Helvetica" font-size="16" font-weight="400" font-style="normal" 
clip-path="url(#clip1718)" >
</g>

<g fill="#000000" fill-opacity="1" stroke="#000000" stroke-opacity="1" stroke-width="1" stroke-linecap="square" stroke-linejoin="miter" stroke-miterlimit="2" transform="matrix(2.38095,0,0,2.38095,-19.0476,-59.5238)"
font-family="Helvetica" font-size="16" font-weight="400" font-style="normal" 
clip-path="url(#clip1719)" >
<defs><clipPath id="clip1719"><path vector-effect="non-scaling-stroke" fill-rule="evenodd" d="M42,42 L58,42 L58,58 L42,58 L42,42z "/>
</clipPath></defs></g>

<g fill="#000000" fill-opacity="1" stroke="#000000" stroke-opacity="1" stroke-width="1" stroke-linecap="square" stroke-linejoin="miter" stroke-miterlimit="2" transform="matrix(2.38095,0,0,2.38095,80.9524,40.4762)"
font-family="Helvetica" font-size="16" font-weight="400" font-style="normal" 
clip-path="url(#clip1720)" >
<defs><clipPath id="clip1720"><path vector-effect="non-scaling-stroke" fill-rule="evenodd" d="M0,0 L16,0 L16,16 L0,16 L0,0z "/>
</clipPath></defs></g>

<g fill="#000000" fill-opacity="1" stroke="#000000" stroke-opacity="1" stroke-width="1" stroke-linecap="square" stroke-linejoin="miter" stroke-miterlimit="2" transform="matrix(2.38095,0,0,2.38095,80.9524,40.4762)"
font-family="Helvetica" font-size="16" font-weight="400" font-style="normal" 
clip-path="url(#clip1720)" >
</g>

<g fill="#000000" fill-opacity="1" stroke="#000000" stroke-opacity="1" stroke-width="1" stroke-linecap="square" stroke-linejoin="miter" stroke-miterlimit="2" transform="matrix(2.38095,0,0,2.38095,80.9524,40.4762)"
font-family="Helvetica" font-size="16" font-weight="400" font-style="normal" 
>
</g>

<g fill="#000000" fill-opacity="1" stroke="#000000" stroke-opacity="1" stroke-width="1" stroke-linecap="square" stroke-linejoin="miter" stroke-miterlimit="2" transform="matrix(2.38095,0,0,2.38095,-21.4286,-61.9048)"
font-family="Helvetica" font-size="16" font-weight="400" font-style="normal" 
clip-path="url(#clip1721)" >
<defs><clipPath id="clip1721"><path vector-effect="non-scaling-stroke" fill-rule="evenodd" d="M16,28 L86,28 L86,74 L16,74 L16,28z "/>
</clipPath></defs></g>

<g fill="#000000" fill-opacity="1" stroke="#000000" stroke-opacity="1" stroke-width="1" stroke-linecap="square" stroke-linejoin="miter" stroke-miterlimit="2" transform="matrix(2.38095,0,0,2.38095,-21.4286,-61.9048)"
font-family="Helvetica" font-size="16" font-weight="400" font-style="normal" 
clip-path="url(#clip1721)" >
</g>

<g fill="#000000" fill-opacity="1" stroke="#000000" stroke-opacity="1" stroke-width="1" stroke-linecap="square" stroke-linejoin="miter" stroke-miterlimit="2" transform="matrix(2.38095,0,0,2.38095,-21.4286,-61.9048)"
font-family="Helvetica" font-size="16" font-weight="400" font-style="normal" 
clip-path="url(#clip1721)" >
</g>

<g fill="#000000" fill-opacity="1" stroke="#000000" stroke-opacity="1" stroke-width="1" stroke-linecap="square" stroke-linejoin="miter" stroke-miterlimit="2" transform="matrix(2.38095,0,0,2.38095,-19.0476,-59.5238)"
font-family="Helvetica" font-size="16" font-weight="400" font-style="normal" 
clip-path="url(#clip1722)" >
<defs><clipPath id="clip1722"><path vector-effect="non-scaling-stroke" fill-rule="evenodd" d="M42,42 L58,42 L58,58 L42,58 L42,42z "/>
</clipPath></defs></g>

<g fill="#000000" fill-opacity="1" stroke="#000000" stroke-opacity="1" stroke-width="1" stroke-linecap="square" stroke-linejoin="miter" stroke-miterlimit="2" transform="matrix(2.38095,0,0,2.38095,80.9524,40.4762)"
font-family="Helvetica" font-size="16" font-weight="400" font-style="normal" 
clip-path="url(#clip1723)" >
<defs><clipPath id="clip1723"><path vector-effect="non-scaling-stroke" fill-rule="evenodd" d="M0,0 L16,0 L16,16 L0,16 L0,0z "/>
</clipPath></defs></g>

<g fill="#000000" fill-opacity="1" stroke="#000000" stroke-opacity="1" stroke-width="1" stroke-linecap="square" stroke-linejoin="miter" stroke-miterlimit="2" transform="matrix(2.38095,0,0,2.38095,80.9524,40.4762)"
font-family="Helvetica" font-size="16" font-weight="400" font-style="normal" 
clip-path="url(#clip1723)" >
</g>

<g fill="url(#gradient1)" stroke="none" transform="matrix(2.38095,0,0,2.38095,80.9524,40.4762)"
font-family="Helvetica" font-size="16" font-weight="400" font-style="normal" 
clip-path="url(#clip1723)" >
<path vector-effect="non-scaling-stroke" fill-rule="nonzero" d="M15.609,11 C15.093,9.521 14.757,8.104 14.189,6.442 C13.906,5.605 13.601,4.66 13.32,3.815 C13.015,2.901 12.476,2.072 12.049,1.295 C11.875,0.968 11.438,0.209 10.971,0.211 C10.83,0.211 10.727,0.278 10.641,0.341 C10.336,0.55 7.509,4.558 7.18,4.691 C7.079,4.736 6.953,4.753 6.838,4.792 C6.58,4.892 6.391,5.007 6.19,5.181 C5.86,5.482 5.547,5.876 5.267,6.241 C5.211,6.318 4.648,7.127 4.563,7.241 L0.376,9.018 C0.376,9.018 5.367,12.054 5.696,12.884 C5.924,13.473 7.07,15.132 7.297,15.731 C8.049,15.552 8.524,14.785 9.018,14.342 C9.556,13.861 10.039,13.217 10.493,12.643 C11.376,11.53 11.727,10.814 13.196,10.638 C13.594,10.59 14.337,10.814 14.518,10.969 C14.789,11.197 15.141,11.341 15.401,11.574 C15.859,11.984 15.775,11.496 15.609,11 z "/>
</g>

<g fill="#f5ae81" fill-opacity="1" stroke="none" transform="matrix(2.38095,0,0,2.38095,80.9524,40.4762)"
font-family="Helvetica" font-size="16" font-weight="400" font-style="normal" 
clip-path="url(#clip1723)" >
<path vector-effect="non-scaling-stroke" fill-rule="nonzero" d="M12.203,4.792 C12.375,6.326 12.142,7.576 11.695,7.599 C11.236,7.621 10.726,6.396 10.554,4.87 C10.39,3.336 10.618,2.088 11.064,2.063 C11.523,2.04 12.031,3.256 12.203,4.792 z "/>
</g>

<g fill="url(#gradient2)" stroke="none" transform="matrix(2.38095,0,0,2.38095,80.9524,40.4762)"
font-family="Helvetica" font-size="16" font-weight="400" font-style="normal" 
clip-path="url(#clip1723)" >
<path vector-effect="non-scaling-stroke" fill-rule="nonzero" d="M15.955,11.295 C15.619,10.187 13.047,1.451 11.656,0.341 L10.82,0.506 L10.898,0.715 C10.953,0.683 11.015,0.684 11.046,0.699 C11.814,1.001 13.767,6.946 13.767,6.946 C14.22,8.467 14.64,9.72 14.994,10.72 C14.484,10.389 13.937,10.186 13.416,10.17 C11.594,10.115 10.814,11.528 9.58,13.024 C9.031,13.698 8.174,14.729 7.596,15.148 C6.633,12.464 4.829,11.217 4.243,10.875 L3.634,11.31 L3.655,11.318 C3.655,11.318 6.164,12.513 7.142,16 C7.156,15.999 7.174,16 7.189,16 C8.844,16 11.476,10.521 13.416,10.829 C14,10.922 14.711,11.288 15.312,11.808 C15.633,12.069 16.158,11.971 15.955,11.295 z "/>
</g>

<g fill="url(#gradient3)" stroke="none" transform="matrix(2.38095,0,0,2.38095,80.9524,40.4762)"
font-family="Helvetica" font-size="16" font-weight="400" font-style="normal" 
clip-path="url(#clip1723)" >
<path vector-effect="non-scaling-stroke" fill-rule="nonzero" d="M11.164,0.016 C11.127,0.007 11.096,0.001 11.062,0.001 C9.627,-0.061 8.016,4.03 6.695,4.736 C5.328,5.465 5.242,6.155 4.798,6.762 C4.359,7.374 0,8.915 0,8.915 L3.634,11.31 L4.155,10.947 C4.924,10.452 6.242,9.467 7.406,7.784 C9.017,5.474 10,2.7 10.468,1.374 C10.468,1.374 10.554,1.135 10.611,1.025 C10.695,0.871 10.799,0.762 10.937,0.706 C11.304,0.514 11.859,0.551 11.859,0.551 C11.672,0.312 11.375,0.063 11.164,0.016 M3.609,10.481 L1.485,9.085 C2.663,8.644 3.82,8.157 4.579,7.731 L5.812,8.661 C4.931,9.599 4.094,10.188 3.609,10.481 M6.822,7.419 C6.641,7.683 6.453,7.924 6.26,8.155 L5.181,7.342 C5.259,7.272 5.328,7.203 5.369,7.142 C5.493,6.979 5.594,6.807 5.695,6.622 C5.953,6.171 6.174,5.776 7.033,5.317 C7.688,4.968 8.359,4.115 9.055,3.155 C8.523,4.459 7.79,6.031 6.822,7.419 "/>
</g>

<g fill="#000000" fill-opacity="1" stroke="#000000" stroke-opacity="1" stroke-width="1" stroke-linecap="square" stroke-linejoin="miter" stroke-miterlimit="2" transform="matrix(2.38095,0,0,2.38095,80.9524,40.4762)"
font-family="Helvetica" font-size="16" font-weight="400" font-style="normal" 
>
</g>

<g fill="#000000" fill-opacity="1" stroke="#000000" stroke-opacity="1" stroke-width="1" stroke-linecap="square" stroke-linejoin="miter" stroke-miterlimit="2" transform="matrix(2.38095,0,0,2.38095,-21.4286,-61.9048)"
font-family="Helvetica" font-size="16" font-weight="400" font-style="normal" 
clip-path="url(#clip1724)" >
<defs><clipPath id="clip1724"><path vector-effect="non-scaling-stroke" fill-rule="evenodd" d="M16,28 L86,28 L86,74 L16,74 L16,28z "/>
</clipPath></defs></g>

<g fill="#000000" fill-opacity="1" stroke="#000000" stroke-opacity="1" stroke-width="1" stroke-linecap="square" stroke-linejoin="miter" stroke-miterlimit="2" transform="matrix(2.38095,0,0,2.38095,-21.4286,-61.9048)"
font-family="Helvetica" font-size="16" font-weight="400" font-style="normal" 
clip-path="url(#clip1724)" >
</g>

<g fill="#000000" fill-opacity="1" stroke="#000000" stroke-opacity="1" stroke-width="1" stroke-linecap="square" stroke-linejoin="miter" stroke-miterlimit="2" transform="matrix(2.38095,0,0,2.38095,-21.4286,-61.9048)"
font-family="Helvetica" font-size="16" font-weight="400" font-style="normal" 
clip-path="url(#clip1724)" >
</g>

<g fill="#000000" fill-opacity="1" stroke="#000000" stroke-opacity="1" stroke-width="1" stroke-linecap="square" stroke-linejoin="miter" stroke-miterlimit="2" transform="matrix(2.38095,0,0,2.38095,-19.0476,-59.5238)"
font-family="Helvetica" font-size="16" font-weight="400" font-style="normal" 
clip-path="url(#clip1725)" >
<defs><clipPath id="clip1725"><path vector-effect="non-scaling-stroke" fill-rule="evenodd" d="M42,42 L58,42 L58,58 L42,58 L42,42z "/>
</clipPath></defs></g>

<g fill="#000000" fill-opacity="1" stroke="#000000" stroke-opacity="1" stroke-width="1" stroke-linecap="square" stroke-linejoin="miter" stroke-miterlimit="2" transform="matrix(2.38095,0,0,2.38095,80.9524,40.4762)"
font-family="Helvetica" font-size="16" font-weight="400" font-style="normal" 
clip-path="url(#clip1726)" >
<defs><clipPath id="clip1726"><path vector-effect="non-scaling-stroke" fill-rule="evenodd" d="M0,0 L16,0 L16,16 L0,16 L0,0z "/>
</clipPath></defs></g>

<g fill="#000000" fill-opacity="1" stroke="#000000" stroke-opacity="1" stroke-width="1" stroke-linecap="square" stroke-linejoin="miter" stroke-miterlimit="2" transform="matrix(2.38095,0,0,2.38095,80.9524,40.4762)"
font-family="Helvetica" font-size="16" font-weight="400" font-style="normal" 
clip-path="url(#clip1726)" >
</g>

<g fill="#000000" fill-opacity="1" stroke="#000000" stroke-opacity="1" stroke-width="1" stroke-linecap="square" stroke-linejoin="miter" stroke-miterlimit="2" transform="matrix(2.38095,0,0,2.38095,80.9524,40.4762)"
font-family="Helvetica" font-size="16" font-weight="400" font-style="normal" 
>
</g>

<g fill="#000000" fill-opacity="1" stroke="#000000" stroke-opacity="1" stroke-width="1" stroke-linecap="square" stroke-linejoin="miter" stroke-miterlimit="2" transform="matrix(2.38095,0,0,2.38095,-21.4286,-61.9048)"
font-family="Helvetica" font-size="16" font-weight="400" font-style="normal" 
clip-path="url(#clip1727)" >
<defs><clipPath id="clip1727"><path vector-effect="non-scaling-stroke" fill-rule="evenodd" d="M16,28 L86,28 L86,74 L16,74 L16,28z "/>
</clipPath></defs></g>

<g fill="#000000" fill-opacity="1" stroke="#000000" stroke-opacity="1" stroke-width="1" stroke-linecap="square" stroke-linejoin="miter" stroke-miterlimit="2" transform="matrix(2.38095,0,0,2.38095,-21.4286,-61.9048)"
font-family="Helvetica" font-size="16" font-weight="400" font-style="normal" 
clip-path="url(#clip1727)" >
</g>

<g fill="#000000" fill-opacity="1" stroke="#000000" stroke-opacity="1" stroke-width="1" stroke-linecap="square" stroke-linejoin="miter" stroke-miterlimit="2" transform="matrix(2.38095,0,0,2.38095,-21.4286,-61.9048)"
font-family="Helvetica" font-size="16" font-weight="400" font-style="normal" 
clip-path="url(#clip1727)" >
</g>

<g fill="#000000" fill-opacity="1" stroke="#000000" stroke-opacity="1" stroke-width="1" stroke-linecap="square" stroke-linejoin="miter" stroke-miterlimit="2" transform="matrix(2.38095,0,0,2.38095,-19.0476,-59.5238)"
font-family="Helvetica" font-size="16" font-weight="400" font-style="normal" 
clip-path="url(#clip1728)" >
<defs><clipPath id="clip1728"><path vector-effect="non-scaling-stroke" fill-rule="evenodd" d="M42,42 L58,42 L58,58 L42,58 L42,42z "/>
</clipPath></defs></g>

<g fill="#000000" fill-opacity="1" stroke="#000000" stroke-opacity="1" stroke-width="1" stroke-linecap="square" stroke-linejoin="miter" stroke-miterlimit="2" transform="matrix(2.38095,0,0,2.38095,80.9524,40.4762)"
font-family="Helvetica" font-size="16" font-weight="400" font-style="normal" 
clip-path="url(#clip1729)" >
<defs><clipPath id="clip1729"><path vector-effect="non-scaling-stroke" fill-rule="evenodd" d="M0,0 L16,0 L16,16 L0,16 L0,0z "/>
</clipPath></defs></g>

<g fill="#000000" fill-opacity="1" stroke="#000000" stroke-opacity="1" stroke-width="1" stroke-linecap="square" stroke-linejoin="miter" stroke-miterlimit="2" transform="matrix(2.38095,0,0,2.38095,80.9524,40.4762)"
font-family="Helvetica" font-size="16" font-weight="400" font-style="normal" 
clip-path="url(#clip1729)" >
</g>

<g fill="#000000" fill-opacity="1" stroke="#000000" stroke-opacity="1" stroke-width="1" stroke-linecap="square" stroke-linejoin="miter" stroke-miterlimit="2" transform="matrix(2.38095,0,0,2.38095,80.9524,40.4762)"
font-family="Helvetica" font-size="16" font-weight="400" font-style="normal" 
>
</g>

<g fill="#000000" fill-opacity="1" stroke="#000000" stroke-opacity="1" stroke-width="1" stroke-linecap="square" stroke-linejoin="miter" stroke-miterlimit="2" transform="matrix(2.38095,0,0,2.38095,-21.4286,-61.9048)"
font-family="Helvetica" font-size="16" font-weight="400" font-style="normal" 
clip-path="url(#clip1730)" >
<defs><clipPath id="clip1730"><path vector-effect="non-scaling-stroke" fill-rule="evenodd" d="M16,28 L86,28 L86,74 L16,74 L16,28z "/>
</clipPath></defs></g>

<g fill="#000000" fill-opacity="1" stroke="#000000" stroke-opacity="1" stroke-width="1" stroke-linecap="square" stroke-linejoin="miter" stroke-miterlimit="2" transform="matrix(2.38095,0,0,2.38095,-21.4286,-61.9048)"
font-family="Helvetica" font-size="16" font-weight="400" font-style="normal" 
clip-path="url(#clip1730)" >
</g>

<g fill="#000000" fill-opacity="1" stroke="#000000" stroke-opacity="1" stroke-width="1" stroke-linecap="square" stroke-linejoin="miter" stroke-miterlimit="2" transform="matrix(2.38095,0,0,2.38095,-21.4286,-61.9048)"
font-family="Helvetica" font-size="16" font-weight="400" font-style="normal" 
clip-path="url(#clip1730)" >
</g>

<g fill="#000000" fill-opacity="1" stroke="#000000" stroke-opacity="1" stroke-width="1" stroke-linecap="square" stroke-linejoin="miter" stroke-miterlimit="2" transform="matrix(2.38095,0,0,2.38095,-19.0476,-59.5238)"
font-family="Helvetica" font-size="16" font-weight="400" font-style="normal" 
clip-path="url(#clip1731)" >
<defs><clipPath id="clip1731"><path vector-effect="non-scaling-stroke" fill-rule="evenodd" d="M42,42 L58,42 L58,58 L42,58 L42,42z "/>
</clipPath></defs></g>

<g fill="#000000" fill-opacity="1" stroke="#000000" stroke-opacity="1" stroke-width="1" stroke-linecap="square" stroke-linejoin="miter" stroke-miterlimit="2" transform="matrix(2.38095,0,0,2.38095,80.9524,40.4762)"
font-family="Helvetica" font-size="16" font-weight="400" font-style="normal" 
clip-path="url(#clip1732)" >
<defs><clipPath id="clip1732"><path vector-effect="non-scaling-stroke" fill-rule="evenodd" d="M0,0 L16,0 L16,16 L0,16 L0,0z "/>
</clipPath></defs></g>

<g fill="#000000" fill-opacity="1" stroke="#000000" stroke-opacity="1" stroke-width="1" stroke-linecap="square" stroke-linejoin="miter" stroke-miterlimit="2" transform="matrix(2.38095,0,0,2.38095,80.9524,40.4762)"
font-family="Helvetica" font-size="16" font-weight="400" font-style="normal" 
>
</g>

<g fill="#000000" fill-opacity="1" stroke="#000000" stroke-opacity="1" stroke-width="1" stroke-linecap="square" stroke-linejoin="miter" stroke-miterlimit="2" transform="matrix(2.38095,0,0,2.38095,-21.4286,-61.9048)"
font-family="Helvetica" font-size="16" font-weight="400" font-style="normal" 
clip-path="url(#clip1733)" >
<defs><clipPath id="clip1733"><path vector-effect="non-scaling-stroke" fill-rule="evenodd" d="M16,28 L86,28 L86,74 L16,74 L16,28z "/>
</clipPath></defs></g>

<g fill="#000000" fill-opacity="1" stroke="#000000" stroke-opacity="1" stroke-width="1" stroke-linecap="square" stroke-linejoin="miter" stroke-miterlimit="2" transform="matrix(2.38095,0,0,2.38095,-21.4286,-61.9048)"
font-family="Helvetica" font-size="16" font-weight="400" font-style="normal" 
clip-path="url(#clip1733)" >
</g>

<g fill="#000000" fill-opacity="1" stroke="#000000" stroke-opacity="1" stroke-width="1" stroke-linecap="square" stroke-linejoin="miter" stroke-miterlimit="2" transform="matrix(2.38095,0,0,2.38095,-21.4286,-61.9048)"
font-family="Helvetica" font-size="16" font-weight="400" font-style="normal" 
clip-path="url(#clip1733)" >
</g>

<g fill="#000000" fill-opacity="1" stroke="#000000" stroke-opacity="1" stroke-width="1" stroke-linecap="square" stroke-linejoin="miter" stroke-miterlimit="2" transform="matrix(2.38095,0,0,2.38095,-19.0476,-59.5238)"
font-family="Helvetica" font-size="16" font-weight="400" font-style="normal" 
clip-path="url(#clip1734)" >
<defs><clipPath id="clip1734"><path vector-effect="non-scaling-stroke" fill-rule="evenodd" d="M42,42 L58,42 L58,58 L42,58 L42,42z "/>
</clipPath></defs></g>

<g fill="#000000" fill-opacity="1" stroke="#000000" stroke-opacity="1" stroke-width="1" stroke-linecap="square" stroke-linejoin="miter" stroke-miterlimit="2" transform="matrix(2.38095,0,0,2.38095,80.9524,40.4762)"
font-family="Helvetica" font-size="16" font-weight="400" font-style="normal" 
>
</g>

<g fill="#000000" fill-opacity="1" stroke="#000000" stroke-opacity="1" stroke-width="1" stroke-linecap="square" stroke-linejoin="miter" stroke-miterlimit="2" transform="matrix(2.38095,0,0,2.38095,-21.4286,-61.9048)"
font-family="Helvetica" font-size="16" font-weight="400" font-style="normal" 
clip-path="url(#clip1735)" >
<defs><clipPath id="clip1735"><path vector-effect="non-scaling-stroke" fill-rule="evenodd" d="M16,28 L86,28 L86,74 L16,74 L16,28z "/>
</clipPath></defs></g>

<g fill="#000000" fill-opacity="1" stroke="#000000" stroke-opacity="1" stroke-width="1" stroke-linecap="square" stroke-linejoin="miter" stroke-miterlimit="2" transform="matrix(2.38095,0,0,2.38095,-21.4286,-61.9048)"
font-family="Helvetica" font-size="16" font-weight="400" font-style="normal" 
clip-path="url(#clip1735)" >
</g>

<g fill="#000000" fill-opacity="1" stroke="#000000" stroke-opacity="1" stroke-width="1" stroke-linecap="square" stroke-linejoin="miter" stroke-miterlimit="2" transform="matrix(2.38095,0,0,2.38095,-21.4286,-61.9048)"
font-family="Helvetica" font-size="16" font-weight="400" font-style="normal" 
clip-path="url(#clip1735)" >
</g>

<g fill="#000000" fill-opacity="1" stroke="#000000" stroke-opacity="1" stroke-width="1" stroke-linecap="square" stroke-linejoin="bevel" transform="matrix(2.38095,0,0,2.38095,-19.0476,-59.5238)"
font-family="Helvetica" font-size="10" font-weight="400" font-style="normal" 
clip-path="url(#clip1736)" >
<defs><clipPath id="clip1736"><path vector-effect="non-scaling-stroke" fill-rule="evenodd" d="M15,27 L85,27 L85,73 L15,73 L15,27z "/>
</clipPath></defs></g>

<g fill="#000000" fill-opacity="1" stroke="#000000" stroke-opacity="1" stroke-width="1" stroke-linecap="square" stroke-linejoin="bevel" transform="matrix(2.38095,0,0,2.38095,-19.0476,-59.5238)"
font-family="Helvetica" font-size="10" font-weight="400" font-style="normal" 
clip-path="url(#clip1736)" >
<text textLength="14" fill="#000000" fill-opacity="1" stroke="none" xml:space="preserve" x="43" y="68" font-family="Helvetica" font-size="10" font-weight="400" font-style="normal" 
 >fcn</text>
</g>

<g fill="#000000" fill-opacity="1" stroke="#000000" stroke-opacity="1" stroke-width="1" stroke-linecap="square" stroke-linejoin="bevel" transform="matrix(2.38095,0,0,2.38095,-19.0476,-59.5238)"
font-family="Helvetica" font-size="10" font-weight="400" font-style="normal" 
clip-path="url(#clip1736)" >
</g>

<g fill="#000000" fill-opacity="1" stroke="#000000" stroke-opacity="1" stroke-width="1" stroke-linecap="square" stroke-linejoin="miter" stroke-miterlimit="2" transform="matrix(2.38095,0,0,2.38095,-21.4286,-61.9048)"
font-family="MS Shell Dlg 2" font-size="11" font-weight="400" font-style="normal" 
>
</g>

<g fill="#000000" fill-opacity="1" stroke="#000000" stroke-opacity="1" stroke-width="1" stroke-linecap="square" stroke-linejoin="miter" stroke-miterlimit="2" transform="matrix(2.38095,0,0,2.38095,-21.4286,-61.9048)"
font-family="MS Shell Dlg 2" font-size="11" font-weight="400" font-style="normal" 
clip-path="url(#clip1737)" >
<defs><clipPath id="clip1737"><path vector-effect="non-scaling-stroke" fill-rule="evenodd" d="M16,28 L86,28 L86,74 L16,74 L16,28z "/>
</clipPath></defs></g>

<g fill="#000000" fill-opacity="1" stroke="#000000" stroke-opacity="1" stroke-width="1" stroke-linecap="square" stroke-linejoin="miter" stroke-miterlimit="2" transform="matrix(2.38095,0,0,2.38095,-21.4286,-61.9048)"
font-family="MS Shell Dlg 2" font-size="11" font-weight="400" font-style="normal" 
clip-path="url(#clip1737)" >
</g>

<g fill="#000000" fill-opacity="1" stroke="#000000" stroke-opacity="1" stroke-width="1" stroke-linecap="square" stroke-linejoin="miter" stroke-miterlimit="2" transform="matrix(2.38095,0,0,2.38095,-21.4286,-61.9048)"
font-family="MS Shell Dlg 2" font-size="11" font-weight="400" font-style="normal" 
clip-path="url(#clip1737)" >
</g>

<g fill="#000000" fill-opacity="1" stroke="#000000" stroke-opacity="1" stroke-width="1" stroke-linecap="square" stroke-linejoin="miter" stroke-miterlimit="2" transform="matrix(2.38095,0,0,2.38095,-21.4286,-61.9048)"
font-family="MS Shell Dlg 2" font-size="11" font-weight="400" font-style="normal" 
>
</g>

<g fill="#000000" fill-opacity="1" stroke="#000000" stroke-opacity="1" stroke-width="1" stroke-linecap="square" stroke-linejoin="miter" stroke-miterlimit="2" transform="matrix(2.38095,0,0,2.38095,-21.4286,-61.9048)"
font-family="MS Shell Dlg 2" font-size="11" font-weight="400" font-style="normal" 
clip-path="url(#clip1737)" >
</g>

<g fill="#000000" fill-opacity="1" stroke="#000000" stroke-opacity="1" stroke-width="1" stroke-linecap="square" stroke-linejoin="miter" stroke-miterlimit="2" transform="matrix(2.38095,0,0,2.38095,-21.4286,-61.9048)"
font-family="MS Shell Dlg 2" font-size="11" font-weight="400" font-style="normal" 
clip-path="url(#clip1737)" >
</g>

<g fill="#000000" fill-opacity="1" stroke="#000000" stroke-opacity="1" stroke-width="1" stroke-linecap="square" stroke-linejoin="miter" stroke-miterlimit="2" transform="matrix(2.38095,0,0,2.38095,-21.4286,-61.9048)"
font-family="MS Shell Dlg 2" font-size="11" font-weight="400" font-style="normal" 
clip-path="url(#clip1737)" >
</g>

<g fill="#000000" fill-opacity="1" stroke="#000000" stroke-opacity="1" stroke-width="1" stroke-linecap="square" stroke-linejoin="miter" stroke-miterlimit="2" transform="matrix(2.38095,0,0,2.38095,-21.4286,-61.9048)"
font-family="MS Shell Dlg 2" font-size="11" font-weight="400" font-style="normal" 
>
</g>

<g fill="#000000" fill-opacity="1" stroke="#000000" stroke-opacity="1" stroke-width="1" stroke-linecap="square" stroke-linejoin="miter" stroke-miterlimit="2" transform="matrix(2.38095,0,0,2.38095,-21.4286,-61.9048)"
font-family="MS Shell Dlg 2" font-size="11" font-weight="400" font-style="normal" 
clip-path="url(#clip1737)" >
</g>

<g fill="#000000" fill-opacity="1" stroke="#000000" stroke-opacity="1" stroke-width="1" stroke-linecap="square" stroke-linejoin="miter" stroke-miterlimit="2" transform="matrix(2.38095,0,0,2.38095,-21.4286,-61.9048)"
font-family="MS Shell Dlg 2" font-size="11" font-weight="400" font-style="normal" 
clip-path="url(#clip1737)" >
</g>

<g fill="#000000" fill-opacity="1" stroke="#000000" stroke-opacity="1" stroke-width="1" stroke-linecap="square" stroke-linejoin="miter" stroke-miterlimit="2" transform="matrix(2.38095,0,0,2.38095,-21.4286,-61.9048)"
font-family="MS Shell Dlg 2" font-size="11" font-weight="400" font-style="normal" 
>
</g>

<g fill="#000000" fill-opacity="1" stroke="#000000" stroke-opacity="1" stroke-width="1" stroke-linecap="square" stroke-linejoin="miter" stroke-miterlimit="2" transform="matrix(2.38095,0,0,2.38095,-21.4286,-61.9048)"
font-family="MS Shell Dlg 2" font-size="11" font-weight="400" font-style="normal" 
clip-path="url(#clip1737)" >
</g>

<g fill="#000000" fill-opacity="1" stroke="#000000" stroke-opacity="1" stroke-width="1" stroke-linecap="square" stroke-linejoin="miter" stroke-miterlimit="2" transform="matrix(2.38095,0,0,2.38095,-21.4286,-61.9048)"
font-family="MS Shell Dlg 2" font-size="11" font-weight="400" font-style="normal" 
clip-path="url(#clip1737)" >
</g>

<g fill="#000000" fill-opacity="1" stroke="#000000" stroke-opacity="1" stroke-width="1" stroke-linecap="square" stroke-linejoin="miter" stroke-miterlimit="2" transform="matrix(1,0,0,1,0,0)"
font-family="MS Shell Dlg 2" font-size="11" font-weight="400" font-style="normal" 
clip-path="url(#clip1737)" >
</g>

<g fill="#000000" fill-opacity="1" stroke="#000000" stroke-opacity="1" stroke-width="1" stroke-linecap="square" stroke-linejoin="miter" stroke-miterlimit="2" transform="matrix(2.38095,0,0,2.38095,16.6667,4.7619)"
font-family="MS Shell Dlg 2" font-size="11" font-weight="400" font-style="normal" 
clip-path="url(#clip1737)" >
</g>

<g fill="none" stroke="#000000" stroke-opacity="1" stroke-width="1" stroke-linecap="square" stroke-linejoin="bevel" transform="matrix(2.38095,0,0,2.38095,-21.4286,-61.9048)"
font-family="Helvetica" font-size="16" font-weight="400" font-style="normal" 
clip-path="url(#clip1737)" >
</g>

<g fill="none" stroke="#000000" stroke-opacity="1" stroke-width="1" stroke-linecap="square" stroke-linejoin="bevel" transform="matrix(2.38095,0,0,2.38095,-21.4286,-61.9048)"
font-family="Helvetica" font-size="16" font-weight="400" font-style="normal" 
clip-path="url(#clip1738)" >
<defs><clipPath id="clip1738"><path vector-effect="non-scaling-stroke" fill-rule="evenodd" d="M-7,-2 L77,-2 L77,48 L-7,48 L-7,-2z "/>
</clipPath></defs></g>

<g fill="none" stroke="#000000" stroke-opacity="1" stroke-width="1" stroke-linecap="square" stroke-linejoin="bevel" transform="matrix(1,0,0,1,0,0)"
font-family="Helvetica" font-size="16" font-weight="400" font-style="normal" 
clip-path="url(#clip1738)" >
</g>

<g fill="none" stroke="#000000" stroke-opacity="1" stroke-width="1" stroke-linecap="square" stroke-linejoin="bevel" transform="matrix(2.38095,0,0,2.38095,16.6667,4.7619)"
font-family="Helvetica" font-size="16" font-weight="400" font-style="normal" 
clip-path="url(#clip1738)" >
</g>

<g fill="none" stroke="#000000" stroke-opacity="1" stroke-width="1" stroke-linecap="square" stroke-linejoin="bevel" transform="matrix(2.38095,0,0,2.38095,16.6667,4.7619)"
font-family="Helvetica" font-size="16" font-weight="400" font-style="normal" 
clip-path="url(#clip1738)" >
</g>

<g fill="none" stroke="#000000" stroke-opacity="1" stroke-width="1" stroke-linecap="square" stroke-linejoin="bevel" transform="matrix(2.38095,0,0,2.38095,16.6667,4.7619)"
font-family="Helvetica" font-size="16" font-weight="400" font-style="normal" 
clip-path="url(#clip1739)" >
<defs><clipPath id="clip1739"><path vector-effect="non-scaling-stroke" fill-rule="evenodd" d="M0,0 L70,0 L70,46 L0,46 L0,0z "/>
</clipPath></defs></g>

<g fill="none" stroke="#000000" stroke-opacity="1" stroke-width="1" stroke-linecap="square" stroke-linejoin="bevel" transform="matrix(2.38095,0,0,2.38095,23.8095,59.5238)"
font-family="Helvetica" font-size="9" font-weight="400" font-style="normal" 
clip-path="url(#clip1740)" >
<defs><clipPath id="clip1740"><path vector-effect="none" fill-rule="evenodd" d="M-3,-23 L67,-23 L67,23 L-3,23 L-3,-23z "/>
</clipPath></defs></g>

<g fill="none" stroke="#000000" stroke-opacity="1" stroke-width="1" stroke-linecap="square" stroke-linejoin="bevel" transform="matrix(2.38095,0,0,2.38095,23.8095,59.5238)"
font-family="Helvetica" font-size="9" font-weight="400" font-style="normal" 
clip-path="url(#clip1740)" >
<text textLength="5" fill="#000000" fill-opacity="1" stroke="none" xml:space="preserve" x="0" y="3" font-family="Helvetica" font-size="9" font-weight="400" font-style="normal" 
 >u</text>
</g>

<g fill="none" stroke="#000000" stroke-opacity="1" stroke-width="1" stroke-linecap="square" stroke-linejoin="bevel" transform="matrix(2.38095,0,0,2.38095,23.8095,59.5238)"
font-family="Helvetica" font-size="9" font-weight="400" font-style="normal" 
clip-path="url(#clip1740)" >
</g>

<g fill="none" stroke="#000000" stroke-opacity="1" stroke-width="1" stroke-linecap="square" stroke-linejoin="bevel" transform="matrix(2.38095,0,0,2.38095,176.19,59.5238)"
font-family="Helvetica" font-size="9" font-weight="400" font-style="normal" 
clip-path="url(#clip1741)" >
<defs><clipPath id="clip1741"><path vector-effect="none" fill-rule="evenodd" d="M-67,-23 L3,-23 L3,23 L-67,23 L-67,-23z "/>
</clipPath></defs></g>

<g fill="none" stroke="#000000" stroke-opacity="1" stroke-width="1" stroke-linecap="square" stroke-linejoin="bevel" transform="matrix(2.38095,0,0,2.38095,176.19,59.5238)"
font-family="Helvetica" font-size="9" font-weight="400" font-style="normal" 
clip-path="url(#clip1741)" >
<text textLength="6" fill="#000000" fill-opacity="1" stroke="none" xml:space="preserve" x="-6" y="3" font-family="Helvetica" font-size="9" font-weight="400" font-style="normal" 
 >y</text>
</g>

<g fill="none" stroke="#000000" stroke-opacity="1" stroke-width="1" stroke-linecap="square" stroke-linejoin="bevel" transform="matrix(2.38095,0,0,2.38095,176.19,59.5238)"
font-family="Helvetica" font-size="9" font-weight="400" font-style="normal" 
clip-path="url(#clip1741)" >
</g>

<g fill="none" stroke="#000000" stroke-opacity="1" stroke-width="1" stroke-linecap="square" stroke-linejoin="bevel" transform="matrix(2.38095,0,0,2.38095,176.19,59.5238)"
font-family="Helvetica" font-size="9" font-weight="400" font-style="normal" 
clip-path="url(#clip1742)" >
<defs><clipPath id="clip1742"><path vector-effect="none" fill-rule="evenodd" d="M-7,-2 L77,-2 L77,48 L-7,48 L-7,-2z "/>
</clipPath></defs></g>

<g fill="none" stroke="#000000" stroke-opacity="1" stroke-width="1" stroke-linecap="square" stroke-linejoin="bevel" transform="matrix(1,0,0,1,0,0)"
font-family="Helvetica" font-size="9" font-weight="400" font-style="normal" 
clip-path="url(#clip1742)" >
</g>

<g fill="none" stroke="#000000" stroke-opacity="1" stroke-width="1" stroke-linecap="square" stroke-linejoin="bevel" transform="matrix(2.38095,0,0,2.38095,16.6667,4.7619)"
font-family="Helvetica" font-size="16" font-weight="400" font-style="normal" 
clip-path="url(#clip1742)" >
</g>

<g fill="none" stroke="#000000" stroke-opacity="1" stroke-width="1" stroke-linecap="square" stroke-linejoin="bevel" transform="matrix(2.38095,0,0,2.38095,16.6667,4.7619)"
font-family="Helvetica" font-size="16" font-weight="400" font-style="normal" 
clip-path="url(#clip1742)" >
</g>

<g fill="none" stroke="#000000" stroke-opacity="1" stroke-width="1.41361" stroke-linecap="butt" stroke-linejoin="miter" stroke-miterlimit="2" transform="matrix(2.38095,0,0,2.38095,16.6667,4.7619)"
font-family="Helvetica" font-size="16" font-weight="400" font-style="normal" 
clip-path="url(#clip1742)" >
<path vector-effect="none" fill-rule="evenodd" d="M0,0 L70,0 L70,46 L0,46 L0,0z "/>
</g>

<g fill="none" stroke="#000000" stroke-opacity="1" stroke-width="1" stroke-linecap="square" stroke-linejoin="bevel" transform="matrix(2.38095,0,0,2.38095,16.6667,4.7619)"
font-family="Helvetica" font-size="16" font-weight="400" font-style="normal" 
clip-path="url(#clip1742)" >
</g>

<g fill="none" stroke="#000000" stroke-opacity="1" stroke-width="1" stroke-linecap="square" stroke-linejoin="bevel" transform="matrix(1,0,0,1,0,0)"
font-family="Helvetica" font-size="16" font-weight="400" font-style="normal" 
>
</g>

<g fill="none" stroke="#000000" stroke-opacity="1" stroke-width="1" stroke-linecap="square" stroke-linejoin="bevel" transform="matrix(1,0,0,1,0,0)"
font-family="Helvetica" font-size="16" font-weight="400" font-style="normal" 
>
</g>

<g fill="none" stroke="#000000" stroke-opacity="1" stroke-width="1" stroke-linecap="square" stroke-linejoin="bevel" transform="matrix(1,0,0,1,0,0)"
font-family="Helvetica" font-size="16" font-weight="400" font-style="normal" 
clip-path="url(#clip1743)" >
<defs><clipPath id="clip1743"><path vector-effect="non-scaling-stroke" fill-rule="evenodd" d="M0,0 L200,0 L200,119 L0,119 L0,0z "/>
</clipPath></defs></g>

<g fill="none" stroke="#000000" stroke-opacity="1" stroke-width="1" stroke-linecap="square" stroke-linejoin="bevel" transform="matrix(1,0,0,1,0,0)"
font-family="Helvetica" font-size="16" font-weight="400" font-style="normal" 
>
</g>

<g fill="none" stroke="#000000" stroke-opacity="1" stroke-width="1" stroke-linecap="square" stroke-linejoin="bevel" transform="matrix(1,0,0,1,0,0)"
font-family="Helvetica" font-size="16" font-weight="400" font-style="normal" 
>
</g>

<g fill="none" stroke="#000000" stroke-opacity="1" stroke-width="1" stroke-linecap="square" stroke-linejoin="bevel" transform="matrix(1,0,0,1,0,0)"
font-family="Helvetica" font-size="16" font-weight="400" font-style="normal" 
clip-path="url(#clip1744)" >
<defs><clipPath id="clip1744"><path vector-effect="non-scaling-stroke" fill-rule="evenodd" d="M0,0 L1,0 L1,1 L0,1 L0,0z "/>
</clipPath></defs></g>

<g fill="none" stroke="#000000" stroke-opacity="1" stroke-width="1" stroke-linecap="square" stroke-linejoin="bevel" transform="matrix(1,0,0,1,0,0)"
font-family="Helvetica" font-size="16" font-weight="400" font-style="normal" 
>
</g>

<g fill="none" stroke="#000000" stroke-opacity="1" stroke-width="1" stroke-linecap="square" stroke-linejoin="bevel" transform="matrix(1,0,0,1,0,0)"
font-family="Helvetica" font-size="16" font-weight="400" font-style="normal" 
>
</g>
</g>
</svg>
