<?xml version="1.0" encoding="UTF-8" standalone="no"?>
<svg width="67.7333mm" height="26.0773mm"
 viewBox="0 0 200 77"
 xmlns="http://www.w3.org/2000/svg" xmlns:xlink="http://www.w3.org/1999/xlink"  version="1.2" baseProfile="tiny">
<defs>
</defs>
<g fill="none" stroke="black" stroke-width="1" fill-rule="evenodd" stroke-linecap="square" stroke-linejoin="bevel" >

<g fill="#ffffff" fill-opacity="0" stroke="none" transform="matrix(1,0,0,1,0,0)"
font-family="Nimbus Sans L" font-size="12.5" font-weight="400" font-style="normal" 
>
<path vector-effect="non-scaling-stroke" fill-rule="evenodd" d="M0,0 L200,0 L200,77 L0,77 L0,0z "/>
</g>

<g fill="none" stroke="#000000" stroke-opacity="1" stroke-width="1" stroke-linecap="square" stroke-linejoin="bevel" transform="matrix(1,0,0,1,0,0)"
font-family="Nimbus Sans L" font-size="12.5" font-weight="400" font-style="normal" 
>
</g>

<g fill="none" stroke="#000000" stroke-opacity="1" stroke-width="1" stroke-linecap="square" stroke-linejoin="bevel" transform="matrix(1,0,0,1,0,0)"
font-family="Nimbus Sans L" font-size="12.5" font-weight="400" font-style="normal" 
clip-path="url(#clip41)" >
<defs><clipPath id="clip41"><path vector-effect="non-scaling-stroke" fill-rule="evenodd" d="M0,0 L200,0 L200,77.0642 L0,77.0642 L0,0z "/>
</clipPath></defs></g>

<g fill="none" stroke="#000000" stroke-opacity="1" stroke-width="1" stroke-linecap="square" stroke-linejoin="bevel" transform="matrix(1.83486,0,0,1.83486,187.156,38.5321)"
font-family="Nimbus Sans L" font-size="12.5" font-weight="400" font-style="normal" 
clip-path="url(#clip42)" >
<defs><clipPath id="clip42"><path vector-effect="non-scaling-stroke" fill-rule="evenodd" d="M-102,-21 L7,-21 L7,21 L-102,21 L-102,-21z "/>
</clipPath></defs></g>

<g fill="#000000" fill-opacity="0" stroke="#000000" stroke-opacity="1" stroke-width="2" stroke-linecap="round" stroke-linejoin="miter" stroke-miterlimit="2" transform="matrix(1.83486,0,0,1.83486,187.156,38.5321)"
font-family="Nimbus Sans L" font-size="12.5" font-weight="400" font-style="normal" 
clip-path="url(#clip42)" >
<path vector-effect="none" fill-rule="evenodd" d="M0,-5 L5,0 L0,5"/>
</g>

<g fill="none" stroke="#000000" stroke-opacity="1" stroke-width="1" stroke-linecap="square" stroke-linejoin="bevel" transform="matrix(1.83486,0,0,1.83486,187.156,38.5321)"
font-family="Nimbus Sans L" font-size="12.5" font-weight="400" font-style="normal" 
clip-path="url(#clip42)" >
</g>

<g fill="none" stroke="#000000" stroke-opacity="1" stroke-width="1" stroke-linecap="square" stroke-linejoin="bevel" transform="matrix(-1.83486,0,0,-1.83486,12.844,38.5321)"
font-family="Nimbus Sans L" font-size="12.5" font-weight="400" font-style="normal" 
clip-path="url(#clip43)" >
<defs><clipPath id="clip43"><path vector-effect="non-scaling-stroke" fill-rule="evenodd" d="M7,21 L-102,21 L-102,-21 L7,-21 L7,21z "/>
</clipPath></defs></g>

<g fill="#000000" fill-opacity="0" stroke="#000000" stroke-opacity="1" stroke-width="2" stroke-linecap="round" stroke-linejoin="miter" stroke-miterlimit="2" transform="matrix(-1.83486,0,0,-1.83486,12.844,38.5321)"
font-family="Nimbus Sans L" font-size="12.5" font-weight="400" font-style="normal" 
clip-path="url(#clip43)" >
<path vector-effect="none" fill-rule="evenodd" d="M5,-5 L0,0 L5,5"/>
</g>

<g fill="none" stroke="#000000" stroke-opacity="1" stroke-width="1" stroke-linecap="square" stroke-linejoin="bevel" transform="matrix(-1.83486,0,0,-1.83486,12.844,38.5321)"
font-family="Nimbus Sans L" font-size="12.5" font-weight="400" font-style="normal" 
clip-path="url(#clip43)" >
</g>

<g fill="none" stroke="#000000" stroke-opacity="1" stroke-width="1" stroke-linecap="square" stroke-linejoin="bevel" transform="matrix(1.83486,0,0,1.83486,12.844,3.66972)"
font-family="Nimbus Sans L" font-size="12.5" font-weight="400" font-style="normal" 
clip-path="url(#clip44)" >
<defs><clipPath id="clip44"><path vector-effect="non-scaling-stroke" fill-rule="evenodd" d="M-7,-2 L102,-2 L102,40 L-7,40 L-7,-2z "/>
</clipPath></defs></g>

<g fill="#ffffff" fill-opacity="1" stroke="none" transform="matrix(1.83486,0,0,1.83486,12.844,3.66972)"
font-family="Nimbus Sans L" font-size="12.5" font-weight="400" font-style="normal" 
clip-path="url(#clip44)" >
<path vector-effect="none" fill-rule="evenodd" d="M0,0 L95,0 L95,38 L0,38 L0,0z "/>
</g>

<g fill="none" stroke="#000000" stroke-opacity="1" stroke-width="1" stroke-linecap="square" stroke-linejoin="bevel" transform="matrix(1.83486,0,0,1.83486,12.844,3.66972)"
font-family="Nimbus Sans L" font-size="12.5" font-weight="400" font-style="normal" 
clip-path="url(#clip44)" >
</g>

<g fill="none" stroke="#000000" stroke-opacity="1" stroke-width="1" stroke-linecap="square" stroke-linejoin="bevel" transform="matrix(1.83486,0,0,1.83486,12.844,3.66972)"
font-family="Nimbus Sans L" font-size="12.5" font-weight="400" font-style="normal" 
clip-path="url(#clip44)" >
</g>

<g fill="none" stroke="#000000" stroke-opacity="1" stroke-width="1" stroke-linecap="square" stroke-linejoin="bevel" transform="matrix(1.83486,0,0,1.83486,12.844,3.66972)"
font-family="Nimbus Sans L" font-size="12.5" font-weight="400" font-style="normal" 
clip-path="url(#clip45)" >
<defs><clipPath id="clip45"><path vector-effect="non-scaling-stroke" fill-rule="evenodd" d="M0,0 L95,0 L95,38 L0,38 L0,0z "/>
</clipPath></defs></g>

<g fill="none" stroke="#000000" stroke-opacity="1" stroke-width="1" stroke-linecap="square" stroke-linejoin="bevel" transform="matrix(1.83486,0,0,1.83486,29.3578,60.5505)"
font-family="Liberation Sans" font-size="10" font-weight="400" font-style="normal" 
clip-path="url(#clip46)" >
<defs><clipPath id="clip46"><path vector-effect="none" fill-rule="evenodd" d="M-9,-31 L86,-31 L86,7 L-9,7 L-9,-31z "/>
</clipPath></defs></g>

<g fill="none" stroke="#000000" stroke-opacity="1" stroke-width="1" stroke-linecap="square" stroke-linejoin="bevel" transform="matrix(1.83486,0,0,1.83486,29.3578,60.5505)"
font-family="Liberation Sans" font-size="10" font-weight="400" font-style="normal" 
clip-path="url(#clip46)" >
<text textLength="14" fill="#000000" fill-opacity="1" stroke="none" xml:space="preserve" x="0" y="3" font-family="Liberation Sans" font-size="10" font-weight="400" font-style="normal" 
 >VR</text>
</g>

<g fill="none" stroke="#000000" stroke-opacity="1" stroke-width="1" stroke-linecap="square" stroke-linejoin="bevel" transform="matrix(1.83486,0,0,1.83486,29.3578,60.5505)"
font-family="Liberation Sans" font-size="10" font-weight="400" font-style="normal" 
clip-path="url(#clip46)" >
</g>

<g fill="none" stroke="#000000" stroke-opacity="1" stroke-width="1" stroke-linecap="square" stroke-linejoin="bevel" transform="matrix(1.83486,0,0,1.83486,-334.862,-52.2936)"
font-family="Liberation Sans" font-size="10" font-weight="400" font-style="normal" 
clip-path="url(#clip47)" >
<defs><clipPath id="clip47"><path vector-effect="none" fill-rule="evenodd" d="M189,30 L284,30 L284,68 L189,68 L189,30z "/>
</clipPath></defs><polyline fill="none" vector-effect="none" points="215,56 229,40 " />
</g>

<g fill="none" stroke="#000000" stroke-opacity="1" stroke-width="1" stroke-linecap="square" stroke-linejoin="bevel" transform="matrix(1.83486,0,0,1.83486,-334.862,-52.2936)"
font-family="Liberation Sans" font-size="10" font-weight="400" font-style="normal" 
clip-path="url(#clip47)" >
<polyline fill="none" vector-effect="none" points="229,40 224,41 " />
</g>

<g fill="none" stroke="#000000" stroke-opacity="1" stroke-width="1" stroke-linecap="square" stroke-linejoin="bevel" transform="matrix(1.83486,0,0,1.83486,-334.862,-52.2936)"
font-family="Liberation Sans" font-size="10" font-weight="400" font-style="normal" 
clip-path="url(#clip47)" >
<polyline fill="none" vector-effect="none" points="224,41 229,40 " />
</g>

<g fill="none" stroke="#000000" stroke-opacity="1" stroke-width="1" stroke-linecap="square" stroke-linejoin="bevel" transform="matrix(1.83486,0,0,1.83486,-334.862,-52.2936)"
font-family="Liberation Sans" font-size="10" font-weight="400" font-style="normal" 
clip-path="url(#clip47)" >
<polyline fill="none" vector-effect="none" points="229,40 229,44 " />
</g>

<g fill="none" stroke="#000000" stroke-opacity="1" stroke-width="1" stroke-linecap="square" stroke-linejoin="bevel" transform="matrix(1.83486,0,0,1.83486,-334.862,-52.2936)"
font-family="Liberation Sans" font-size="10" font-weight="400" font-style="normal" 
clip-path="url(#clip47)" >
<polyline fill="none" vector-effect="none" points="233,47 251,47 " />
</g>

<g fill="none" stroke="#000000" stroke-opacity="1" stroke-width="1" stroke-linecap="square" stroke-linejoin="bevel" transform="matrix(1.83486,0,0,1.83486,-334.862,-52.2936)"
font-family="Liberation Sans" font-size="10" font-weight="400" font-style="normal" 
clip-path="url(#clip47)" >
<polyline fill="none" vector-effect="none" points="251,47 242,44 " />
</g>

<g fill="none" stroke="#000000" stroke-opacity="1" stroke-width="1" stroke-linecap="square" stroke-linejoin="bevel" transform="matrix(1.83486,0,0,1.83486,-334.862,-52.2936)"
font-family="Liberation Sans" font-size="10" font-weight="400" font-style="normal" 
clip-path="url(#clip47)" >
<polyline fill="none" vector-effect="none" points="242,44 251,47 " />
</g>

<g fill="none" stroke="#000000" stroke-opacity="1" stroke-width="1" stroke-linecap="square" stroke-linejoin="bevel" transform="matrix(1.83486,0,0,1.83486,-334.862,-52.2936)"
font-family="Liberation Sans" font-size="10" font-weight="400" font-style="normal" 
clip-path="url(#clip47)" >
<polyline fill="none" vector-effect="none" points="251,47 242,50 " />
</g>

<g fill="none" stroke="#000000" stroke-opacity="1" stroke-width="1" stroke-linecap="square" stroke-linejoin="bevel" transform="matrix(1.83486,0,0,1.83486,-334.862,-52.2936)"
font-family="Liberation Sans" font-size="10" font-weight="400" font-style="normal" 
clip-path="url(#clip47)" >
<polyline fill="none" vector-effect="none" points="269,55 264,54 " />
</g>

<g fill="none" stroke="#000000" stroke-opacity="1" stroke-width="1" stroke-linecap="square" stroke-linejoin="bevel" transform="matrix(1.83486,0,0,1.83486,-334.862,-52.2936)"
font-family="Liberation Sans" font-size="10" font-weight="400" font-style="normal" 
clip-path="url(#clip47)" >
<polyline fill="none" vector-effect="none" points="264,54 262,53 " />
</g>

<g fill="none" stroke="#000000" stroke-opacity="1" stroke-width="1" stroke-linecap="square" stroke-linejoin="bevel" transform="matrix(1.83486,0,0,1.83486,-334.862,-52.2936)"
font-family="Liberation Sans" font-size="10" font-weight="400" font-style="normal" 
clip-path="url(#clip47)" >
<polyline fill="none" vector-effect="none" points="262,53 260,51 " />
</g>

<g fill="none" stroke="#000000" stroke-opacity="1" stroke-width="1" stroke-linecap="square" stroke-linejoin="bevel" transform="matrix(1.83486,0,0,1.83486,-334.862,-52.2936)"
font-family="Liberation Sans" font-size="10" font-weight="400" font-style="normal" 
clip-path="url(#clip47)" >
<polyline fill="none" vector-effect="none" points="260,51 258,48 " />
</g>

<g fill="none" stroke="#000000" stroke-opacity="1" stroke-width="1" stroke-linecap="square" stroke-linejoin="bevel" transform="matrix(1.83486,0,0,1.83486,-334.862,-52.2936)"
font-family="Liberation Sans" font-size="10" font-weight="400" font-style="normal" 
clip-path="url(#clip47)" >
<polyline fill="none" vector-effect="none" points="258,48 258,47 " />
</g>

<g fill="none" stroke="#000000" stroke-opacity="1" stroke-width="1" stroke-linecap="square" stroke-linejoin="bevel" transform="matrix(1.83486,0,0,1.83486,-334.862,-52.2936)"
font-family="Liberation Sans" font-size="10" font-weight="400" font-style="normal" 
clip-path="url(#clip47)" >
<polyline fill="none" vector-effect="none" points="258,47 260,44 " />
</g>

<g fill="none" stroke="#000000" stroke-opacity="1" stroke-width="1" stroke-linecap="square" stroke-linejoin="bevel" transform="matrix(1.83486,0,0,1.83486,-334.862,-52.2936)"
font-family="Liberation Sans" font-size="10" font-weight="400" font-style="normal" 
clip-path="url(#clip47)" >
<polyline fill="none" vector-effect="none" points="260,44 264,42 " />
</g>

<g fill="none" stroke="#000000" stroke-opacity="1" stroke-width="1" stroke-linecap="square" stroke-linejoin="bevel" transform="matrix(1.83486,0,0,1.83486,-334.862,-52.2936)"
font-family="Liberation Sans" font-size="10" font-weight="400" font-style="normal" 
clip-path="url(#clip47)" >
<polyline fill="none" vector-effect="none" points="264,42 269,42 " />
</g>

<g fill="none" stroke="#000000" stroke-opacity="1" stroke-width="1" stroke-linecap="square" stroke-linejoin="bevel" transform="matrix(1.83486,0,0,1.83486,-334.862,-52.2936)"
font-family="Liberation Sans" font-size="10" font-weight="400" font-style="normal" 
clip-path="url(#clip47)" >
<polyline fill="none" vector-effect="none" points="269,42 273,44 " />
</g>

<g fill="none" stroke="#000000" stroke-opacity="1" stroke-width="1" stroke-linecap="square" stroke-linejoin="bevel" transform="matrix(1.83486,0,0,1.83486,-334.862,-52.2936)"
font-family="Liberation Sans" font-size="10" font-weight="400" font-style="normal" 
clip-path="url(#clip47)" >
<polyline fill="none" vector-effect="none" points="273,44 275,45 " />
</g>

<g fill="none" stroke="#000000" stroke-opacity="1" stroke-width="1" stroke-linecap="square" stroke-linejoin="bevel" transform="matrix(1.83486,0,0,1.83486,-334.862,-52.2936)"
font-family="Liberation Sans" font-size="10" font-weight="400" font-style="normal" 
clip-path="url(#clip47)" >
<polyline fill="none" vector-effect="none" points="275,45 278,47 " />
</g>

<g fill="none" stroke="#000000" stroke-opacity="1" stroke-width="1" stroke-linecap="square" stroke-linejoin="bevel" transform="matrix(1.83486,0,0,1.83486,-334.862,-52.2936)"
font-family="Liberation Sans" font-size="10" font-weight="400" font-style="normal" 
clip-path="url(#clip47)" >
<polyline fill="none" vector-effect="none" points="278,47 278,44 " />
</g>

<g fill="none" stroke="#000000" stroke-opacity="1" stroke-width="1" stroke-linecap="square" stroke-linejoin="bevel" transform="matrix(1.83486,0,0,1.83486,-334.862,-52.2936)"
font-family="Liberation Sans" font-size="10" font-weight="400" font-style="normal" 
clip-path="url(#clip47)" >
<polyline fill="none" vector-effect="none" points="278,44 278,47 " />
</g>

<g fill="none" stroke="#000000" stroke-opacity="1" stroke-width="1" stroke-linecap="square" stroke-linejoin="bevel" transform="matrix(1.83486,0,0,1.83486,-334.862,-52.2936)"
font-family="Liberation Sans" font-size="10" font-weight="400" font-style="normal" 
clip-path="url(#clip47)" >
<polyline fill="none" vector-effect="none" points="278,47 274,47 " />
</g>

<g fill="none" stroke="#000000" stroke-opacity="1" stroke-width="1" stroke-linecap="square" stroke-linejoin="bevel" transform="matrix(1.83486,0,0,1.83486,-334.862,-52.2936)"
font-family="Liberation Sans" font-size="10" font-weight="400" font-style="normal" 
clip-path="url(#clip47)" >
<polyline fill="none" vector-effect="none" points="260,56 273,40 " />
</g>

<g fill="none" stroke="#000000" stroke-opacity="1" stroke-width="1" stroke-linecap="square" stroke-linejoin="bevel" transform="matrix(1.83486,0,0,1.83486,-334.862,-52.2936)"
font-family="Liberation Sans" font-size="10" font-weight="400" font-style="normal" 
clip-path="url(#clip48)" >
<defs><clipPath id="clip48"><path vector-effect="none" fill-rule="evenodd" d="M-7,-2 L102,-2 L102,40 L-7,40 L-7,-2z "/>
</clipPath></defs></g>

<g fill="none" stroke="#000000" stroke-opacity="1" stroke-width="1" stroke-linecap="square" stroke-linejoin="bevel" transform="matrix(1,0,0,1,0,0)"
font-family="Liberation Sans" font-size="10" font-weight="400" font-style="normal" 
clip-path="url(#clip48)" >
</g>

<g fill="none" stroke="#000000" stroke-opacity="1" stroke-width="1" stroke-linecap="square" stroke-linejoin="bevel" transform="matrix(1.83486,0,0,1.83486,12.844,3.66972)"
font-family="Nimbus Sans L" font-size="12.5" font-weight="400" font-style="normal" 
clip-path="url(#clip48)" >
</g>

<g fill="none" stroke="#000000" stroke-opacity="1" stroke-width="1" stroke-linecap="square" stroke-linejoin="bevel" transform="matrix(1.83486,0,0,1.83486,12.844,3.66972)"
font-family="Nimbus Sans L" font-size="12.5" font-weight="400" font-style="normal" 
clip-path="url(#clip48)" >
</g>

<g fill="none" stroke="#000000" stroke-opacity="1" stroke-width="0.784438" stroke-linecap="butt" stroke-linejoin="miter" stroke-miterlimit="2" transform="matrix(1.83486,0,0,1.83486,12.844,3.66972)"
font-family="Nimbus Sans L" font-size="12.5" font-weight="400" font-style="normal" 
clip-path="url(#clip48)" >
<path vector-effect="none" fill-rule="evenodd" d="M0,0 L95,0 L95,38 L0,38 L0,0z "/>
</g>

<g fill="none" stroke="#000000" stroke-opacity="1" stroke-width="1" stroke-linecap="square" stroke-linejoin="bevel" transform="matrix(1.83486,0,0,1.83486,12.844,3.66972)"
font-family="Nimbus Sans L" font-size="12.5" font-weight="400" font-style="normal" 
clip-path="url(#clip48)" >
</g>

<g fill="none" stroke="#000000" stroke-opacity="1" stroke-width="1" stroke-linecap="square" stroke-linejoin="bevel" transform="matrix(1,0,0,1,0,0)"
font-family="Nimbus Sans L" font-size="12.5" font-weight="400" font-style="normal" 
>
</g>

<g fill="none" stroke="#000000" stroke-opacity="1" stroke-width="1" stroke-linecap="square" stroke-linejoin="bevel" transform="matrix(1,0,0,1,0,0)"
font-family="Nimbus Sans L" font-size="12.5" font-weight="400" font-style="normal" 
>
</g>

<g fill="none" stroke="#000000" stroke-opacity="1" stroke-width="1" stroke-linecap="square" stroke-linejoin="bevel" transform="matrix(1,0,0,1,0,0)"
font-family="Nimbus Sans L" font-size="12.5" font-weight="400" font-style="normal" 
clip-path="url(#clip49)" >
<defs><clipPath id="clip49"><path vector-effect="non-scaling-stroke" fill-rule="evenodd" d="M0,0 L200,0 L200,77 L0,77 L0,0z "/>
</clipPath></defs></g>

<g fill="none" stroke="#000000" stroke-opacity="1" stroke-width="1" stroke-linecap="square" stroke-linejoin="bevel" transform="matrix(1,0,0,1,0,0)"
font-family="Nimbus Sans L" font-size="12.5" font-weight="400" font-style="normal" 
>
</g>

<g fill="none" stroke="#000000" stroke-opacity="1" stroke-width="1" stroke-linecap="square" stroke-linejoin="bevel" transform="matrix(1,0,0,1,0,0)"
font-family="Nimbus Sans L" font-size="12.5" font-weight="400" font-style="normal" 
>
</g>

<g fill="none" stroke="#000000" stroke-opacity="1" stroke-width="1" stroke-linecap="square" stroke-linejoin="bevel" transform="matrix(1,0,0,1,0,0)"
font-family="Nimbus Sans L" font-size="12.5" font-weight="400" font-style="normal" 
clip-path="url(#clip50)" >
<defs><clipPath id="clip50"><path vector-effect="non-scaling-stroke" fill-rule="evenodd" d="M0,0 L1,0 L1,1 L0,1 L0,0z "/>
</clipPath></defs></g>

<g fill="none" stroke="#000000" stroke-opacity="1" stroke-width="1" stroke-linecap="square" stroke-linejoin="bevel" transform="matrix(1,0,0,1,0,0)"
font-family="Nimbus Sans L" font-size="12.5" font-weight="400" font-style="normal" 
>
</g>

<g fill="none" stroke="#000000" stroke-opacity="1" stroke-width="1" stroke-linecap="square" stroke-linejoin="bevel" transform="matrix(1,0,0,1,0,0)"
font-family="Nimbus Sans L" font-size="12.5" font-weight="400" font-style="normal" 
>
</g>
</g>
</svg>
