<?xml version="1.0" encoding="UTF-8" standalone="no"?>
<svg width="67.7333mm" height="35.56mm"
 viewBox="0 0 200 105"
 xmlns="http://www.w3.org/2000/svg" xmlns:xlink="http://www.w3.org/1999/xlink"  version="1.2" baseProfile="tiny">
<defs>
</defs>
<g fill="none" stroke="black" stroke-width="1" fill-rule="evenodd" stroke-linecap="square" stroke-linejoin="bevel" >

<g fill="#ffffff" fill-opacity="0" stroke="none" transform="matrix(1,0,0,1,0,0)"
font-family="Nimbus Sans L" font-size="12.5" font-weight="400" font-style="normal" 
>
<path vector-effect="non-scaling-stroke" fill-rule="evenodd" d="M0,0 L200,0 L200,105 L0,105 L0,0z "/>
</g>

<g fill="none" stroke="#000000" stroke-opacity="1" stroke-width="1" stroke-linecap="square" stroke-linejoin="bevel" transform="matrix(1,0,0,1,0,0)"
font-family="Nimbus Sans L" font-size="12.5" font-weight="400" font-style="normal" 
>
</g>

<g fill="none" stroke="#000000" stroke-opacity="1" stroke-width="1" stroke-linecap="square" stroke-linejoin="bevel" transform="matrix(1,0,0,1,0,0)"
font-family="Nimbus Sans L" font-size="12.5" font-weight="400" font-style="normal" 
clip-path="url(#clip126)" >
<defs><clipPath id="clip126"><path vector-effect="non-scaling-stroke" fill-rule="evenodd" d="M0,0 L200,0 L200,105.455 L0,105.455 L0,0z "/>
</clipPath></defs></g>

<g fill="none" stroke="#000000" stroke-opacity="1" stroke-width="1" stroke-linecap="square" stroke-linejoin="bevel" transform="matrix(1.81818,0,0,1.81818,3.63636,3.63636)"
font-family="Nimbus Sans L" font-size="12.5" font-weight="400" font-style="normal" 
clip-path="url(#clip127)" >
<defs><clipPath id="clip127"><path vector-effect="non-scaling-stroke" fill-rule="evenodd" d="M-2,-2 L108,-2 L108,56 L-2,56 L-2,-2z "/>
</clipPath></defs></g>

<g fill="#ff42d1" fill-opacity="1" stroke="none" transform="matrix(1.81818,0,0,1.81818,3.63636,3.63636)"
font-family="Nimbus Sans L" font-size="12.5" font-weight="400" font-style="normal" 
clip-path="url(#clip127)" >
<path vector-effect="none" fill-rule="evenodd" d="M0,0 L106,0 L106,54 L0,54 L0,0z "/>
</g>

<g fill="none" stroke="#000000" stroke-opacity="1" stroke-width="1" stroke-linecap="square" stroke-linejoin="bevel" transform="matrix(1.81818,0,0,1.81818,3.63636,3.63636)"
font-family="Nimbus Sans L" font-size="12.5" font-weight="400" font-style="normal" 
clip-path="url(#clip127)" >
</g>

<g fill="none" stroke="#000000" stroke-opacity="1" stroke-width="1" stroke-linecap="square" stroke-linejoin="bevel" transform="matrix(1.81818,0,0,1.81818,3.63636,3.63636)"
font-family="Nimbus Sans L" font-size="12.5" font-weight="400" font-style="normal" 
clip-path="url(#clip127)" >
</g>

<g fill="none" stroke="#000000" stroke-opacity="1" stroke-width="1" stroke-linecap="square" stroke-linejoin="bevel" transform="matrix(1.81818,0,0,1.81818,3.63636,3.63636)"
font-family="Nimbus Sans L" font-size="12.5" font-weight="400" font-style="normal" 
clip-path="url(#clip128)" >
<defs><clipPath id="clip128"><path vector-effect="non-scaling-stroke" fill-rule="evenodd" d="M0,0 L106,0 L106,54 L0,54 L0,0z "/>
</clipPath></defs></g>

<g fill="none" stroke="#000000" stroke-opacity="1" stroke-width="1" stroke-linecap="square" stroke-linejoin="bevel" transform="matrix(1.81818,0,0,1.81818,100,41.8182)"
font-family="Liberation Sans" font-size="12" font-weight="700" font-style="normal" 
clip-path="url(#clip129)" >
<defs><clipPath id="clip129"><path vector-effect="none" fill-rule="evenodd" d="M-53,-21 L53,-21 L53,33 L-53,33 L-53,-21z "/>
</clipPath></defs></g>

<g fill="none" stroke="#000000" stroke-opacity="1" stroke-width="1" stroke-linecap="square" stroke-linejoin="bevel" transform="matrix(1.81818,0,0,1.81818,100,41.8182)"
font-family="Liberation Sans" font-size="12" font-weight="700" font-style="normal" 
clip-path="url(#clip129)" >
<text textLength="76" fill="#000000" fill-opacity="1" stroke="none" xml:space="preserve" x="-38" y="4" font-family="Liberation Sans" font-size="12" font-weight="700" font-style="normal" 
 >Custom Code</text>
</g>

<g fill="none" stroke="#000000" stroke-opacity="1" stroke-width="1" stroke-linecap="square" stroke-linejoin="bevel" transform="matrix(1.81818,0,0,1.81818,100,41.8182)"
font-family="Liberation Sans" font-size="12" font-weight="700" font-style="normal" 
clip-path="url(#clip129)" >
</g>

<g fill="none" stroke="#000000" stroke-opacity="1" stroke-width="1" stroke-linecap="square" stroke-linejoin="bevel" transform="matrix(1.81818,0,0,1.81818,100,65.4545)"
font-family="Liberation Sans" font-size="12" font-weight="700" font-style="normal" 
clip-path="url(#clip130)" >
<defs><clipPath id="clip130"><path vector-effect="none" fill-rule="evenodd" d="M-53,-34 L53,-34 L53,20 L-53,20 L-53,-34z "/>
</clipPath></defs></g>

<g fill="none" stroke="#000000" stroke-opacity="1" stroke-width="1" stroke-linecap="square" stroke-linejoin="bevel" transform="matrix(1.81818,0,0,1.81818,100,65.4545)"
font-family="Liberation Sans" font-size="12" font-weight="700" font-style="normal" 
clip-path="url(#clip130)" >
<text textLength="41" fill="#000000" fill-opacity="1" stroke="none" xml:space="preserve" x="-20" y="4" font-family="Liberation Sans" font-size="12" font-weight="700" font-style="normal" 
 >Library</text>
</g>

<g fill="none" stroke="#000000" stroke-opacity="1" stroke-width="1" stroke-linecap="square" stroke-linejoin="bevel" transform="matrix(1.81818,0,0,1.81818,100,65.4545)"
font-family="Liberation Sans" font-size="12" font-weight="700" font-style="normal" 
clip-path="url(#clip130)" >
</g>

<g fill="none" stroke="#000000" stroke-opacity="1" stroke-width="1" stroke-linecap="square" stroke-linejoin="bevel" transform="matrix(1.81818,0,0,1.81818,100,65.4545)"
font-family="Liberation Sans" font-size="12" font-weight="700" font-style="normal" 
clip-path="url(#clip131)" >
<defs><clipPath id="clip131"><path vector-effect="none" fill-rule="evenodd" d="M-2,-2 L108,-2 L108,56 L-2,56 L-2,-2z "/>
</clipPath></defs></g>

<g fill="none" stroke="#000000" stroke-opacity="1" stroke-width="1" stroke-linecap="square" stroke-linejoin="bevel" transform="matrix(1,0,0,1,0,0)"
font-family="Liberation Sans" font-size="12" font-weight="700" font-style="normal" 
clip-path="url(#clip131)" >
</g>

<g fill="none" stroke="#000000" stroke-opacity="1" stroke-width="1" stroke-linecap="square" stroke-linejoin="bevel" transform="matrix(1.81818,0,0,1.81818,3.63636,3.63636)"
font-family="Nimbus Sans L" font-size="12.5" font-weight="400" font-style="normal" 
clip-path="url(#clip131)" >
</g>

<g fill="none" stroke="#000000" stroke-opacity="1" stroke-width="1" stroke-linecap="square" stroke-linejoin="bevel" transform="matrix(1.81818,0,0,1.81818,3.63636,3.63636)"
font-family="Nimbus Sans L" font-size="12.5" font-weight="400" font-style="normal" 
clip-path="url(#clip131)" >
</g>

<g fill="none" stroke="#000000" stroke-opacity="1" stroke-width="0.787309" stroke-linecap="butt" stroke-linejoin="miter" stroke-miterlimit="2" transform="matrix(1.81818,0,0,1.81818,3.63636,3.63636)"
font-family="Nimbus Sans L" font-size="12.5" font-weight="400" font-style="normal" 
clip-path="url(#clip131)" >
<path vector-effect="none" fill-rule="evenodd" d="M0,0 L106,0 L106,54 L0,54 L0,0z "/>
</g>

<g fill="none" stroke="#000000" stroke-opacity="1" stroke-width="1" stroke-linecap="square" stroke-linejoin="bevel" transform="matrix(1.81818,0,0,1.81818,3.63636,3.63636)"
font-family="Nimbus Sans L" font-size="12.5" font-weight="400" font-style="normal" 
clip-path="url(#clip131)" >
</g>

<g fill="none" stroke="#000000" stroke-opacity="1" stroke-width="1" stroke-linecap="square" stroke-linejoin="bevel" transform="matrix(1,0,0,1,0,0)"
font-family="Nimbus Sans L" font-size="12.5" font-weight="400" font-style="normal" 
>
</g>

<g fill="none" stroke="#000000" stroke-opacity="1" stroke-width="1" stroke-linecap="square" stroke-linejoin="bevel" transform="matrix(1,0,0,1,0,0)"
font-family="Nimbus Sans L" font-size="12.5" font-weight="400" font-style="normal" 
>
</g>

<g fill="none" stroke="#000000" stroke-opacity="1" stroke-width="1" stroke-linecap="square" stroke-linejoin="bevel" transform="matrix(1,0,0,1,0,0)"
font-family="Nimbus Sans L" font-size="12.5" font-weight="400" font-style="normal" 
clip-path="url(#clip132)" >
<defs><clipPath id="clip132"><path vector-effect="non-scaling-stroke" fill-rule="evenodd" d="M0,0 L200,0 L200,105 L0,105 L0,0z "/>
</clipPath></defs></g>

<g fill="none" stroke="#000000" stroke-opacity="1" stroke-width="1" stroke-linecap="square" stroke-linejoin="bevel" transform="matrix(1,0,0,1,0,0)"
font-family="Nimbus Sans L" font-size="12.5" font-weight="400" font-style="normal" 
>
</g>

<g fill="none" stroke="#000000" stroke-opacity="1" stroke-width="1" stroke-linecap="square" stroke-linejoin="bevel" transform="matrix(1,0,0,1,0,0)"
font-family="Nimbus Sans L" font-size="12.5" font-weight="400" font-style="normal" 
>
</g>

<g fill="none" stroke="#000000" stroke-opacity="1" stroke-width="1" stroke-linecap="square" stroke-linejoin="bevel" transform="matrix(1,0,0,1,0,0)"
font-family="Nimbus Sans L" font-size="12.5" font-weight="400" font-style="normal" 
clip-path="url(#clip133)" >
<defs><clipPath id="clip133"><path vector-effect="non-scaling-stroke" fill-rule="evenodd" d="M0,0 L1,0 L1,1 L0,1 L0,0z "/>
</clipPath></defs></g>

<g fill="none" stroke="#000000" stroke-opacity="1" stroke-width="1" stroke-linecap="square" stroke-linejoin="bevel" transform="matrix(1,0,0,1,0,0)"
font-family="Nimbus Sans L" font-size="12.5" font-weight="400" font-style="normal" 
>
</g>

<g fill="none" stroke="#000000" stroke-opacity="1" stroke-width="1" stroke-linecap="square" stroke-linejoin="bevel" transform="matrix(1,0,0,1,0,0)"
font-family="Nimbus Sans L" font-size="12.5" font-weight="400" font-style="normal" 
>
</g>
</g>
</svg>
