<?xml version="1.0" encoding="UTF-8" standalone="no"?>
<svg width="67.7333mm" height="35.8987mm"
 viewBox="0 0 200 106"
 xmlns="http://www.w3.org/2000/svg" xmlns:xlink="http://www.w3.org/1999/xlink"  version="1.2" baseProfile="tiny">
<defs>
</defs>
<g fill="none" stroke="black" stroke-width="1" fill-rule="evenodd" stroke-linecap="square" stroke-linejoin="bevel" >

<g fill="#ffffff" fill-opacity="0" stroke="none" transform="matrix(1,0,0,1,0,0)"
font-family="Nimbus Sans L" font-size="12.5" font-weight="400" font-style="normal" 
>
<path vector-effect="non-scaling-stroke" fill-rule="evenodd" d="M0,0 L200,0 L200,106 L0,106 L0,0z "/>
</g>

<g fill="none" stroke="#000000" stroke-opacity="1" stroke-width="1" stroke-linecap="square" stroke-linejoin="bevel" transform="matrix(1,0,0,1,0,0)"
font-family="Nimbus Sans L" font-size="12.5" font-weight="400" font-style="normal" 
>
</g>

<g fill="none" stroke="#000000" stroke-opacity="1" stroke-width="1" stroke-linecap="square" stroke-linejoin="bevel" transform="matrix(1,0,0,1,0,0)"
font-family="Nimbus Sans L" font-size="12.5" font-weight="400" font-style="normal" 
clip-path="url(#clip151)" >
<defs><clipPath id="clip151"><path vector-effect="non-scaling-stroke" fill-rule="evenodd" d="M0,0 L200,0 L200,106.306 L0,106.306 L0,0z "/>
</clipPath></defs></g>

<g fill="none" stroke="#000000" stroke-opacity="1" stroke-width="1" stroke-linecap="square" stroke-linejoin="bevel" transform="matrix(1.8018,0,0,1.8018,3.6036,3.6036)"
font-family="Nimbus Sans L" font-size="12.5" font-weight="400" font-style="normal" 
clip-path="url(#clip152)" >
<defs><clipPath id="clip152"><path vector-effect="non-scaling-stroke" fill-rule="evenodd" d="M-2,-2 L109,-2 L109,57 L-2,57 L-2,-2z "/>
</clipPath></defs></g>

<g fill="#61bdfc" fill-opacity="1" stroke="none" transform="matrix(1.8018,0,0,1.8018,3.6036,3.6036)"
font-family="Nimbus Sans L" font-size="12.5" font-weight="400" font-style="normal" 
clip-path="url(#clip152)" >
<path vector-effect="none" fill-rule="evenodd" d="M0,0 L107,0 L107,55 L0,55 L0,0z "/>
</g>

<g fill="none" stroke="#000000" stroke-opacity="1" stroke-width="1" stroke-linecap="square" stroke-linejoin="bevel" transform="matrix(1.8018,0,0,1.8018,3.6036,3.6036)"
font-family="Nimbus Sans L" font-size="12.5" font-weight="400" font-style="normal" 
clip-path="url(#clip152)" >
</g>

<g fill="none" stroke="#000000" stroke-opacity="1" stroke-width="1" stroke-linecap="square" stroke-linejoin="bevel" transform="matrix(1.8018,0,0,1.8018,3.6036,3.6036)"
font-family="Nimbus Sans L" font-size="12.5" font-weight="400" font-style="normal" 
clip-path="url(#clip152)" >
</g>

<g fill="none" stroke="#000000" stroke-opacity="1" stroke-width="1" stroke-linecap="square" stroke-linejoin="bevel" transform="matrix(1.8018,0,0,1.8018,3.6036,3.6036)"
font-family="Nimbus Sans L" font-size="12.5" font-weight="400" font-style="normal" 
clip-path="url(#clip153)" >
<defs><clipPath id="clip153"><path vector-effect="non-scaling-stroke" fill-rule="evenodd" d="M0,0 L107,0 L107,55 L0,55 L0,0z "/>
</clipPath></defs></g>

<g fill="none" stroke="#000000" stroke-opacity="1" stroke-width="1" stroke-linecap="square" stroke-linejoin="bevel" transform="matrix(1.8018,0,0,1.8018,99.0991,41.4414)"
font-family="Liberation Sans" font-size="12" font-weight="700" font-style="normal" 
clip-path="url(#clip154)" >
<defs><clipPath id="clip154"><path vector-effect="none" fill-rule="evenodd" d="M-53,-21 L54,-21 L54,34 L-53,34 L-53,-21z "/>
</clipPath></defs></g>

<g fill="none" stroke="#000000" stroke-opacity="1" stroke-width="1" stroke-linecap="square" stroke-linejoin="bevel" transform="matrix(1.8018,0,0,1.8018,99.0991,41.4414)"
font-family="Liberation Sans" font-size="12" font-weight="700" font-style="normal" 
clip-path="url(#clip154)" >
<text textLength="57" fill="#000000" fill-opacity="1" stroke="none" xml:space="preserve" x="-28" y="4" font-family="Liberation Sans" font-size="12" font-weight="700" font-style="normal" 
 >Real-Time</text>
</g>

<g fill="none" stroke="#000000" stroke-opacity="1" stroke-width="1" stroke-linecap="square" stroke-linejoin="bevel" transform="matrix(1.8018,0,0,1.8018,99.0991,41.4414)"
font-family="Liberation Sans" font-size="12" font-weight="700" font-style="normal" 
clip-path="url(#clip154)" >
</g>

<g fill="none" stroke="#000000" stroke-opacity="1" stroke-width="1" stroke-linecap="square" stroke-linejoin="bevel" transform="matrix(1.8018,0,0,1.8018,99.0991,64.8649)"
font-family="Liberation Sans" font-size="12" font-weight="700" font-style="normal" 
clip-path="url(#clip155)" >
<defs><clipPath id="clip155"><path vector-effect="none" fill-rule="evenodd" d="M-53,-34 L54,-34 L54,21 L-53,21 L-53,-34z "/>
</clipPath></defs></g>

<g fill="none" stroke="#000000" stroke-opacity="1" stroke-width="1" stroke-linecap="square" stroke-linejoin="bevel" transform="matrix(1.8018,0,0,1.8018,99.0991,64.8649)"
font-family="Liberation Sans" font-size="12" font-weight="700" font-style="normal" 
clip-path="url(#clip155)" >
<text textLength="91" fill="#000000" fill-opacity="1" stroke="none" xml:space="preserve" x="-45" y="4" font-family="Liberation Sans" font-size="12" font-weight="700" font-style="normal" 
 >Windows Target</text>
</g>

<g fill="none" stroke="#000000" stroke-opacity="1" stroke-width="1" stroke-linecap="square" stroke-linejoin="bevel" transform="matrix(1.8018,0,0,1.8018,99.0991,64.8649)"
font-family="Liberation Sans" font-size="12" font-weight="700" font-style="normal" 
clip-path="url(#clip155)" >
</g>

<g fill="none" stroke="#000000" stroke-opacity="1" stroke-width="1" stroke-linecap="square" stroke-linejoin="bevel" transform="matrix(1.8018,0,0,1.8018,99.0991,64.8649)"
font-family="Liberation Sans" font-size="12" font-weight="700" font-style="normal" 
clip-path="url(#clip156)" >
<defs><clipPath id="clip156"><path vector-effect="none" fill-rule="evenodd" d="M-2,-2 L109,-2 L109,57 L-2,57 L-2,-2z "/>
</clipPath></defs></g>

<g fill="none" stroke="#000000" stroke-opacity="1" stroke-width="1" stroke-linecap="square" stroke-linejoin="bevel" transform="matrix(1,0,0,1,0,0)"
font-family="Liberation Sans" font-size="12" font-weight="700" font-style="normal" 
clip-path="url(#clip156)" >
</g>

<g fill="none" stroke="#000000" stroke-opacity="1" stroke-width="1" stroke-linecap="square" stroke-linejoin="bevel" transform="matrix(1.8018,0,0,1.8018,3.6036,3.6036)"
font-family="Nimbus Sans L" font-size="12.5" font-weight="400" font-style="normal" 
clip-path="url(#clip156)" >
</g>

<g fill="none" stroke="#000000" stroke-opacity="1" stroke-width="1" stroke-linecap="square" stroke-linejoin="bevel" transform="matrix(1.8018,0,0,1.8018,3.6036,3.6036)"
font-family="Nimbus Sans L" font-size="12.5" font-weight="400" font-style="normal" 
clip-path="url(#clip156)" >
</g>

<g fill="none" stroke="#000000" stroke-opacity="1" stroke-width="0.790164" stroke-linecap="butt" stroke-linejoin="miter" stroke-miterlimit="2" transform="matrix(1.8018,0,0,1.8018,3.6036,3.6036)"
font-family="Nimbus Sans L" font-size="12.5" font-weight="400" font-style="normal" 
clip-path="url(#clip156)" >
<path vector-effect="none" fill-rule="evenodd" d="M0,0 L107,0 L107,55 L0,55 L0,0z "/>
</g>

<g fill="none" stroke="#000000" stroke-opacity="1" stroke-width="1" stroke-linecap="square" stroke-linejoin="bevel" transform="matrix(1.8018,0,0,1.8018,3.6036,3.6036)"
font-family="Nimbus Sans L" font-size="12.5" font-weight="400" font-style="normal" 
clip-path="url(#clip156)" >
</g>

<g fill="none" stroke="#000000" stroke-opacity="1" stroke-width="1" stroke-linecap="square" stroke-linejoin="bevel" transform="matrix(1,0,0,1,0,0)"
font-family="Nimbus Sans L" font-size="12.5" font-weight="400" font-style="normal" 
>
</g>

<g fill="none" stroke="#000000" stroke-opacity="1" stroke-width="1" stroke-linecap="square" stroke-linejoin="bevel" transform="matrix(1,0,0,1,0,0)"
font-family="Nimbus Sans L" font-size="12.5" font-weight="400" font-style="normal" 
>
</g>

<g fill="none" stroke="#000000" stroke-opacity="1" stroke-width="1" stroke-linecap="square" stroke-linejoin="bevel" transform="matrix(1,0,0,1,0,0)"
font-family="Nimbus Sans L" font-size="12.5" font-weight="400" font-style="normal" 
clip-path="url(#clip157)" >
<defs><clipPath id="clip157"><path vector-effect="non-scaling-stroke" fill-rule="evenodd" d="M0,0 L200,0 L200,106 L0,106 L0,0z "/>
</clipPath></defs></g>

<g fill="none" stroke="#000000" stroke-opacity="1" stroke-width="1" stroke-linecap="square" stroke-linejoin="bevel" transform="matrix(1,0,0,1,0,0)"
font-family="Nimbus Sans L" font-size="12.5" font-weight="400" font-style="normal" 
>
</g>

<g fill="none" stroke="#000000" stroke-opacity="1" stroke-width="1" stroke-linecap="square" stroke-linejoin="bevel" transform="matrix(1,0,0,1,0,0)"
font-family="Nimbus Sans L" font-size="12.5" font-weight="400" font-style="normal" 
>
</g>

<g fill="none" stroke="#000000" stroke-opacity="1" stroke-width="1" stroke-linecap="square" stroke-linejoin="bevel" transform="matrix(1,0,0,1,0,0)"
font-family="Nimbus Sans L" font-size="12.5" font-weight="400" font-style="normal" 
clip-path="url(#clip158)" >
<defs><clipPath id="clip158"><path vector-effect="non-scaling-stroke" fill-rule="evenodd" d="M0,0 L1,0 L1,1 L0,1 L0,0z "/>
</clipPath></defs></g>

<g fill="none" stroke="#000000" stroke-opacity="1" stroke-width="1" stroke-linecap="square" stroke-linejoin="bevel" transform="matrix(1,0,0,1,0,0)"
font-family="Nimbus Sans L" font-size="12.5" font-weight="400" font-style="normal" 
>
</g>

<g fill="none" stroke="#000000" stroke-opacity="1" stroke-width="1" stroke-linecap="square" stroke-linejoin="bevel" transform="matrix(1,0,0,1,0,0)"
font-family="Nimbus Sans L" font-size="12.5" font-weight="400" font-style="normal" 
>
</g>
</g>
</svg>
