<?xml version="1.0" encoding="UTF-8" standalone="no"?>
<svg width="49.784mm" height="67.7333mm"
 viewBox="0 0 147 200"
 xmlns="http://www.w3.org/2000/svg" xmlns:xlink="http://www.w3.org/1999/xlink"  version="1.2" baseProfile="tiny">
<defs>
</defs>
<g fill="none" stroke="black" stroke-width="1" fill-rule="evenodd" stroke-linecap="square" stroke-linejoin="bevel" >

<g fill="#ffffff" fill-opacity="0" stroke="none" transform="matrix(1,0,0,1,0,0)"
font-family="Nimbus Sans L" font-size="12.5" font-weight="400" font-style="normal" 
>
<path vector-effect="non-scaling-stroke" fill-rule="evenodd" d="M0,0 L147,0 L147,200 L0,200 L0,0z "/>
</g>

<g fill="none" stroke="#000000" stroke-opacity="1" stroke-width="1" stroke-linecap="square" stroke-linejoin="bevel" transform="matrix(1,0,0,1,0,0)"
font-family="Nimbus Sans L" font-size="12.5" font-weight="400" font-style="normal" 
>
</g>

<g fill="none" stroke="#000000" stroke-opacity="1" stroke-width="1" stroke-linecap="square" stroke-linejoin="bevel" transform="matrix(1,0,0,1,0,0)"
font-family="Nimbus Sans L" font-size="12.5" font-weight="400" font-style="normal" 
clip-path="url(#clip3193)" >
<defs><clipPath id="clip3193"><path vector-effect="non-scaling-stroke" fill-rule="evenodd" d="M0,0 L147.5,0 L147.5,200 L0,200 L0,0z "/>
</clipPath></defs></g>

<g fill="none" stroke="#000000" stroke-opacity="1" stroke-width="1" stroke-linecap="square" stroke-linejoin="bevel" transform="matrix(2.5,0,0,2.5,130,50)"
font-family="Nimbus Sans L" font-size="12.5" font-weight="400" font-style="normal" 
clip-path="url(#clip3194)" >
<defs><clipPath id="clip3194"><path vector-effect="non-scaling-stroke" fill-rule="evenodd" d="M-52,-20 L7,-20 L7,60 L-52,60 L-52,-20z "/>
</clipPath></defs></g>

<g fill="#000000" fill-opacity="0" stroke="#000000" stroke-opacity="1" stroke-width="2" stroke-linecap="round" stroke-linejoin="miter" stroke-miterlimit="2" transform="matrix(2.5,0,0,2.5,130,50)"
font-family="Nimbus Sans L" font-size="12.5" font-weight="400" font-style="normal" 
clip-path="url(#clip3194)" >
<path vector-effect="none" fill-rule="evenodd" d="M0,-5 L5,0 L0,5"/>
</g>

<g fill="none" stroke="#000000" stroke-opacity="1" stroke-width="1" stroke-linecap="square" stroke-linejoin="bevel" transform="matrix(2.5,0,0,2.5,130,50)"
font-family="Nimbus Sans L" font-size="12.5" font-weight="400" font-style="normal" 
clip-path="url(#clip3194)" >
</g>

<g fill="none" stroke="#000000" stroke-opacity="1" stroke-width="1" stroke-linecap="square" stroke-linejoin="bevel" transform="matrix(2.5,0,0,2.5,130,150)"
font-family="Nimbus Sans L" font-size="12.5" font-weight="400" font-style="normal" 
clip-path="url(#clip3195)" >
<defs><clipPath id="clip3195"><path vector-effect="non-scaling-stroke" fill-rule="evenodd" d="M-52,-60 L7,-60 L7,20 L-52,20 L-52,-60z "/>
</clipPath></defs></g>

<g fill="#000000" fill-opacity="0" stroke="#000000" stroke-opacity="1" stroke-width="2" stroke-linecap="round" stroke-linejoin="miter" stroke-miterlimit="2" transform="matrix(2.5,0,0,2.5,130,150)"
font-family="Nimbus Sans L" font-size="12.5" font-weight="400" font-style="normal" 
clip-path="url(#clip3195)" >
<path vector-effect="none" fill-rule="evenodd" d="M0,-5 L5,0 L0,5"/>
</g>

<g fill="none" stroke="#000000" stroke-opacity="1" stroke-width="1" stroke-linecap="square" stroke-linejoin="bevel" transform="matrix(2.5,0,0,2.5,130,150)"
font-family="Nimbus Sans L" font-size="12.5" font-weight="400" font-style="normal" 
clip-path="url(#clip3195)" >
</g>

<g fill="none" stroke="#000000" stroke-opacity="1" stroke-width="1" stroke-linecap="square" stroke-linejoin="bevel" transform="matrix(-2.5,0,0,-2.5,17.5,162.5)"
font-family="Nimbus Sans L" font-size="12.5" font-weight="400" font-style="normal" 
clip-path="url(#clip3196)" >
<defs><clipPath id="clip3196"><path vector-effect="non-scaling-stroke" fill-rule="evenodd" d="M7,65 L-52,65 L-52,-15 L7,-15 L7,65z "/>
</clipPath></defs></g>

<g fill="#000000" fill-opacity="0" stroke="#000000" stroke-opacity="1" stroke-width="2" stroke-linecap="round" stroke-linejoin="miter" stroke-miterlimit="2" transform="matrix(-2.5,0,0,-2.5,17.5,162.5)"
font-family="Nimbus Sans L" font-size="12.5" font-weight="400" font-style="normal" 
clip-path="url(#clip3196)" >
<path vector-effect="none" fill-rule="evenodd" d="M5,-5 L0,0 L5,5"/>
</g>

<g fill="none" stroke="#000000" stroke-opacity="1" stroke-width="1" stroke-linecap="square" stroke-linejoin="bevel" transform="matrix(-2.5,0,0,-2.5,17.5,162.5)"
font-family="Nimbus Sans L" font-size="12.5" font-weight="400" font-style="normal" 
clip-path="url(#clip3196)" >
</g>

<g fill="none" stroke="#000000" stroke-opacity="1" stroke-width="1" stroke-linecap="square" stroke-linejoin="bevel" transform="matrix(-2.5,0,0,-2.5,17.5,37.5)"
font-family="Nimbus Sans L" font-size="12.5" font-weight="400" font-style="normal" 
clip-path="url(#clip3197)" >
<defs><clipPath id="clip3197"><path vector-effect="non-scaling-stroke" fill-rule="evenodd" d="M7,15 L-52,15 L-52,-65 L7,-65 L7,15z "/>
</clipPath></defs></g>

<g fill="#000000" fill-opacity="0" stroke="#000000" stroke-opacity="1" stroke-width="2" stroke-linecap="round" stroke-linejoin="miter" stroke-miterlimit="2" transform="matrix(-2.5,0,0,-2.5,17.5,37.5)"
font-family="Nimbus Sans L" font-size="12.5" font-weight="400" font-style="normal" 
clip-path="url(#clip3197)" >
<path vector-effect="none" fill-rule="evenodd" d="M5,-5 L0,0 L5,5"/>
</g>

<g fill="none" stroke="#000000" stroke-opacity="1" stroke-width="1" stroke-linecap="square" stroke-linejoin="bevel" transform="matrix(-2.5,0,0,-2.5,17.5,37.5)"
font-family="Nimbus Sans L" font-size="12.5" font-weight="400" font-style="normal" 
clip-path="url(#clip3197)" >
</g>

<g fill="none" stroke="#000000" stroke-opacity="1" stroke-width="1" stroke-linecap="square" stroke-linejoin="bevel" transform="matrix(-2.5,0,0,-2.5,17.5,100)"
font-family="Nimbus Sans L" font-size="12.5" font-weight="400" font-style="normal" 
clip-path="url(#clip3198)" >
<defs><clipPath id="clip3198"><path vector-effect="non-scaling-stroke" fill-rule="evenodd" d="M7,40 L-52,40 L-52,-40 L7,-40 L7,40z "/>
</clipPath></defs></g>

<g fill="#000000" fill-opacity="0" stroke="#000000" stroke-opacity="1" stroke-width="2" stroke-linecap="round" stroke-linejoin="miter" stroke-miterlimit="2" transform="matrix(-2.5,0,0,-2.5,17.5,100)"
font-family="Nimbus Sans L" font-size="12.5" font-weight="400" font-style="normal" 
clip-path="url(#clip3198)" >
<path vector-effect="none" fill-rule="evenodd" d="M5,-5 L0,0 L5,5"/>
</g>

<g fill="none" stroke="#000000" stroke-opacity="1" stroke-width="1" stroke-linecap="square" stroke-linejoin="bevel" transform="matrix(-2.5,0,0,-2.5,17.5,100)"
font-family="Nimbus Sans L" font-size="12.5" font-weight="400" font-style="normal" 
clip-path="url(#clip3198)" >
</g>

<g fill="none" stroke="#000000" stroke-opacity="1" stroke-width="1" stroke-linecap="square" stroke-linejoin="bevel" transform="matrix(2.5,0,0,2.5,17.5,5)"
font-family="Nimbus Sans L" font-size="12.5" font-weight="400" font-style="normal" 
clip-path="url(#clip3199)" >
<defs><clipPath id="clip3199"><path vector-effect="non-scaling-stroke" fill-rule="evenodd" d="M-7,-2 L52,-2 L52,78 L-7,78 L-7,-2z "/>
</clipPath></defs></g>

<g fill="#ffffff" fill-opacity="1" stroke="none" transform="matrix(2.5,0,0,2.5,17.5,5)"
font-family="Nimbus Sans L" font-size="12.5" font-weight="400" font-style="normal" 
clip-path="url(#clip3199)" >
<path vector-effect="none" fill-rule="evenodd" d="M0,0 L45,0 L45,76 L0,76 L0,0z "/>
</g>

<g fill="none" stroke="#000000" stroke-opacity="1" stroke-width="1" stroke-linecap="square" stroke-linejoin="bevel" transform="matrix(2.5,0,0,2.5,17.5,5)"
font-family="Nimbus Sans L" font-size="12.5" font-weight="400" font-style="normal" 
clip-path="url(#clip3199)" >
</g>

<g fill="none" stroke="#000000" stroke-opacity="1" stroke-width="1" stroke-linecap="square" stroke-linejoin="bevel" transform="matrix(2.5,0,0,2.5,17.5,5)"
font-family="Nimbus Sans L" font-size="12.5" font-weight="400" font-style="normal" 
clip-path="url(#clip3199)" >
</g>

<g fill="none" stroke="#000000" stroke-opacity="1" stroke-width="1" stroke-linecap="square" stroke-linejoin="bevel" transform="matrix(2.5,0,0,2.5,17.5,5)"
font-family="Nimbus Sans L" font-size="12.5" font-weight="400" font-style="normal" 
clip-path="url(#clip3200)" >
<defs><clipPath id="clip3200"><path vector-effect="non-scaling-stroke" fill-rule="evenodd" d="M0,0 L45,0 L45,76 L0,76 L0,0z "/>
</clipPath></defs></g>

<g fill="none" stroke="#000000" stroke-opacity="1" stroke-width="1" stroke-linecap="square" stroke-linejoin="bevel" transform="matrix(2.5,0,0,2.5,25,37.5)"
font-family="Liberation Sans" font-size="9" font-weight="400" font-style="normal" 
clip-path="url(#clip3201)" >
<defs><clipPath id="clip3201"><path vector-effect="none" fill-rule="evenodd" d="M-3,-13 L42,-13 L42,63 L-3,63 L-3,-13z "/>
</clipPath></defs></g>

<g fill="none" stroke="#000000" stroke-opacity="1" stroke-width="1" stroke-linecap="square" stroke-linejoin="bevel" transform="matrix(2.5,0,0,2.5,25,37.5)"
font-family="Liberation Sans" font-size="9" font-weight="400" font-style="normal" 
clip-path="url(#clip3201)" >
<text textLength="5" fill="#000000" fill-opacity="1" stroke="none" xml:space="preserve" x="0" y="3" font-family="Liberation Sans" font-size="9" font-weight="400" font-style="normal" 
 >J</text>
</g>

<g fill="none" stroke="#000000" stroke-opacity="1" stroke-width="1" stroke-linecap="square" stroke-linejoin="bevel" transform="matrix(2.5,0,0,2.5,25,37.5)"
font-family="Liberation Sans" font-size="9" font-weight="400" font-style="normal" 
clip-path="url(#clip3201)" >
</g>

<g fill="none" stroke="#000000" stroke-opacity="1" stroke-width="1" stroke-linecap="square" stroke-linejoin="bevel" transform="matrix(2.5,0,0,2.5,25,100)"
font-family="Liberation Sans" font-size="9" font-weight="400" font-style="normal" 
clip-path="url(#clip3202)" >
<defs><clipPath id="clip3202"><path vector-effect="none" fill-rule="evenodd" d="M-3,-38 L42,-38 L42,38 L-3,38 L-3,-38z "/>
</clipPath></defs></g>

<g fill="none" stroke="#000000" stroke-opacity="1" stroke-width="1" stroke-linecap="square" stroke-linejoin="bevel" transform="matrix(2.5,0,0,2.5,25,100)"
font-family="Liberation Sans" font-size="9" font-weight="400" font-style="normal" 
clip-path="url(#clip3202)" >
<text textLength="18" fill="#000000" fill-opacity="1" stroke="none" xml:space="preserve" x="0" y="3" font-family="Liberation Sans" font-size="9" font-weight="400" font-style="normal" 
 >CLK</text>
</g>

<g fill="none" stroke="#000000" stroke-opacity="1" stroke-width="1" stroke-linecap="square" stroke-linejoin="bevel" transform="matrix(2.5,0,0,2.5,25,100)"
font-family="Liberation Sans" font-size="9" font-weight="400" font-style="normal" 
clip-path="url(#clip3202)" >
</g>

<g fill="none" stroke="#000000" stroke-opacity="1" stroke-width="1" stroke-linecap="square" stroke-linejoin="bevel" transform="matrix(2.5,0,0,2.5,25,162.5)"
font-family="Liberation Sans" font-size="9" font-weight="400" font-style="normal" 
clip-path="url(#clip3203)" >
<defs><clipPath id="clip3203"><path vector-effect="none" fill-rule="evenodd" d="M-3,-63 L42,-63 L42,13 L-3,13 L-3,-63z "/>
</clipPath></defs></g>

<g fill="none" stroke="#000000" stroke-opacity="1" stroke-width="1" stroke-linecap="square" stroke-linejoin="bevel" transform="matrix(2.5,0,0,2.5,25,162.5)"
font-family="Liberation Sans" font-size="9" font-weight="400" font-style="normal" 
clip-path="url(#clip3203)" >
<text textLength="6" fill="#000000" fill-opacity="1" stroke="none" xml:space="preserve" x="0" y="3" font-family="Liberation Sans" font-size="9" font-weight="400" font-style="normal" 
 >K</text>
</g>

<g fill="none" stroke="#000000" stroke-opacity="1" stroke-width="1" stroke-linecap="square" stroke-linejoin="bevel" transform="matrix(2.5,0,0,2.5,25,162.5)"
font-family="Liberation Sans" font-size="9" font-weight="400" font-style="normal" 
clip-path="url(#clip3203)" >
</g>

<g fill="none" stroke="#000000" stroke-opacity="1" stroke-width="1" stroke-linecap="square" stroke-linejoin="bevel" transform="matrix(2.5,0,0,2.5,122.5,50)"
font-family="Liberation Sans" font-size="9" font-weight="400" font-style="normal" 
clip-path="url(#clip3204)" >
<defs><clipPath id="clip3204"><path vector-effect="none" fill-rule="evenodd" d="M-42,-18 L3,-18 L3,58 L-42,58 L-42,-18z "/>
</clipPath></defs></g>

<g fill="none" stroke="#000000" stroke-opacity="1" stroke-width="1" stroke-linecap="square" stroke-linejoin="bevel" transform="matrix(2.5,0,0,2.5,122.5,50)"
font-family="Liberation Sans" font-size="9" font-weight="400" font-style="normal" 
clip-path="url(#clip3204)" >
<text textLength="7" fill="#000000" fill-opacity="1" stroke="none" xml:space="preserve" x="-7" y="3" font-family="Liberation Sans" font-size="9" font-weight="400" font-style="normal" 
 >Q</text>
</g>

<g fill="none" stroke="#000000" stroke-opacity="1" stroke-width="1" stroke-linecap="square" stroke-linejoin="bevel" transform="matrix(2.5,0,0,2.5,122.5,50)"
font-family="Liberation Sans" font-size="9" font-weight="400" font-style="normal" 
clip-path="url(#clip3204)" >
</g>

<g fill="none" stroke="#000000" stroke-opacity="1" stroke-width="1" stroke-linecap="square" stroke-linejoin="bevel" transform="matrix(2.5,0,0,2.5,122.5,150)"
font-family="Liberation Sans" font-size="9" font-weight="400" font-style="normal" 
clip-path="url(#clip3205)" >
<defs><clipPath id="clip3205"><path vector-effect="none" fill-rule="evenodd" d="M-42,-58 L3,-58 L3,18 L-42,18 L-42,-58z "/>
</clipPath></defs></g>

<g fill="none" stroke="#000000" stroke-opacity="1" stroke-width="1" stroke-linecap="square" stroke-linejoin="bevel" transform="matrix(2.5,0,0,2.5,122.5,150)"
font-family="Liberation Sans" font-size="9" font-weight="400" font-style="normal" 
clip-path="url(#clip3205)" >
<text textLength="10" fill="#000000" fill-opacity="1" stroke="none" xml:space="preserve" x="-10" y="3" font-family="Liberation Sans" font-size="9" font-weight="400" font-style="normal" 
 >!Q</text>
</g>

<g fill="none" stroke="#000000" stroke-opacity="1" stroke-width="1" stroke-linecap="square" stroke-linejoin="bevel" transform="matrix(2.5,0,0,2.5,122.5,150)"
font-family="Liberation Sans" font-size="9" font-weight="400" font-style="normal" 
clip-path="url(#clip3205)" >
</g>

<g fill="none" stroke="#000000" stroke-opacity="1" stroke-width="1" stroke-linecap="square" stroke-linejoin="bevel" transform="matrix(2.5,0,0,2.5,122.5,150)"
font-family="Liberation Sans" font-size="9" font-weight="400" font-style="normal" 
clip-path="url(#clip3206)" >
<defs><clipPath id="clip3206"><path vector-effect="none" fill-rule="evenodd" d="M-7,-2 L52,-2 L52,78 L-7,78 L-7,-2z "/>
</clipPath></defs></g>

<g fill="none" stroke="#000000" stroke-opacity="1" stroke-width="1" stroke-linecap="square" stroke-linejoin="bevel" transform="matrix(1,0,0,1,0,0)"
font-family="Liberation Sans" font-size="9" font-weight="400" font-style="normal" 
clip-path="url(#clip3206)" >
</g>

<g fill="none" stroke="#000000" stroke-opacity="1" stroke-width="1" stroke-linecap="square" stroke-linejoin="bevel" transform="matrix(2.5,0,0,2.5,17.5,5)"
font-family="Nimbus Sans L" font-size="12.5" font-weight="400" font-style="normal" 
clip-path="url(#clip3206)" >
</g>

<g fill="none" stroke="#000000" stroke-opacity="1" stroke-width="1" stroke-linecap="square" stroke-linejoin="bevel" transform="matrix(2.5,0,0,2.5,17.5,5)"
font-family="Nimbus Sans L" font-size="12.5" font-weight="400" font-style="normal" 
clip-path="url(#clip3206)" >
</g>

<g fill="none" stroke="#000000" stroke-opacity="1" stroke-width="0.693145" stroke-linecap="butt" stroke-linejoin="miter" stroke-miterlimit="2" transform="matrix(2.5,0,0,2.5,17.5,5)"
font-family="Nimbus Sans L" font-size="12.5" font-weight="400" font-style="normal" 
clip-path="url(#clip3206)" >
<path vector-effect="none" fill-rule="evenodd" d="M0,0 L45,0 L45,76 L0,76 L0,0z "/>
</g>

<g fill="none" stroke="#000000" stroke-opacity="1" stroke-width="1" stroke-linecap="square" stroke-linejoin="bevel" transform="matrix(2.5,0,0,2.5,17.5,5)"
font-family="Nimbus Sans L" font-size="12.5" font-weight="400" font-style="normal" 
clip-path="url(#clip3206)" >
</g>

<g fill="none" stroke="#000000" stroke-opacity="1" stroke-width="1" stroke-linecap="square" stroke-linejoin="bevel" transform="matrix(1,0,0,1,0,0)"
font-family="Nimbus Sans L" font-size="12.5" font-weight="400" font-style="normal" 
>
</g>

<g fill="none" stroke="#000000" stroke-opacity="1" stroke-width="1" stroke-linecap="square" stroke-linejoin="bevel" transform="matrix(1,0,0,1,0,0)"
font-family="Nimbus Sans L" font-size="12.5" font-weight="400" font-style="normal" 
>
</g>

<g fill="none" stroke="#000000" stroke-opacity="1" stroke-width="1" stroke-linecap="square" stroke-linejoin="bevel" transform="matrix(1,0,0,1,0,0)"
font-family="Nimbus Sans L" font-size="12.5" font-weight="400" font-style="normal" 
clip-path="url(#clip3207)" >
<defs><clipPath id="clip3207"><path vector-effect="non-scaling-stroke" fill-rule="evenodd" d="M0,0 L147,0 L147,200 L0,200 L0,0z "/>
</clipPath></defs></g>

<g fill="none" stroke="#000000" stroke-opacity="1" stroke-width="1" stroke-linecap="square" stroke-linejoin="bevel" transform="matrix(1,0,0,1,0,0)"
font-family="Nimbus Sans L" font-size="12.5" font-weight="400" font-style="normal" 
>
</g>

<g fill="none" stroke="#000000" stroke-opacity="1" stroke-width="1" stroke-linecap="square" stroke-linejoin="bevel" transform="matrix(1,0,0,1,0,0)"
font-family="Nimbus Sans L" font-size="12.5" font-weight="400" font-style="normal" 
>
</g>

<g fill="none" stroke="#000000" stroke-opacity="1" stroke-width="1" stroke-linecap="square" stroke-linejoin="bevel" transform="matrix(1,0,0,1,0,0)"
font-family="Nimbus Sans L" font-size="12.5" font-weight="400" font-style="normal" 
clip-path="url(#clip3208)" >
<defs><clipPath id="clip3208"><path vector-effect="non-scaling-stroke" fill-rule="evenodd" d="M0,0 L1,0 L1,1 L0,1 L0,0z "/>
</clipPath></defs></g>

<g fill="none" stroke="#000000" stroke-opacity="1" stroke-width="1" stroke-linecap="square" stroke-linejoin="bevel" transform="matrix(1,0,0,1,0,0)"
font-family="Nimbus Sans L" font-size="12.5" font-weight="400" font-style="normal" 
>
</g>

<g fill="none" stroke="#000000" stroke-opacity="1" stroke-width="1" stroke-linecap="square" stroke-linejoin="bevel" transform="matrix(1,0,0,1,0,0)"
font-family="Nimbus Sans L" font-size="12.5" font-weight="400" font-style="normal" 
>
</g>
</g>
</svg>
