<?xml version="1.0" encoding="UTF-8" standalone="no"?>
<svg width="47.2722mm" height="70.5556mm"
 viewBox="0 0 134 200"
 xmlns="http://www.w3.org/2000/svg" xmlns:xlink="http://www.w3.org/1999/xlink"  version="1.2" baseProfile="tiny">
<defs>
</defs>
<g fill="none" stroke="black" stroke-width="1" fill-rule="evenodd" stroke-linecap="square" stroke-linejoin="bevel" >

<g fill="#ffffff" fill-opacity="0" stroke="none" transform="matrix(1,0,0,1,0,0)"
font-family="Helvetica" font-size="12" font-weight="400" font-style="normal" 
>
<path vector-effect="non-scaling-stroke" fill-rule="evenodd" d="M0,0 L134,0 L134,200 L0,200 L0,0z "/>
</g>

<g fill="none" stroke="#000000" stroke-opacity="1" stroke-width="1" stroke-linecap="square" stroke-linejoin="bevel" transform="matrix(1,0,0,1,0,0)"
font-family="Helvetica" font-size="12" font-weight="400" font-style="normal" 
>
</g>

<g fill="none" stroke="#000000" stroke-opacity="1" stroke-width="1" stroke-linecap="square" stroke-linejoin="bevel" transform="matrix(1,0,0,1,0,0)"
font-family="Helvetica" font-size="12" font-weight="400" font-style="normal" 
clip-path="url(#clip5234)" >
<defs><clipPath id="clip5234"><path vector-effect="non-scaling-stroke" fill-rule="evenodd" d="M0,0 L134.868,0 L134.868,200 L0,200 L0,0z "/>
</clipPath></defs></g>

<g fill="none" stroke="#000000" stroke-opacity="1" stroke-width="1" stroke-linecap="square" stroke-linejoin="bevel" transform="matrix(2.63158,0,0,2.63158,27.9605,5.26316)"
font-family="Helvetica" font-size="12" font-weight="400" font-style="normal" 
clip-path="url(#clip5235)" >
<defs><clipPath id="clip5235"><path vector-effect="non-scaling-stroke" fill-rule="evenodd" d="M-10.625,-2 L40.625,-2 L40.625,74 L-10.625,74 L-10.625,-2z "/>
</clipPath></defs></g>

<g fill="#ffffff" fill-opacity="1" stroke="none" transform="matrix(2.63158,0,0,2.63158,27.9605,5.26316)"
font-family="Helvetica" font-size="12" font-weight="400" font-style="normal" 
clip-path="url(#clip5235)" >
<path vector-effect="none" fill-rule="evenodd" d="M0,0 L30,0 L30,55 L0,55 L0,0z "/>
</g>

<g fill="none" stroke="#000000" stroke-opacity="1" stroke-width="1" stroke-linecap="square" stroke-linejoin="bevel" transform="matrix(2.63158,0,0,2.63158,27.9605,5.26316)"
font-family="Helvetica" font-size="12" font-weight="400" font-style="normal" 
clip-path="url(#clip5235)" >
</g>

<g fill="none" stroke="#000000" stroke-opacity="1" stroke-width="1" stroke-linecap="square" stroke-linejoin="bevel" transform="matrix(2.63158,0,0,2.63158,27.9605,5.26316)"
font-family="Helvetica" font-size="12" font-weight="400" font-style="normal" 
clip-path="url(#clip5235)" >
</g>

<g fill="none" stroke="#000000" stroke-opacity="1" stroke-width="1" stroke-linecap="square" stroke-linejoin="bevel" transform="matrix(2.63158,0,0,2.63158,27.9605,5.26316)"
font-family="Helvetica" font-size="12" font-weight="400" font-style="normal" 
clip-path="url(#clip5236)" >
<defs><clipPath id="clip5236"><path vector-effect="non-scaling-stroke" fill-rule="evenodd" d="M0,0 L30,0 L30,55 L0,55 L0,0z "/>
</clipPath></defs></g>

<g fill="none" stroke="#000000" stroke-opacity="1" stroke-width="1" stroke-linecap="square" stroke-linejoin="bevel" transform="matrix(1.97368,0,0,1.97368,27.9605,5.26316)"
font-family="Helvetica" font-size="12" font-weight="400" font-style="normal" 
clip-path="url(#clip5237)" >
<defs><clipPath id="clip5237"><path vector-effect="non-scaling-stroke" fill-rule="evenodd" d="M-10.625,-2 L40.625,-2 L40.625,74 L-10.625,74 L-10.625,-2z "/>
</clipPath></defs></g>

<g fill="none" stroke="#000000" stroke-opacity="1" stroke-width="1" stroke-linecap="square" stroke-linejoin="bevel" transform="matrix(1,0,0,1,0,0)"
font-family="Helvetica" font-size="12" font-weight="400" font-style="normal" 
clip-path="url(#clip5237)" >
</g>

<g fill="none" stroke="#000000" stroke-opacity="1" stroke-width="1" stroke-linecap="square" stroke-linejoin="bevel" transform="matrix(2.63158,0,0,2.63158,27.9605,5.26316)"
font-family="Helvetica" font-size="12" font-weight="400" font-style="normal" 
clip-path="url(#clip5237)" >
</g>

<g fill="none" stroke="#000000" stroke-opacity="1" stroke-width="1" stroke-linecap="square" stroke-linejoin="bevel" transform="matrix(2.63158,0,0,2.63158,27.9605,5.26316)"
font-family="Helvetica" font-size="12" font-weight="400" font-style="normal" 
clip-path="url(#clip5237)" >
</g>

<g fill="none" stroke="#000000" stroke-opacity="1" stroke-width="0.679068" stroke-linecap="butt" stroke-linejoin="miter" stroke-miterlimit="2" transform="matrix(2.63158,0,0,2.63158,27.9605,5.26316)"
font-family="Helvetica" font-size="12" font-weight="400" font-style="normal" 
clip-path="url(#clip5237)" >
<path vector-effect="none" fill-rule="evenodd" d="M0,0 L30,0 L30,55 L0,55 L0,0z "/>
</g>

<g fill="none" stroke="#000000" stroke-opacity="1" stroke-width="1" stroke-linecap="square" stroke-linejoin="bevel" transform="matrix(2.63158,0,0,2.63158,27.9605,5.26316)"
font-family="Helvetica" font-size="12" font-weight="400" font-style="normal" 
clip-path="url(#clip5237)" >
</g>

<g fill="none" stroke="#000000" stroke-opacity="1" stroke-width="1" stroke-linecap="square" stroke-linejoin="bevel" transform="matrix(1,0,0,1,0,0)"
font-family="Helvetica" font-size="12" font-weight="400" font-style="normal" 
>
</g>

<g fill="none" stroke="#000000" stroke-opacity="1" stroke-width="1" stroke-linecap="square" stroke-linejoin="bevel" transform="matrix(1,0,0,1,0,0)"
font-family="Helvetica" font-size="12" font-weight="400" font-style="normal" 
>
</g>

<g fill="none" stroke="#000000" stroke-opacity="1" stroke-width="1" stroke-linecap="square" stroke-linejoin="bevel" transform="matrix(1,0,0,1,0,0)"
font-family="Helvetica" font-size="12" font-weight="400" font-style="normal" 
clip-path="url(#clip5238)" >
<defs><clipPath id="clip5238"><path vector-effect="non-scaling-stroke" fill-rule="evenodd" d="M0,0 L134,0 L134,200 L0,200 L0,0z "/>
</clipPath></defs></g>

<g fill="none" stroke="#000000" stroke-opacity="1" stroke-width="1" stroke-linecap="square" stroke-linejoin="bevel" transform="matrix(1,0,0,1,0,0)"
font-family="Helvetica" font-size="12" font-weight="400" font-style="normal" 
>
</g>

<g fill="none" stroke="#000000" stroke-opacity="1" stroke-width="1" stroke-linecap="square" stroke-linejoin="bevel" transform="matrix(1,0,0,1,0,0)"
font-family="Helvetica" font-size="12" font-weight="400" font-style="normal" 
>
</g>

<g fill="none" stroke="#000000" stroke-opacity="1" stroke-width="1" stroke-linecap="square" stroke-linejoin="bevel" transform="matrix(1,0,0,1,0,0)"
font-family="Helvetica" font-size="12" font-weight="400" font-style="normal" 
clip-path="url(#clip5239)" >
<defs><clipPath id="clip5239"><path vector-effect="non-scaling-stroke" fill-rule="evenodd" d="M0,0 L1,0 L1,1 L0,1 L0,0z "/>
</clipPath></defs></g>

<g fill="none" stroke="#000000" stroke-opacity="1" stroke-width="1" stroke-linecap="square" stroke-linejoin="bevel" transform="matrix(1,0,0,1,0,0)"
font-family="Helvetica" font-size="12" font-weight="400" font-style="normal" 
>
</g>

<g fill="none" stroke="#000000" stroke-opacity="1" stroke-width="1" stroke-linecap="square" stroke-linejoin="bevel" transform="matrix(1,0,0,1,0,0)"
font-family="Helvetica" font-size="12" font-weight="400" font-style="normal" 
>
</g>
</g>
</svg>
