<?xml version="1.0" encoding="UTF-8" standalone="no"?>
<svg width="70.5556mm" height="33.5139mm"
 viewBox="0 0 200 95"
 xmlns="http://www.w3.org/2000/svg" xmlns:xlink="http://www.w3.org/1999/xlink"  version="1.2" baseProfile="tiny">
<defs>
</defs>
<g fill="none" stroke="black" stroke-width="1" fill-rule="evenodd" stroke-linecap="square" stroke-linejoin="bevel" >

<g fill="#ffffff" fill-opacity="0" stroke="none" transform="matrix(1,0,0,1,0,0)"
font-family="Helvetica" font-size="12" font-weight="400" font-style="normal" 
>
<path vector-effect="non-scaling-stroke" fill-rule="evenodd" d="M0,0 L200,0 L200,95 L0,95 L0,0z "/>
</g>

<g fill="none" stroke="#000000" stroke-opacity="1" stroke-width="1" stroke-linecap="square" stroke-linejoin="bevel" transform="matrix(1,0,0,1,0,0)"
font-family="Helvetica" font-size="12" font-weight="400" font-style="normal" 
>
</g>

<g fill="none" stroke="#000000" stroke-opacity="1" stroke-width="1" stroke-linecap="square" stroke-linejoin="bevel" transform="matrix(1,0,0,1,0,0)"
font-family="Helvetica" font-size="12" font-weight="400" font-style="normal" 
clip-path="url(#clip5276)" >
<defs><clipPath id="clip5276"><path vector-effect="non-scaling-stroke" fill-rule="evenodd" d="M0,0 L200,0 L200,95.5224 L0,95.5224 L0,0z "/>
</clipPath></defs></g>

<g fill="none" stroke="#000000" stroke-opacity="1" stroke-width="1" stroke-linecap="square" stroke-linejoin="bevel" transform="matrix(-1.49254,0,0,-1.49254,10.4478,47.7612)"
font-family="Helvetica" font-size="12" font-weight="400" font-style="normal" 
clip-path="url(#clip5277)" >
<defs><clipPath id="clip5277"><path vector-effect="non-scaling-stroke" fill-rule="evenodd" d="M7,32 L-127,32 L-127,-32 L7,-32 L7,32z "/>
</clipPath></defs></g>

<g fill="#000000" fill-opacity="0" stroke="#000000" stroke-opacity="1" stroke-width="2" stroke-linecap="round" stroke-linejoin="miter" stroke-miterlimit="2" transform="matrix(-1.49254,0,0,-1.49254,10.4478,47.7612)"
font-family="Helvetica" font-size="12" font-weight="400" font-style="normal" 
clip-path="url(#clip5277)" >
<path vector-effect="none" fill-rule="evenodd" d="M5,-5 L0,0 L5,5"/>
</g>

<g fill="none" stroke="#000000" stroke-opacity="1" stroke-width="1" stroke-linecap="square" stroke-linejoin="bevel" transform="matrix(-1.49254,0,0,-1.49254,10.4478,47.7612)"
font-family="Helvetica" font-size="12" font-weight="400" font-style="normal" 
clip-path="url(#clip5277)" >
</g>

<g fill="none" stroke="#000000" stroke-opacity="1" stroke-width="1" stroke-linecap="square" stroke-linejoin="bevel" transform="matrix(1.49254,0,0,1.49254,189.552,47.7612)"
font-family="Helvetica" font-size="12" font-weight="400" font-style="normal" 
clip-path="url(#clip5278)" >
<defs><clipPath id="clip5278"><path vector-effect="non-scaling-stroke" fill-rule="evenodd" d="M-127,-32 L7,-32 L7,32 L-127,32 L-127,-32z "/>
</clipPath></defs></g>

<g fill="#000000" fill-opacity="0" stroke="#000000" stroke-opacity="1" stroke-width="2" stroke-linecap="round" stroke-linejoin="miter" stroke-miterlimit="2" transform="matrix(1.49254,0,0,1.49254,189.552,47.7612)"
font-family="Helvetica" font-size="12" font-weight="400" font-style="normal" 
clip-path="url(#clip5278)" >
<path vector-effect="none" fill-rule="evenodd" d="M0,-5 L5,0 L0,5"/>
</g>

<g fill="none" stroke="#000000" stroke-opacity="1" stroke-width="1" stroke-linecap="square" stroke-linejoin="bevel" transform="matrix(1.49254,0,0,1.49254,189.552,47.7612)"
font-family="Helvetica" font-size="12" font-weight="400" font-style="normal" 
clip-path="url(#clip5278)" >
</g>

<g fill="none" stroke="#000000" stroke-opacity="1" stroke-width="1" stroke-linecap="square" stroke-linejoin="bevel" transform="matrix(1.49254,0,0,1.49254,10.4478,2.98507)"
font-family="Helvetica" font-size="12" font-weight="400" font-style="normal" 
clip-path="url(#clip5279)" >
<defs><clipPath id="clip5279"><path vector-effect="non-scaling-stroke" fill-rule="evenodd" d="M-7,-2 L127,-2 L127,62 L-7,62 L-7,-2z "/>
</clipPath></defs></g>

<g fill="#ffffff" fill-opacity="1" stroke="none" transform="matrix(1.49254,0,0,1.49254,10.4478,2.98507)"
font-family="Helvetica" font-size="12" font-weight="400" font-style="normal" 
clip-path="url(#clip5279)" >
<path vector-effect="none" fill-rule="evenodd" d="M0,0 L120,0 L120,60 L0,60 L0,0z "/>
</g>

<g fill="none" stroke="#000000" stroke-opacity="1" stroke-width="1" stroke-linecap="square" stroke-linejoin="bevel" transform="matrix(1.49254,0,0,1.49254,10.4478,2.98507)"
font-family="Helvetica" font-size="12" font-weight="400" font-style="normal" 
clip-path="url(#clip5279)" >
</g>

<g fill="none" stroke="#000000" stroke-opacity="1" stroke-width="1" stroke-linecap="square" stroke-linejoin="bevel" transform="matrix(1.49254,0,0,1.49254,10.4478,2.98507)"
font-family="Helvetica" font-size="12" font-weight="400" font-style="normal" 
clip-path="url(#clip5279)" >
</g>

<g fill="none" stroke="#000000" stroke-opacity="1" stroke-width="1" stroke-linecap="square" stroke-linejoin="bevel" transform="matrix(1.49254,0,0,1.49254,10.4478,2.98507)"
font-family="Helvetica" font-size="12" font-weight="400" font-style="normal" 
clip-path="url(#clip5280)" >
<defs><clipPath id="clip5280"><path vector-effect="non-scaling-stroke" fill-rule="evenodd" d="M0,0 L120,0 L120,60 L0,60 L0,0z "/>
</clipPath></defs></g>

<g fill="none" stroke="#000000" stroke-opacity="1" stroke-width="1" stroke-linecap="square" stroke-linejoin="bevel" transform="matrix(1.49254,0,0,1.49254,100,29.8507)"
font-family="Helvetica" font-size="7.5" font-weight="400" font-style="normal" 
clip-path="url(#clip5281)" >
<defs><clipPath id="clip5281"><path vector-effect="none" fill-rule="evenodd" d="M-60,-18 L60,-18 L60,42 L-60,42 L-60,-18z "/>
</clipPath></defs></g>

<g fill="none" stroke="#000000" stroke-opacity="1" stroke-width="1" stroke-linecap="square" stroke-linejoin="bevel" transform="matrix(1.99005,0,0,1.99005,100,29.8507)"
font-family="Helvetica" font-size="7.5" font-weight="400" font-style="normal" 
clip-path="url(#clip5282)" >
<defs><clipPath id="clip5282"><path vector-effect="none" fill-rule="evenodd" d="M-45,-13 L45,-13 L45,32 L-45,32 L-45,-13z "/>
</clipPath></defs><text textLength="47" fill="#000000" fill-opacity="1" stroke="none" xml:space="preserve" x="-24" y="2.25" font-family="Helvetica" font-size="7.5" font-weight="400" font-style="normal" 
 >Asynchronous</text>
</g>

<g fill="none" stroke="#000000" stroke-opacity="1" stroke-width="1" stroke-linecap="square" stroke-linejoin="bevel" transform="matrix(1.49254,0,0,1.49254,100,29.8507)"
font-family="Helvetica" font-size="7.5" font-weight="400" font-style="normal" 
clip-path="url(#clip5283)" >
<defs><clipPath id="clip5283"><path vector-effect="none" fill-rule="evenodd" d="M-60,-18 L60,-18 L60,42 L-60,42 L-60,-18z "/>
</clipPath></defs></g>

<g fill="none" stroke="#000000" stroke-opacity="1" stroke-width="1" stroke-linecap="square" stroke-linejoin="bevel" transform="matrix(1.49254,0,0,1.49254,100,47.7612)"
font-family="Helvetica" font-size="7.5" font-weight="400" font-style="normal" 
clip-path="url(#clip5284)" >
<defs><clipPath id="clip5284"><path vector-effect="none" fill-rule="evenodd" d="M-60,-30 L60,-30 L60,30 L-60,30 L-60,-30z "/>
</clipPath></defs></g>

<g fill="none" stroke="#000000" stroke-opacity="1" stroke-width="1" stroke-linecap="square" stroke-linejoin="bevel" transform="matrix(1.99005,0,0,1.99005,100,47.7612)"
font-family="Helvetica" font-size="7.5" font-weight="400" font-style="normal" 
clip-path="url(#clip5285)" >
<defs><clipPath id="clip5285"><path vector-effect="none" fill-rule="evenodd" d="M-45,-22 L45,-22 L45,23 L-45,23 L-45,-22z "/>
</clipPath></defs><text textLength="42" fill="#000000" fill-opacity="1" stroke="none" xml:space="preserve" x="-21.75" y="2.25" font-family="Helvetica" font-size="7.5" font-weight="400" font-style="normal" 
 > Buffer Block</text>
</g>

<g fill="none" stroke="#000000" stroke-opacity="1" stroke-width="1" stroke-linecap="square" stroke-linejoin="bevel" transform="matrix(1.49254,0,0,1.49254,100,47.7612)"
font-family="Helvetica" font-size="7.5" font-weight="400" font-style="normal" 
clip-path="url(#clip5286)" >
<defs><clipPath id="clip5286"><path vector-effect="none" fill-rule="evenodd" d="M-60,-30 L60,-30 L60,30 L-60,30 L-60,-30z "/>
</clipPath></defs></g>

<g fill="none" stroke="#000000" stroke-opacity="1" stroke-width="1" stroke-linecap="square" stroke-linejoin="bevel" transform="matrix(1.49254,0,0,1.49254,100,65.6716)"
font-family="Helvetica" font-size="7.5" font-weight="400" font-style="normal" 
clip-path="url(#clip5287)" >
<defs><clipPath id="clip5287"><path vector-effect="none" fill-rule="evenodd" d="M-60,-42 L60,-42 L60,18 L-60,18 L-60,-42z "/>
</clipPath></defs></g>

<g fill="none" stroke="#000000" stroke-opacity="1" stroke-width="1" stroke-linecap="square" stroke-linejoin="bevel" transform="matrix(1.99005,0,0,1.99005,100,65.6716)"
font-family="Helvetica" font-size="7.5" font-weight="400" font-style="normal" 
clip-path="url(#clip5288)" >
<defs><clipPath id="clip5288"><path vector-effect="none" fill-rule="evenodd" d="M-45,-32 L45,-32 L45,13 L-45,13 L-45,-32z "/>
</clipPath></defs><text textLength="18" fill="#000000" fill-opacity="1" stroke="none" xml:space="preserve" x="-9" y="2.25" font-family="Helvetica" font-size="7.5" font-weight="400" font-style="normal" 
 >Read</text>
</g>

<g fill="none" stroke="#000000" stroke-opacity="1" stroke-width="1" stroke-linecap="square" stroke-linejoin="bevel" transform="matrix(1.49254,0,0,1.49254,100,65.6716)"
font-family="Helvetica" font-size="7.5" font-weight="400" font-style="normal" 
clip-path="url(#clip5289)" >
<defs><clipPath id="clip5289"><path vector-effect="none" fill-rule="evenodd" d="M-60,-42 L60,-42 L60,18 L-60,18 L-60,-42z "/>
</clipPath></defs></g>

<g fill="none" stroke="#000000" stroke-opacity="1" stroke-width="1" stroke-linecap="square" stroke-linejoin="bevel" transform="matrix(1.1194,0,0,1.1194,100,65.6716)"
font-family="Helvetica" font-size="7.5" font-weight="400" font-style="normal" 
clip-path="url(#clip5290)" >
<defs><clipPath id="clip5290"><path vector-effect="none" fill-rule="evenodd" d="M-7,-2 L127,-2 L127,62 L-7,62 L-7,-2z "/>
</clipPath></defs></g>

<g fill="none" stroke="#000000" stroke-opacity="1" stroke-width="1" stroke-linecap="square" stroke-linejoin="bevel" transform="matrix(1,0,0,1,0,0)"
font-family="Helvetica" font-size="7.5" font-weight="400" font-style="normal" 
clip-path="url(#clip5290)" >
</g>

<g fill="none" stroke="#000000" stroke-opacity="1" stroke-width="1" stroke-linecap="square" stroke-linejoin="bevel" transform="matrix(1.49254,0,0,1.49254,10.4478,2.98507)"
font-family="Helvetica" font-size="12" font-weight="400" font-style="normal" 
clip-path="url(#clip5290)" >
</g>

<g fill="none" stroke="#000000" stroke-opacity="1" stroke-width="1" stroke-linecap="square" stroke-linejoin="bevel" transform="matrix(1.49254,0,0,1.49254,10.4478,2.98507)"
font-family="Helvetica" font-size="12" font-weight="400" font-style="normal" 
clip-path="url(#clip5290)" >
</g>

<g fill="none" stroke="#000000" stroke-opacity="1" stroke-width="0.851981" stroke-linecap="butt" stroke-linejoin="miter" stroke-miterlimit="2" transform="matrix(1.49254,0,0,1.49254,10.4478,2.98507)"
font-family="Helvetica" font-size="12" font-weight="400" font-style="normal" 
clip-path="url(#clip5290)" >
<path vector-effect="none" fill-rule="evenodd" d="M0,0 L120,0 L120,60 L0,60 L0,0z "/>
</g>

<g fill="none" stroke="#000000" stroke-opacity="1" stroke-width="1" stroke-linecap="square" stroke-linejoin="bevel" transform="matrix(1.49254,0,0,1.49254,10.4478,2.98507)"
font-family="Helvetica" font-size="12" font-weight="400" font-style="normal" 
clip-path="url(#clip5290)" >
</g>

<g fill="none" stroke="#000000" stroke-opacity="1" stroke-width="1" stroke-linecap="square" stroke-linejoin="bevel" transform="matrix(1,0,0,1,0,0)"
font-family="Helvetica" font-size="12" font-weight="400" font-style="normal" 
>
</g>

<g fill="none" stroke="#000000" stroke-opacity="1" stroke-width="1" stroke-linecap="square" stroke-linejoin="bevel" transform="matrix(1,0,0,1,0,0)"
font-family="Helvetica" font-size="12" font-weight="400" font-style="normal" 
>
</g>

<g fill="none" stroke="#000000" stroke-opacity="1" stroke-width="1" stroke-linecap="square" stroke-linejoin="bevel" transform="matrix(1,0,0,1,0,0)"
font-family="Helvetica" font-size="12" font-weight="400" font-style="normal" 
clip-path="url(#clip5291)" >
<defs><clipPath id="clip5291"><path vector-effect="non-scaling-stroke" fill-rule="evenodd" d="M0,0 L200,0 L200,95 L0,95 L0,0z "/>
</clipPath></defs></g>

<g fill="none" stroke="#000000" stroke-opacity="1" stroke-width="1" stroke-linecap="square" stroke-linejoin="bevel" transform="matrix(1,0,0,1,0,0)"
font-family="Helvetica" font-size="12" font-weight="400" font-style="normal" 
>
</g>

<g fill="none" stroke="#000000" stroke-opacity="1" stroke-width="1" stroke-linecap="square" stroke-linejoin="bevel" transform="matrix(1,0,0,1,0,0)"
font-family="Helvetica" font-size="12" font-weight="400" font-style="normal" 
>
</g>

<g fill="none" stroke="#000000" stroke-opacity="1" stroke-width="1" stroke-linecap="square" stroke-linejoin="bevel" transform="matrix(1,0,0,1,0,0)"
font-family="Helvetica" font-size="12" font-weight="400" font-style="normal" 
clip-path="url(#clip5292)" >
<defs><clipPath id="clip5292"><path vector-effect="non-scaling-stroke" fill-rule="evenodd" d="M0,0 L1,0 L1,1 L0,1 L0,0z "/>
</clipPath></defs></g>

<g fill="none" stroke="#000000" stroke-opacity="1" stroke-width="1" stroke-linecap="square" stroke-linejoin="bevel" transform="matrix(1,0,0,1,0,0)"
font-family="Helvetica" font-size="12" font-weight="400" font-style="normal" 
>
</g>

<g fill="none" stroke="#000000" stroke-opacity="1" stroke-width="1" stroke-linecap="square" stroke-linejoin="bevel" transform="matrix(1,0,0,1,0,0)"
font-family="Helvetica" font-size="12" font-weight="400" font-style="normal" 
>
</g>
</g>
</svg>
