<?xml version="1.0" encoding="UTF-8" standalone="no"?>
<svg width="70.5556mm" height="45.8611mm"
 viewBox="0 0 200 130"
 xmlns="http://www.w3.org/2000/svg" xmlns:xlink="http://www.w3.org/1999/xlink"  version="1.2" baseProfile="tiny">
<defs>
</defs>
<g fill="none" stroke="black" stroke-width="1" fill-rule="evenodd" stroke-linecap="square" stroke-linejoin="bevel" >

<g fill="#ffffff" fill-opacity="0" stroke="none" transform="matrix(1,0,0,1,0,0)"
font-family="Helvetica" font-size="12" font-weight="400" font-style="normal" 
>
<path vector-effect="non-scaling-stroke" fill-rule="evenodd" d="M0,0 L200,0 L200,130 L0,130 L0,0z "/>
</g>

<g fill="none" stroke="#000000" stroke-opacity="1" stroke-width="1" stroke-linecap="square" stroke-linejoin="bevel" transform="matrix(1,0,0,1,0,0)"
font-family="Helvetica" font-size="12" font-weight="400" font-style="normal" 
>
</g>

<g fill="none" stroke="#000000" stroke-opacity="1" stroke-width="1" stroke-linecap="square" stroke-linejoin="bevel" transform="matrix(1,0,0,1,0,0)"
font-family="Helvetica" font-size="12" font-weight="400" font-style="normal" 
clip-path="url(#clip5785)" >
<defs><clipPath id="clip5785"><path vector-effect="non-scaling-stroke" fill-rule="evenodd" d="M0,0 L200,0 L200,130.769 L0,130.769 L0,0z "/>
</clipPath></defs></g>

<g fill="none" stroke="#000000" stroke-opacity="1" stroke-width="1" stroke-linecap="square" stroke-linejoin="bevel" transform="matrix(-1.92308,0,0,-1.92308,13.4615,65.3846)"
font-family="Helvetica" font-size="12" font-weight="400" font-style="normal" 
clip-path="url(#clip5786)" >
<defs><clipPath id="clip5786"><path vector-effect="non-scaling-stroke" fill-rule="evenodd" d="M7,34 L-97,34 L-97,-34 L7,-34 L7,34z "/>
</clipPath></defs></g>

<g fill="#000000" fill-opacity="0" stroke="#000000" stroke-opacity="1" stroke-width="2" stroke-linecap="round" stroke-linejoin="miter" stroke-miterlimit="2" transform="matrix(-1.92308,0,0,-1.92308,13.4615,65.3846)"
font-family="Helvetica" font-size="12" font-weight="400" font-style="normal" 
clip-path="url(#clip5786)" >
<path vector-effect="none" fill-rule="evenodd" d="M5,-5 L0,0 L5,5"/>
</g>

<g fill="none" stroke="#000000" stroke-opacity="1" stroke-width="1" stroke-linecap="square" stroke-linejoin="bevel" transform="matrix(-1.92308,0,0,-1.92308,13.4615,65.3846)"
font-family="Helvetica" font-size="12" font-weight="400" font-style="normal" 
clip-path="url(#clip5786)" >
</g>

<g fill="none" stroke="#000000" stroke-opacity="1" stroke-width="1" stroke-linecap="square" stroke-linejoin="bevel" transform="matrix(1.92308,0,0,1.92308,13.4615,3.84615)"
font-family="Helvetica" font-size="12" font-weight="400" font-style="normal" 
clip-path="url(#clip5787)" >
<defs><clipPath id="clip5787"><path vector-effect="non-scaling-stroke" fill-rule="evenodd" d="M-7,-2 L97,-2 L97,66 L-7,66 L-7,-2z "/>
</clipPath></defs></g>

<g fill="#ffffff" fill-opacity="1" stroke="none" transform="matrix(1.92308,0,0,1.92308,13.4615,3.84615)"
font-family="Helvetica" font-size="12" font-weight="400" font-style="normal" 
clip-path="url(#clip5787)" >
<path vector-effect="none" fill-rule="evenodd" d="M0,0 L95,0 L95,64 L0,64 L0,0z "/>
</g>

<g fill="none" stroke="#000000" stroke-opacity="1" stroke-width="1" stroke-linecap="square" stroke-linejoin="bevel" transform="matrix(1.92308,0,0,1.92308,13.4615,3.84615)"
font-family="Helvetica" font-size="12" font-weight="400" font-style="normal" 
clip-path="url(#clip5787)" >
</g>

<g fill="none" stroke="#000000" stroke-opacity="1" stroke-width="1" stroke-linecap="square" stroke-linejoin="bevel" transform="matrix(1.92308,0,0,1.92308,13.4615,3.84615)"
font-family="Helvetica" font-size="12" font-weight="400" font-style="normal" 
clip-path="url(#clip5787)" >
</g>

<g fill="none" stroke="#000000" stroke-opacity="1" stroke-width="1" stroke-linecap="square" stroke-linejoin="bevel" transform="matrix(1.92308,0,0,1.92308,13.4615,3.84615)"
font-family="Helvetica" font-size="12" font-weight="400" font-style="normal" 
clip-path="url(#clip5788)" >
<defs><clipPath id="clip5788"><path vector-effect="non-scaling-stroke" fill-rule="evenodd" d="M0,0 L95,0 L95,64 L0,64 L0,0z "/>
</clipPath></defs></g>

<g fill="none" stroke="#000000" stroke-opacity="1" stroke-width="1" stroke-linecap="square" stroke-linejoin="bevel" transform="matrix(1.92308,0,0,1.92308,103.846,53.8462)"
font-family="Helvetica" font-size="7.5" font-weight="400" font-style="normal" 
clip-path="url(#clip5789)" >
<defs><clipPath id="clip5789"><path vector-effect="none" fill-rule="evenodd" d="M-47,-26 L48,-26 L48,38 L-47,38 L-47,-26z "/>
</clipPath></defs></g>

<g fill="none" stroke="#000000" stroke-opacity="1" stroke-width="1" stroke-linecap="square" stroke-linejoin="bevel" transform="matrix(2.5641,0,0,2.5641,103.846,53.8462)"
font-family="Helvetica" font-size="7.5" font-weight="400" font-style="normal" 
clip-path="url(#clip5790)" >
<defs><clipPath id="clip5790"><path vector-effect="none" fill-rule="evenodd" d="M-35,-19 L36,-19 L36,29 L-35,29 L-35,-19z "/>
</clipPath></defs><text textLength="45" fill="#000000" fill-opacity="1" stroke="none" xml:space="preserve" x="-23.25" y="2.25" font-family="Helvetica" font-size="7.5" font-weight="400" font-style="normal" 
 >Target Scope</text>
</g>

<g fill="none" stroke="#000000" stroke-opacity="1" stroke-width="1" stroke-linecap="square" stroke-linejoin="bevel" transform="matrix(1.92308,0,0,1.92308,103.846,53.8462)"
font-family="Helvetica" font-size="7.5" font-weight="400" font-style="normal" 
clip-path="url(#clip5791)" >
<defs><clipPath id="clip5791"><path vector-effect="none" fill-rule="evenodd" d="M-47,-26 L48,-26 L48,38 L-47,38 L-47,-26z "/>
</clipPath></defs></g>

<g fill="none" stroke="#000000" stroke-opacity="1" stroke-width="1" stroke-linecap="square" stroke-linejoin="bevel" transform="matrix(1.92308,0,0,1.92308,103.846,76.9231)"
font-family="Helvetica" font-size="7.5" font-weight="400" font-style="normal" 
clip-path="url(#clip5792)" >
<defs><clipPath id="clip5792"><path vector-effect="none" fill-rule="evenodd" d="M-47,-38 L48,-38 L48,26 L-47,26 L-47,-38z "/>
</clipPath></defs></g>

<g fill="none" stroke="#000000" stroke-opacity="1" stroke-width="1" stroke-linecap="square" stroke-linejoin="bevel" transform="matrix(2.5641,0,0,2.5641,103.846,76.9231)"
font-family="Helvetica" font-size="7.5" font-weight="400" font-style="normal" 
clip-path="url(#clip5793)" >
<defs><clipPath id="clip5793"><path vector-effect="none" fill-rule="evenodd" d="M-35,-28 L36,-28 L36,20 L-35,20 L-35,-28z "/>
</clipPath></defs><text textLength="14" fill="#000000" fill-opacity="1" stroke="none" xml:space="preserve" x="-7.5" y="2.25" font-family="Helvetica" font-size="7.5" font-weight="400" font-style="normal" 
 >Id: 0</text>
</g>

<g fill="none" stroke="#000000" stroke-opacity="1" stroke-width="1" stroke-linecap="square" stroke-linejoin="bevel" transform="matrix(1.92308,0,0,1.92308,103.846,76.9231)"
font-family="Helvetica" font-size="7.5" font-weight="400" font-style="normal" 
clip-path="url(#clip5794)" >
<defs><clipPath id="clip5794"><path vector-effect="none" fill-rule="evenodd" d="M-47,-38 L48,-38 L48,26 L-47,26 L-47,-38z "/>
</clipPath></defs></g>

<g fill="none" stroke="#000000" stroke-opacity="1" stroke-width="1" stroke-linecap="square" stroke-linejoin="bevel" transform="matrix(1.44231,0,0,1.44231,103.846,76.9231)"
font-family="Helvetica" font-size="7.5" font-weight="400" font-style="normal" 
clip-path="url(#clip5795)" >
<defs><clipPath id="clip5795"><path vector-effect="none" fill-rule="evenodd" d="M-7,-2 L97,-2 L97,66 L-7,66 L-7,-2z "/>
</clipPath></defs></g>

<g fill="none" stroke="#000000" stroke-opacity="1" stroke-width="1" stroke-linecap="square" stroke-linejoin="bevel" transform="matrix(1,0,0,1,0,0)"
font-family="Helvetica" font-size="7.5" font-weight="400" font-style="normal" 
clip-path="url(#clip5795)" >
</g>

<g fill="none" stroke="#000000" stroke-opacity="1" stroke-width="1" stroke-linecap="square" stroke-linejoin="bevel" transform="matrix(1.92308,0,0,1.92308,13.4615,3.84615)"
font-family="Helvetica" font-size="12" font-weight="400" font-style="normal" 
clip-path="url(#clip5795)" >
</g>

<g fill="none" stroke="#000000" stroke-opacity="1" stroke-width="1" stroke-linecap="square" stroke-linejoin="bevel" transform="matrix(1.92308,0,0,1.92308,13.4615,3.84615)"
font-family="Helvetica" font-size="12" font-weight="400" font-style="normal" 
clip-path="url(#clip5795)" >
</g>

<g fill="none" stroke="#000000" stroke-opacity="1" stroke-width="0.769842" stroke-linecap="butt" stroke-linejoin="miter" stroke-miterlimit="2" transform="matrix(1.92308,0,0,1.92308,13.4615,3.84615)"
font-family="Helvetica" font-size="12" font-weight="400" font-style="normal" 
clip-path="url(#clip5795)" >
<path vector-effect="none" fill-rule="evenodd" d="M0,0 L95,0 L95,64 L0,64 L0,0z "/>
</g>

<g fill="none" stroke="#000000" stroke-opacity="1" stroke-width="1" stroke-linecap="square" stroke-linejoin="bevel" transform="matrix(1.92308,0,0,1.92308,13.4615,3.84615)"
font-family="Helvetica" font-size="12" font-weight="400" font-style="normal" 
clip-path="url(#clip5795)" >
</g>

<g fill="none" stroke="#000000" stroke-opacity="1" stroke-width="1" stroke-linecap="square" stroke-linejoin="bevel" transform="matrix(1,0,0,1,0,0)"
font-family="Helvetica" font-size="12" font-weight="400" font-style="normal" 
>
</g>

<g fill="none" stroke="#000000" stroke-opacity="1" stroke-width="1" stroke-linecap="square" stroke-linejoin="bevel" transform="matrix(1,0,0,1,0,0)"
font-family="Helvetica" font-size="12" font-weight="400" font-style="normal" 
>
</g>

<g fill="none" stroke="#000000" stroke-opacity="1" stroke-width="1" stroke-linecap="square" stroke-linejoin="bevel" transform="matrix(1,0,0,1,0,0)"
font-family="Helvetica" font-size="12" font-weight="400" font-style="normal" 
clip-path="url(#clip5796)" >
<defs><clipPath id="clip5796"><path vector-effect="non-scaling-stroke" fill-rule="evenodd" d="M0,0 L200,0 L200,130 L0,130 L0,0z "/>
</clipPath></defs></g>

<g fill="none" stroke="#000000" stroke-opacity="1" stroke-width="1" stroke-linecap="square" stroke-linejoin="bevel" transform="matrix(1,0,0,1,0,0)"
font-family="Helvetica" font-size="12" font-weight="400" font-style="normal" 
>
</g>

<g fill="none" stroke="#000000" stroke-opacity="1" stroke-width="1" stroke-linecap="square" stroke-linejoin="bevel" transform="matrix(1,0,0,1,0,0)"
font-family="Helvetica" font-size="12" font-weight="400" font-style="normal" 
>
</g>

<g fill="none" stroke="#000000" stroke-opacity="1" stroke-width="1" stroke-linecap="square" stroke-linejoin="bevel" transform="matrix(1,0,0,1,0,0)"
font-family="Helvetica" font-size="12" font-weight="400" font-style="normal" 
clip-path="url(#clip5797)" >
<defs><clipPath id="clip5797"><path vector-effect="non-scaling-stroke" fill-rule="evenodd" d="M0,0 L1,0 L1,1 L0,1 L0,0z "/>
</clipPath></defs></g>

<g fill="none" stroke="#000000" stroke-opacity="1" stroke-width="1" stroke-linecap="square" stroke-linejoin="bevel" transform="matrix(1,0,0,1,0,0)"
font-family="Helvetica" font-size="12" font-weight="400" font-style="normal" 
>
</g>

<g fill="none" stroke="#000000" stroke-opacity="1" stroke-width="1" stroke-linecap="square" stroke-linejoin="bevel" transform="matrix(1,0,0,1,0,0)"
font-family="Helvetica" font-size="12" font-weight="400" font-style="normal" 
>
</g>
</g>
</svg>
