<?xml version="1.0" encoding="UTF-8" standalone="no"?>
<svg width="70.5556mm" height="33.8667mm"
 viewBox="0 0 200 96"
 xmlns="http://www.w3.org/2000/svg" xmlns:xlink="http://www.w3.org/1999/xlink"  version="1.2" baseProfile="tiny">
<defs>
</defs>
<g fill="none" stroke="black" stroke-width="1" fill-rule="evenodd" stroke-linecap="square" stroke-linejoin="bevel" >

<g fill="#ffffff" fill-opacity="0" stroke="none" transform="matrix(1,0,0,1,0,0)"
font-family="Helvetica" font-size="12" font-weight="400" font-style="normal" 
>
<path vector-effect="non-scaling-stroke" fill-rule="evenodd" d="M0,0 L200,0 L200,96 L0,96 L0,0z "/>
</g>

<g fill="none" stroke="#000000" stroke-opacity="1" stroke-width="1" stroke-linecap="square" stroke-linejoin="bevel" transform="matrix(1,0,0,1,0,0)"
font-family="Helvetica" font-size="12" font-weight="400" font-style="normal" 
>
</g>

<g fill="none" stroke="#000000" stroke-opacity="1" stroke-width="1" stroke-linecap="square" stroke-linejoin="bevel" transform="matrix(1,0,0,1,0,0)"
font-family="Helvetica" font-size="12" font-weight="400" font-style="normal" 
clip-path="url(#clip5903)" >
<defs><clipPath id="clip5903"><path vector-effect="non-scaling-stroke" fill-rule="evenodd" d="M0,0 L200,0 L200,96.6443 L0,96.6443 L0,0z "/>
</clipPath></defs></g>

<g fill="none" stroke="#000000" stroke-opacity="1" stroke-width="1" stroke-linecap="square" stroke-linejoin="bevel" transform="matrix(1.34228,0,0,1.34228,190.604,48.3221)"
font-family="Helvetica" font-size="12" font-weight="400" font-style="normal" 
clip-path="url(#clip5904)" >
<defs><clipPath id="clip5904"><path vector-effect="non-scaling-stroke" fill-rule="evenodd" d="M-142,-36 L7,-36 L7,36 L-142,36 L-142,-36z "/>
</clipPath></defs></g>

<g fill="#000000" fill-opacity="0" stroke="#000000" stroke-opacity="1" stroke-width="2" stroke-linecap="round" stroke-linejoin="miter" stroke-miterlimit="2" transform="matrix(1.34228,0,0,1.34228,190.604,48.3221)"
font-family="Helvetica" font-size="12" font-weight="400" font-style="normal" 
clip-path="url(#clip5904)" >
<path vector-effect="none" fill-rule="evenodd" d="M0,-5 L5,0 L0,5"/>
</g>

<g fill="none" stroke="#000000" stroke-opacity="1" stroke-width="1" stroke-linecap="square" stroke-linejoin="bevel" transform="matrix(1.34228,0,0,1.34228,190.604,48.3221)"
font-family="Helvetica" font-size="12" font-weight="400" font-style="normal" 
clip-path="url(#clip5904)" >
</g>

<g fill="none" stroke="#000000" stroke-opacity="1" stroke-width="1" stroke-linecap="square" stroke-linejoin="bevel" transform="matrix(-1.34228,0,0,-1.34228,9.39597,48.3221)"
font-family="Helvetica" font-size="12" font-weight="400" font-style="normal" 
clip-path="url(#clip5905)" >
<defs><clipPath id="clip5905"><path vector-effect="non-scaling-stroke" fill-rule="evenodd" d="M7,36 L-142,36 L-142,-36 L7,-36 L7,36z "/>
</clipPath></defs></g>

<g fill="#000000" fill-opacity="0" stroke="#000000" stroke-opacity="1" stroke-width="2" stroke-linecap="round" stroke-linejoin="miter" stroke-miterlimit="2" transform="matrix(-1.34228,0,0,-1.34228,9.39597,48.3221)"
font-family="Helvetica" font-size="12" font-weight="400" font-style="normal" 
clip-path="url(#clip5905)" >
<path vector-effect="none" fill-rule="evenodd" d="M5,-5 L0,0 L5,5"/>
</g>

<g fill="none" stroke="#000000" stroke-opacity="1" stroke-width="1" stroke-linecap="square" stroke-linejoin="bevel" transform="matrix(-1.34228,0,0,-1.34228,9.39597,48.3221)"
font-family="Helvetica" font-size="12" font-weight="400" font-style="normal" 
clip-path="url(#clip5905)" >
</g>

<g fill="none" stroke="#000000" stroke-opacity="1" stroke-width="1" stroke-linecap="square" stroke-linejoin="bevel" transform="matrix(1.34228,0,0,1.34228,9.39597,2.68456)"
font-family="Helvetica" font-size="12" font-weight="400" font-style="normal" 
clip-path="url(#clip5906)" >
<defs><clipPath id="clip5906"><path vector-effect="non-scaling-stroke" fill-rule="evenodd" d="M-7,-2 L142,-2 L142,70 L-7,70 L-7,-2z "/>
</clipPath></defs></g>

<g fill="#ffffff" fill-opacity="1" stroke="none" transform="matrix(1.34228,0,0,1.34228,9.39597,2.68456)"
font-family="Helvetica" font-size="12" font-weight="400" font-style="normal" 
clip-path="url(#clip5906)" >
<path vector-effect="none" fill-rule="evenodd" d="M0,0 L135,0 L135,68 L0,68 L0,0z "/>
</g>

<g fill="none" stroke="#000000" stroke-opacity="1" stroke-width="1" stroke-linecap="square" stroke-linejoin="bevel" transform="matrix(1.34228,0,0,1.34228,9.39597,2.68456)"
font-family="Helvetica" font-size="12" font-weight="400" font-style="normal" 
clip-path="url(#clip5906)" >
</g>

<g fill="none" stroke="#000000" stroke-opacity="1" stroke-width="1" stroke-linecap="square" stroke-linejoin="bevel" transform="matrix(1.34228,0,0,1.34228,9.39597,2.68456)"
font-family="Helvetica" font-size="12" font-weight="400" font-style="normal" 
clip-path="url(#clip5906)" >
</g>

<g fill="none" stroke="#000000" stroke-opacity="1" stroke-width="1" stroke-linecap="square" stroke-linejoin="bevel" transform="matrix(1.34228,0,0,1.34228,9.39597,2.68456)"
font-family="Helvetica" font-size="12" font-weight="400" font-style="normal" 
clip-path="url(#clip5907)" >
<defs><clipPath id="clip5907"><path vector-effect="non-scaling-stroke" fill-rule="evenodd" d="M0,0 L135,0 L135,68 L0,68 L0,0z "/>
</clipPath></defs></g>

<g fill="none" stroke="#000000" stroke-opacity="1" stroke-width="1" stroke-linecap="square" stroke-linejoin="bevel" transform="matrix(1.34228,0,0,1.34228,13.4228,48.3221)"
font-family="Helvetica" font-size="6.75" font-weight="400" font-style="normal" 
clip-path="url(#clip5908)" >
<defs><clipPath id="clip5908"><path vector-effect="none" fill-rule="evenodd" d="M-3,-34 L132,-34 L132,34 L-3,34 L-3,-34z "/>
</clipPath></defs></g>

<g fill="none" stroke="#000000" stroke-opacity="1" stroke-width="1" stroke-linecap="square" stroke-linejoin="bevel" transform="matrix(1.78971,0,0,1.78971,13.4228,48.3221)"
font-family="Helvetica" font-size="6.75" font-weight="400" font-style="normal" 
clip-path="url(#clip5909)" >
<defs><clipPath id="clip5909"><path vector-effect="none" fill-rule="evenodd" d="M-2,-25 L99,-25 L99,26 L-2,26 L-2,-25z "/>
</clipPath></defs><text textLength="23" fill="#000000" fill-opacity="1" stroke="none" xml:space="preserve" x="0" y="2.25" font-family="Helvetica" font-size="6.75" font-weight="400" font-style="normal" 
 >Counts</text>
</g>

<g fill="none" stroke="#000000" stroke-opacity="1" stroke-width="1" stroke-linecap="square" stroke-linejoin="bevel" transform="matrix(1.34228,0,0,1.34228,13.4228,48.3221)"
font-family="Helvetica" font-size="6.75" font-weight="400" font-style="normal" 
clip-path="url(#clip5910)" >
<defs><clipPath id="clip5910"><path vector-effect="none" fill-rule="evenodd" d="M-3,-34 L132,-34 L132,34 L-3,34 L-3,-34z "/>
</clipPath></defs></g>

<g fill="none" stroke="#000000" stroke-opacity="1" stroke-width="1" stroke-linecap="square" stroke-linejoin="bevel" transform="matrix(1.34228,0,0,1.34228,186.577,48.3221)"
font-family="Helvetica" font-size="6.75" font-weight="400" font-style="normal" 
clip-path="url(#clip5911)" >
<defs><clipPath id="clip5911"><path vector-effect="none" fill-rule="evenodd" d="M-132,-34 L3,-34 L3,34 L-132,34 L-132,-34z "/>
</clipPath></defs></g>

<g fill="none" stroke="#000000" stroke-opacity="1" stroke-width="1" stroke-linecap="square" stroke-linejoin="bevel" transform="matrix(1.78971,0,0,1.78971,186.577,48.3221)"
font-family="Helvetica" font-size="6.75" font-weight="400" font-style="normal" 
clip-path="url(#clip5912)" >
<defs><clipPath id="clip5912"><path vector-effect="none" fill-rule="evenodd" d="M-99,-25 L2,-25 L2,26 L-99,26 L-99,-25z "/>
</clipPath></defs><text textLength="55" fill="#000000" fill-opacity="1" stroke="none" xml:space="preserve" x="-54" y="2.25" font-family="Helvetica" font-size="6.75" font-weight="400" font-style="normal" 
 >Extended Counts</text>
</g>

<g fill="none" stroke="#000000" stroke-opacity="1" stroke-width="1" stroke-linecap="square" stroke-linejoin="bevel" transform="matrix(1.34228,0,0,1.34228,186.577,48.3221)"
font-family="Helvetica" font-size="6.75" font-weight="400" font-style="normal" 
clip-path="url(#clip5913)" >
<defs><clipPath id="clip5913"><path vector-effect="none" fill-rule="evenodd" d="M-132,-34 L3,-34 L3,34 L-132,34 L-132,-34z "/>
</clipPath></defs></g>

<g fill="none" stroke="#000000" stroke-opacity="1" stroke-width="1" stroke-linecap="square" stroke-linejoin="bevel" transform="matrix(1.00671,0,0,1.00671,186.577,48.3221)"
font-family="Helvetica" font-size="6.75" font-weight="400" font-style="normal" 
clip-path="url(#clip5914)" >
<defs><clipPath id="clip5914"><path vector-effect="none" fill-rule="evenodd" d="M-7,-2 L142,-2 L142,70 L-7,70 L-7,-2z "/>
</clipPath></defs></g>

<g fill="none" stroke="#000000" stroke-opacity="1" stroke-width="1" stroke-linecap="square" stroke-linejoin="bevel" transform="matrix(1,0,0,1,0,0)"
font-family="Helvetica" font-size="6.75" font-weight="400" font-style="normal" 
clip-path="url(#clip5914)" >
</g>

<g fill="none" stroke="#000000" stroke-opacity="1" stroke-width="1" stroke-linecap="square" stroke-linejoin="bevel" transform="matrix(1.34228,0,0,1.34228,9.39597,2.68456)"
font-family="Helvetica" font-size="12" font-weight="400" font-style="normal" 
clip-path="url(#clip5914)" >
</g>

<g fill="none" stroke="#000000" stroke-opacity="1" stroke-width="1" stroke-linecap="square" stroke-linejoin="bevel" transform="matrix(1.34228,0,0,1.34228,9.39597,2.68456)"
font-family="Helvetica" font-size="12" font-weight="400" font-style="normal" 
clip-path="url(#clip5914)" >
</g>

<g fill="none" stroke="#000000" stroke-opacity="1" stroke-width="0.88892" stroke-linecap="butt" stroke-linejoin="miter" stroke-miterlimit="2" transform="matrix(1.34228,0,0,1.34228,9.39597,2.68456)"
font-family="Helvetica" font-size="12" font-weight="400" font-style="normal" 
clip-path="url(#clip5914)" >
<path vector-effect="none" fill-rule="evenodd" d="M0,0 L135,0 L135,68 L0,68 L0,0z "/>
</g>

<g fill="none" stroke="#000000" stroke-opacity="1" stroke-width="1" stroke-linecap="square" stroke-linejoin="bevel" transform="matrix(1.34228,0,0,1.34228,9.39597,2.68456)"
font-family="Helvetica" font-size="12" font-weight="400" font-style="normal" 
clip-path="url(#clip5914)" >
</g>

<g fill="none" stroke="#000000" stroke-opacity="1" stroke-width="1" stroke-linecap="square" stroke-linejoin="bevel" transform="matrix(1,0,0,1,0,0)"
font-family="Helvetica" font-size="12" font-weight="400" font-style="normal" 
>
</g>

<g fill="none" stroke="#000000" stroke-opacity="1" stroke-width="1" stroke-linecap="square" stroke-linejoin="bevel" transform="matrix(1,0,0,1,0,0)"
font-family="Helvetica" font-size="12" font-weight="400" font-style="normal" 
>
</g>

<g fill="none" stroke="#000000" stroke-opacity="1" stroke-width="1" stroke-linecap="square" stroke-linejoin="bevel" transform="matrix(1,0,0,1,0,0)"
font-family="Helvetica" font-size="12" font-weight="400" font-style="normal" 
clip-path="url(#clip5915)" >
<defs><clipPath id="clip5915"><path vector-effect="non-scaling-stroke" fill-rule="evenodd" d="M0,0 L200,0 L200,96 L0,96 L0,0z "/>
</clipPath></defs></g>

<g fill="none" stroke="#000000" stroke-opacity="1" stroke-width="1" stroke-linecap="square" stroke-linejoin="bevel" transform="matrix(1,0,0,1,0,0)"
font-family="Helvetica" font-size="12" font-weight="400" font-style="normal" 
>
</g>

<g fill="none" stroke="#000000" stroke-opacity="1" stroke-width="1" stroke-linecap="square" stroke-linejoin="bevel" transform="matrix(1,0,0,1,0,0)"
font-family="Helvetica" font-size="12" font-weight="400" font-style="normal" 
>
</g>

<g fill="none" stroke="#000000" stroke-opacity="1" stroke-width="1" stroke-linecap="square" stroke-linejoin="bevel" transform="matrix(1,0,0,1,0,0)"
font-family="Helvetica" font-size="12" font-weight="400" font-style="normal" 
clip-path="url(#clip5916)" >
<defs><clipPath id="clip5916"><path vector-effect="non-scaling-stroke" fill-rule="evenodd" d="M0,0 L1,0 L1,1 L0,1 L0,0z "/>
</clipPath></defs></g>

<g fill="none" stroke="#000000" stroke-opacity="1" stroke-width="1" stroke-linecap="square" stroke-linejoin="bevel" transform="matrix(1,0,0,1,0,0)"
font-family="Helvetica" font-size="12" font-weight="400" font-style="normal" 
>
</g>

<g fill="none" stroke="#000000" stroke-opacity="1" stroke-width="1" stroke-linecap="square" stroke-linejoin="bevel" transform="matrix(1,0,0,1,0,0)"
font-family="Helvetica" font-size="12" font-weight="400" font-style="normal" 
>
</g>
</g>
</svg>
