<?xml version="1.0" encoding="UTF-8" standalone="no"?>
<svg width="67.7333mm" height="33.1893mm"
 viewBox="0 0 200 98"
 xmlns="http://www.w3.org/2000/svg" xmlns:xlink="http://www.w3.org/1999/xlink"  version="1.2" baseProfile="tiny">
<defs>
</defs>
<g fill="none" stroke="black" stroke-width="1" fill-rule="evenodd" stroke-linecap="square" stroke-linejoin="bevel" >

<g fill="#ffffff" fill-opacity="0" stroke="none" transform="matrix(1,0,0,1,0,0)"
font-family="Nimbus Sans L" font-size="12.5" font-weight="400" font-style="normal" 
>
<path vector-effect="non-scaling-stroke" fill-rule="evenodd" d="M0,0 L200,0 L200,98 L0,98 L0,0z "/>
</g>

<g fill="none" stroke="#000000" stroke-opacity="1" stroke-width="1" stroke-linecap="square" stroke-linejoin="bevel" transform="matrix(1,0,0,1,0,0)"
font-family="Nimbus Sans L" font-size="12.5" font-weight="400" font-style="normal" 
>
</g>

<g fill="none" stroke="#000000" stroke-opacity="1" stroke-width="1" stroke-linecap="square" stroke-linejoin="bevel" transform="matrix(1,0,0,1,0,0)"
font-family="Nimbus Sans L" font-size="12.5" font-weight="400" font-style="normal" 
clip-path="url(#clip63)" >
<defs><clipPath id="clip63"><path vector-effect="non-scaling-stroke" fill-rule="evenodd" d="M0,0 L200,0 L200,98.2456 L0,98.2456 L0,0z "/>
</clipPath></defs></g>

<g fill="none" stroke="#000000" stroke-opacity="1" stroke-width="1" stroke-linecap="square" stroke-linejoin="bevel" transform="matrix(1.75439,0,0,1.75439,187.719,49.1228)"
font-family="Nimbus Sans L" font-size="12.5" font-weight="400" font-style="normal" 
clip-path="url(#clip64)" >
<defs><clipPath id="clip64"><path vector-effect="non-scaling-stroke" fill-rule="evenodd" d="M-107,-28 L7,-28 L7,28 L-107,28 L-107,-28z "/>
</clipPath></defs></g>

<g fill="#000000" fill-opacity="0" stroke="#000000" stroke-opacity="1" stroke-width="2" stroke-linecap="round" stroke-linejoin="miter" stroke-miterlimit="2" transform="matrix(1.75439,0,0,1.75439,187.719,49.1228)"
font-family="Nimbus Sans L" font-size="12.5" font-weight="400" font-style="normal" 
clip-path="url(#clip64)" >
<path vector-effect="none" fill-rule="evenodd" d="M0,-5 L5,0 L0,5"/>
</g>

<g fill="none" stroke="#000000" stroke-opacity="1" stroke-width="1" stroke-linecap="square" stroke-linejoin="bevel" transform="matrix(1.75439,0,0,1.75439,187.719,49.1228)"
font-family="Nimbus Sans L" font-size="12.5" font-weight="400" font-style="normal" 
clip-path="url(#clip64)" >
</g>

<g fill="none" stroke="#000000" stroke-opacity="1" stroke-width="1" stroke-linecap="square" stroke-linejoin="bevel" transform="matrix(-1.75439,0,0,-1.75439,12.2807,49.1228)"
font-family="Nimbus Sans L" font-size="12.5" font-weight="400" font-style="normal" 
clip-path="url(#clip65)" >
<defs><clipPath id="clip65"><path vector-effect="non-scaling-stroke" fill-rule="evenodd" d="M7,28 L-107,28 L-107,-28 L7,-28 L7,28z "/>
</clipPath></defs></g>

<g fill="#000000" fill-opacity="0" stroke="#000000" stroke-opacity="1" stroke-width="2" stroke-linecap="round" stroke-linejoin="miter" stroke-miterlimit="2" transform="matrix(-1.75439,0,0,-1.75439,12.2807,49.1228)"
font-family="Nimbus Sans L" font-size="12.5" font-weight="400" font-style="normal" 
clip-path="url(#clip65)" >
<path vector-effect="none" fill-rule="evenodd" d="M5,-5 L0,0 L5,5"/>
</g>

<g fill="none" stroke="#000000" stroke-opacity="1" stroke-width="1" stroke-linecap="square" stroke-linejoin="bevel" transform="matrix(-1.75439,0,0,-1.75439,12.2807,49.1228)"
font-family="Nimbus Sans L" font-size="12.5" font-weight="400" font-style="normal" 
clip-path="url(#clip65)" >
</g>

<g fill="none" stroke="#000000" stroke-opacity="1" stroke-width="1" stroke-linecap="square" stroke-linejoin="bevel" transform="matrix(1.75439,0,0,1.75439,12.2807,3.50877)"
font-family="Nimbus Sans L" font-size="12.5" font-weight="400" font-style="normal" 
clip-path="url(#clip66)" >
<defs><clipPath id="clip66"><path vector-effect="non-scaling-stroke" fill-rule="evenodd" d="M-7,-2 L107,-2 L107,54 L-7,54 L-7,-2z "/>
</clipPath></defs></g>

<g fill="#ffffff" fill-opacity="1" stroke="none" transform="matrix(1.75439,0,0,1.75439,12.2807,3.50877)"
font-family="Nimbus Sans L" font-size="12.5" font-weight="400" font-style="normal" 
clip-path="url(#clip66)" >
<path vector-effect="none" fill-rule="evenodd" d="M0,0 L100,0 L100,52 L0,52 L0,0z "/>
</g>

<g fill="none" stroke="#000000" stroke-opacity="1" stroke-width="1" stroke-linecap="square" stroke-linejoin="bevel" transform="matrix(1.75439,0,0,1.75439,12.2807,3.50877)"
font-family="Nimbus Sans L" font-size="12.5" font-weight="400" font-style="normal" 
clip-path="url(#clip66)" >
</g>

<g fill="none" stroke="#000000" stroke-opacity="1" stroke-width="1" stroke-linecap="square" stroke-linejoin="bevel" transform="matrix(1.75439,0,0,1.75439,12.2807,3.50877)"
font-family="Nimbus Sans L" font-size="12.5" font-weight="400" font-style="normal" 
clip-path="url(#clip66)" >
</g>

<g fill="none" stroke="#000000" stroke-opacity="1" stroke-width="1" stroke-linecap="square" stroke-linejoin="bevel" transform="matrix(1.75439,0,0,1.75439,12.2807,3.50877)"
font-family="Nimbus Sans L" font-size="12.5" font-weight="400" font-style="normal" 
clip-path="url(#clip67)" >
<defs><clipPath id="clip67"><path vector-effect="non-scaling-stroke" fill-rule="evenodd" d="M0,0 L100,0 L100,52 L0,52 L0,0z "/>
</clipPath></defs></g>

<g fill="none" stroke="#000000" stroke-opacity="1" stroke-width="1" stroke-linecap="square" stroke-linejoin="bevel" transform="matrix(1.75439,0,0,1.75439,100,49.1228)"
font-family="Liberation Sans" font-size="10" font-weight="400" font-style="normal" 
clip-path="url(#clip68)" >
<defs><clipPath id="clip68"><path vector-effect="none" fill-rule="evenodd" d="M-50,-26 L50,-26 L50,26 L-50,26 L-50,-26z "/>
</clipPath></defs></g>

<g fill="none" stroke="#000000" stroke-opacity="1" stroke-width="1" stroke-linecap="square" stroke-linejoin="bevel" transform="matrix(1.75439,0,0,1.75439,100,49.1228)"
font-family="Liberation Sans" font-size="10" font-weight="400" font-style="normal" 
clip-path="url(#clip68)" >
<text textLength="18" fill="#000000" fill-opacity="1" stroke="none" xml:space="preserve" x="-9" y="3" font-family="Liberation Sans" font-size="10" font-weight="400" font-style="normal" 
 >???</text>
</g>

<g fill="none" stroke="#000000" stroke-opacity="1" stroke-width="1" stroke-linecap="square" stroke-linejoin="bevel" transform="matrix(1.75439,0,0,1.75439,100,49.1228)"
font-family="Liberation Sans" font-size="10" font-weight="400" font-style="normal" 
clip-path="url(#clip68)" >
</g>

<g fill="none" stroke="#000000" stroke-opacity="1" stroke-width="1" stroke-linecap="square" stroke-linejoin="bevel" transform="matrix(1.75439,0,0,1.75439,100,49.1228)"
font-family="Liberation Sans" font-size="10" font-weight="400" font-style="normal" 
clip-path="url(#clip69)" >
<defs><clipPath id="clip69"><path vector-effect="none" fill-rule="evenodd" d="M-7,-2 L107,-2 L107,54 L-7,54 L-7,-2z "/>
</clipPath></defs></g>

<g fill="none" stroke="#000000" stroke-opacity="1" stroke-width="1" stroke-linecap="square" stroke-linejoin="bevel" transform="matrix(1,0,0,1,0,0)"
font-family="Liberation Sans" font-size="10" font-weight="400" font-style="normal" 
clip-path="url(#clip69)" >
</g>

<g fill="none" stroke="#000000" stroke-opacity="1" stroke-width="1" stroke-linecap="square" stroke-linejoin="bevel" transform="matrix(1.75439,0,0,1.75439,12.2807,3.50877)"
font-family="Nimbus Sans L" font-size="12.5" font-weight="400" font-style="normal" 
clip-path="url(#clip69)" >
</g>

<g fill="none" stroke="#000000" stroke-opacity="1" stroke-width="1" stroke-linecap="square" stroke-linejoin="bevel" transform="matrix(1.75439,0,0,1.75439,12.2807,3.50877)"
font-family="Nimbus Sans L" font-size="12.5" font-weight="400" font-style="normal" 
clip-path="url(#clip69)" >
</g>

<g fill="none" stroke="#000000" stroke-opacity="1" stroke-width="0.798638" stroke-linecap="butt" stroke-linejoin="miter" stroke-miterlimit="2" transform="matrix(1.75439,0,0,1.75439,12.2807,3.50877)"
font-family="Nimbus Sans L" font-size="12.5" font-weight="400" font-style="normal" 
clip-path="url(#clip69)" >
<path vector-effect="none" fill-rule="evenodd" d="M0,0 L100,0 L100,52 L0,52 L0,0z "/>
</g>

<g fill="none" stroke="#000000" stroke-opacity="1" stroke-width="1" stroke-linecap="square" stroke-linejoin="bevel" transform="matrix(1.75439,0,0,1.75439,12.2807,3.50877)"
font-family="Nimbus Sans L" font-size="12.5" font-weight="400" font-style="normal" 
clip-path="url(#clip69)" >
</g>

<g fill="none" stroke="#000000" stroke-opacity="1" stroke-width="1" stroke-linecap="square" stroke-linejoin="bevel" transform="matrix(1,0,0,1,0,0)"
font-family="Nimbus Sans L" font-size="12.5" font-weight="400" font-style="normal" 
>
</g>

<g fill="none" stroke="#000000" stroke-opacity="1" stroke-width="1" stroke-linecap="square" stroke-linejoin="bevel" transform="matrix(1,0,0,1,0,0)"
font-family="Nimbus Sans L" font-size="12.5" font-weight="400" font-style="normal" 
>
</g>

<g fill="none" stroke="#000000" stroke-opacity="1" stroke-width="1" stroke-linecap="square" stroke-linejoin="bevel" transform="matrix(1,0,0,1,0,0)"
font-family="Nimbus Sans L" font-size="12.5" font-weight="400" font-style="normal" 
clip-path="url(#clip70)" >
<defs><clipPath id="clip70"><path vector-effect="non-scaling-stroke" fill-rule="evenodd" d="M0,0 L200,0 L200,98 L0,98 L0,0z "/>
</clipPath></defs></g>

<g fill="none" stroke="#000000" stroke-opacity="1" stroke-width="1" stroke-linecap="square" stroke-linejoin="bevel" transform="matrix(1,0,0,1,0,0)"
font-family="Nimbus Sans L" font-size="12.5" font-weight="400" font-style="normal" 
>
</g>

<g fill="none" stroke="#000000" stroke-opacity="1" stroke-width="1" stroke-linecap="square" stroke-linejoin="bevel" transform="matrix(1,0,0,1,0,0)"
font-family="Nimbus Sans L" font-size="12.5" font-weight="400" font-style="normal" 
>
</g>

<g fill="none" stroke="#000000" stroke-opacity="1" stroke-width="1" stroke-linecap="square" stroke-linejoin="bevel" transform="matrix(1,0,0,1,0,0)"
font-family="Nimbus Sans L" font-size="12.5" font-weight="400" font-style="normal" 
clip-path="url(#clip71)" >
<defs><clipPath id="clip71"><path vector-effect="non-scaling-stroke" fill-rule="evenodd" d="M0,0 L1,0 L1,1 L0,1 L0,0z "/>
</clipPath></defs></g>

<g fill="none" stroke="#000000" stroke-opacity="1" stroke-width="1" stroke-linecap="square" stroke-linejoin="bevel" transform="matrix(1,0,0,1,0,0)"
font-family="Nimbus Sans L" font-size="12.5" font-weight="400" font-style="normal" 
>
</g>

<g fill="none" stroke="#000000" stroke-opacity="1" stroke-width="1" stroke-linecap="square" stroke-linejoin="bevel" transform="matrix(1,0,0,1,0,0)"
font-family="Nimbus Sans L" font-size="12.5" font-weight="400" font-style="normal" 
>
</g>
</g>
</svg>
